<?xml version="1.0" standalone="no"?>
<!DOCTYPE svg PUBLIC "-//W3C//DTD SVG 1.1//EN" "http://www.w3.org/Graphics/SVG/1.1/DTD/svg11.dtd" >
<svg xmlns="http://www.w3.org/2000/svg" xmlns:xlink="http://www.w3.org/1999/xlink" version="1.1">
<metadata>
Created by FontForge 20161003 at Thu Nov 23 13:39:33 2017
 By www-data
Copyright (c) 2012 by Kimberly Geswein. All rights reserved.
</metadata>
<defs>
<font id="KGAlwaysAGoodTime" horiz-adv-x="527" >
  <font-face 
    font-family="KGAlwaysAGoodTime"
    font-weight="400"
    font-stretch="normal"
    units-per-em="1024"
    panose-1="2 0 5 5 0 0 0 2 0 3"
    ascent="819"
    descent="-205"
    x-height="582"
    cap-height="860"
    bbox="-250.622 -480.327 1334.75 1170.51"
    underline-thickness="51"
    underline-position="-153"
    unicode-range="U+0020-2212"
  />
<missing-glyph horiz-adv-x="512" 
 />
    <glyph glyph-name=".notdef" horiz-adv-x="512" 
 />
    <glyph glyph-name=".null" horiz-adv-x="0" 
 />
    <glyph glyph-name="nonmarkingreturn" horiz-adv-x="512" 
 />
    <glyph glyph-name="space" unicode=" " horiz-adv-x="283" 
 />
    <glyph glyph-name="space" unicode="&#xa0;" horiz-adv-x="283" 
 />
    <glyph glyph-name="exclam" unicode="!" horiz-adv-x="187" 
d="M37 819q4 26 21 36.5t36 9t34.5 -13t18.5 -28.5v-563q-9 -27 -27.5 -35.5t-37 -5.5t-32 16t-13.5 30v554zM149 83q5 -27 -9 -45t-34.5 -23.5t-42 3t-30.5 35.5q-10 28 5 49t37.5 28t45 -3t28.5 -44z" />
    <glyph glyph-name="quotedbl" unicode="&#x22;" horiz-adv-x="350" 
d="M89 796q26 -16 45 -42t28.5 -59t7.5 -70t-18 -75q-8 -20 -28.5 -28t-39.5 -4t-30.5 19.5t-0.5 42.5q17 42 8 71.5t-34 51.5q-16 14 -15 34.5t11.5 37t28.5 24.5t37 -3zM248 818q26 -16 45 -42t28.5 -59t7.5 -70t-18 -75q-8 -20 -28.5 -28t-39.5 -4t-30.5 19.5t-0.5 42.5
q17 42 8 71.5t-34 51.5q-16 14 -15 34.5t11.5 37t28.5 24.5t37 -3z" />
    <glyph glyph-name="numbersign" unicode="#" horiz-adv-x="689" 
d="M504 454l-13 -89l89 -13q21 -2 31.5 -21.5t9 -41.5t-15 -39t-39.5 -14l-93 14l-12 -81q-1 -12 -10.5 -19.5t-22.5 -11t-28 -3t-28 6t-20.5 15t-6.5 24.5l13 87l-96 14l-12 -84q-2 -18 -21 -26.5t-41 -7t-39 12.5t-15 33l13 90l-88 14q-18 2 -26 21t-6.5 41t13 39t33.5 15
l92 -14l13 87l-80 12q-18 2 -26 21.5t-6.5 41.5t13 39t33.5 14l83 -13l12 80q2 21 21 31.5t41 9.5t39 -14t15 -39l-13 -85l97 -14l13 82q2 21 21 32t41 10t39 -14.5t15 -39.5l-14 -87l101 -15q21 -2 31.5 -21.5t9 -41.5t-15 -39t-39.5 -14zM280 398l96 -15l13 88l-96 15z
" />
    <glyph glyph-name="dollar" unicode="$" horiz-adv-x="575" 
d="M218 866q4 27 23 37.5t40 7.5t38.5 -17.5t17.5 -36.5v-17t1 -17q32 1 69 -14.5t69 -47t54 -79t24 -108.5q1 -23 -16.5 -34.5t-39.5 -12.5t-41 8t-21 27q-3 26 -9.5 50t-18.5 42t-29.5 29t-42.5 10q-2 -125 -2 -193v-73q53 -15 95 -40.5t70 -57t41 -67.5t9 -73
q-4 -29 -18.5 -56.5t-40.5 -49.5t-64 -37t-89 -19q1 -12 0.5 -24.5t-0.5 -25.5q-3 -16 -20 -27t-37 -12.5t-38.5 9.5t-23.5 39q0 6 1.5 19t0.5 18q-50 4 -84.5 22t-55.5 45t-30.5 59.5t-9.5 65.5q5 33 24.5 44.5t41 7.5t38 -20.5t15.5 -40.5q5 -34 21 -50t38 -14v197
q-39 15 -72 38.5t-57.5 53t-40 63t-19.5 68.5q-4 37 6 76t33.5 74t61.5 64t89 47zM331 147q47 -1 75 19t32 46q2 13 -5.5 28t-22 28.5t-35 23.5t-44.5 14v-159zM218 690q-30 -17 -45 -49t-13 -66q2 -29 16 -55.5t42 -43.5q-2 54 0 107t0 107z" />
    <glyph glyph-name="percent" unicode="%" horiz-adv-x="807" 
d="M199 831q50 6 86.5 -19.5t57 -68t25 -95t-9 -99.5t-46.5 -82t-86 -43q-61 -9 -102.5 15.5t-63 67.5t-23.5 96.5t15.5 101.5t54 83.5t92.5 42.5zM211 534q22 3 35 19t17.5 38t2 46.5t-11.5 44t-23.5 30.5t-32.5 6q-15 -4 -26.5 -19.5t-18 -37t-7.5 -45.5t5.5 -43t21 -30.5
t38.5 -8.5zM587 828q15 15 35.5 12.5t37 -13.5t25 -27t-0.5 -29l-439 -779q-17 -10 -37 -9t-36 10.5t-25 25.5t-4 37zM621 406q50 6 86 -20.5t56.5 -69t24.5 -95t-10 -100t-47 -82t-87 -41.5q-61 -8 -102 17t-62 68.5t-23 96.5t16 101t55 83t93 42zM630 109q23 3 36 19
t18 38t2.5 46t-11.5 43.5t-23.5 30.5t-32.5 7q-14 -3 -26 -19t-18.5 -37.5t-8 -45t4.5 -43t20.5 -31t38.5 -8.5z" />
    <glyph glyph-name="ampersand" unicode="&#x26;" horiz-adv-x="483" 
d="M464 723q-6 -42 -9.5 -84.5t-15.5 -87.5q-5 -19 -16.5 -28t-26 -9t-30 8t-28.5 22q-21 11 -45 13t-46 -3t-39 -15.5t-24 -22.5q-12 -19 -9 -32.5t14.5 -22.5t29 -13.5t35.5 -6.5t33 -2.5t22 0.5q23 1 36 -15.5t15 -37t-7.5 -37t-31.5 -14.5q-30 3 -63.5 2t-61 -8.5
t-45.5 -23.5t-16 -44q1 -21 15 -30.5t34.5 -11.5t43.5 1.5t43 8.5q16 6 35.5 5t35 -9t23 -23.5t-0.5 -38.5q-18 -55 -37.5 -102t-31.5 -73q-11 -23 -32 -26t-39.5 6t-29.5 26.5t-1 37.5q1 2 7.5 16.5t14.5 31t14.5 30.5t7.5 16q-36 -9 -70 -4.5t-61.5 19t-46 36.5t-23.5 47
q-9 38 3 84.5t51 84.5q-17 21 -24 43t-7.5 42.5t4.5 39t12 34.5q16 37 47 60.5t68.5 34t77.5 9t74 -12.5q3 8 5 21.5t3.5 28t3.5 28t4 22.5q7 23 25.5 31.5t37.5 4.5t32.5 -18.5t10.5 -37.5z" />
    <glyph glyph-name="quotesingle" unicode="'" horiz-adv-x="179" 
d="M89 796q26 -16 45 -42t28.5 -59t7.5 -70t-18 -75q-8 -20 -28.5 -28t-39.5 -4t-30.5 19.5t-0.5 42.5q17 42 8 71.5t-34 51.5q-16 14 -15 34.5t11.5 37t28.5 24.5t37 -3z" />
    <glyph glyph-name="parenleft" unicode="(" horiz-adv-x="326" 
d="M266 889q19 12 39.5 4.5t34 -23t15 -35.5t-16.5 -33q-50 -38 -89 -95.5t-65.5 -122.5t-38.5 -131.5t-8 -121.5q6 -91 40 -167.5t97 -117.5q24 -15 26.5 -38.5t-7 -43t-28 -29.5t-37.5 2q-51 31 -89 72t-63.5 88.5t-39.5 100t-18 107.5q-5 80 9.5 167t47 167.5t81 146.5
t110.5 103z" />
    <glyph glyph-name="parenright" unicode=")" horiz-adv-x="365" 
d="M101 -67q-20 -12 -40 -4.5t-33.5 23t-15 35t16.5 33.5q50 37 89 95t65.5 123t38.5 131.5t8 121.5q-6 91 -40 167.5t-97 117.5q-24 15 -27 38.5t7 43t28.5 29.5t37.5 -2q51 -31 89 -72t63.5 -88.5t39.5 -100t18 -107.5q5 -80 -9.5 -167.5t-47 -167.5t-81 -146t-110.5 -103
z" />
    <glyph glyph-name="asterisk" unicode="*" horiz-adv-x="691" 
d="M488 411l60 -16q20 -5 27 -23t2.5 -36t-20 -30t-40.5 -5l-72 19l47 -86q10 -18 2 -35.5t-24.5 -26.5t-35.5 -5.5t-31 26.5l-33 61l-19 -76q-5 -20 -23 -27t-36 -2.5t-30 20t-6 41.5l18 71l-57 -35q-14 -10 -30.5 -2.5t-27 23t-11 34t17.5 30.5l75 46l-95 26
q-17 5 -22 22.5t0 35t19 29.5t35 6l72 -20l-29 55q-8 16 1 31.5t25.5 24t35 7t28.5 -20.5l26 -49l16 62q5 17 22.5 22t35 0t29.5 -19t6 -35l-16 -62l65 40q17 12 35.5 6t29 -21.5t9.5 -35t-22 -34.5z" />
    <glyph glyph-name="plus" unicode="+" horiz-adv-x="669" 
d="M338 260h-130q-18 0 -28 18t-11 40t8.5 40t31.5 18h129v140q0 18 18 28t40 11t40 -8.5t18 -31.5v-139h128q14 0 24 -8.5t16 -21t7 -27.5t-4 -28t-16 -22t-28 -9h-127v-118q0 -14 -8.5 -24t-21 -16t-27.5 -7t-28 4t-22 15.5t-9 28.5v117z" />
    <glyph glyph-name="comma" unicode="," horiz-adv-x="246" 
d="M89 58q-18 34 -7.5 54t31.5 26.5t45 0.5t33 -23t19 -44t12.5 -60t-6.5 -71.5t-37 -78.5q-16 -23 -39 -23.5t-40.5 11.5t-23 32.5t12.5 41.5q16 18 20.5 37t2 36t-9.5 33t-13 28z" />
    <glyph glyph-name="hyphen" unicode="-" horiz-adv-x="585" 
d="M201 257q-18 0 -28 18.5t-11 41t8.5 41.5t31.5 19l305 5q21 0 33.5 -18.5t13.5 -41t-10.5 -41.5t-37.5 -19z" />
    <glyph glyph-name="period" unicode="." horiz-adv-x="242" 
d="M92 15q-22 25 -16.5 51t24.5 41t45.5 14t47.5 -29q9 -15 8.5 -30t-8 -28t-20.5 -22t-27.5 -13t-28.5 -0.5t-25 16.5z" />
    <glyph glyph-name="slash" unicode="/" horiz-adv-x="557" 
d="M445 848q15 15 34.5 12t35 -14.5t23 -28t-1.5 -29.5l-430 -778q-17 -10 -36.5 -9t-35 10.5t-24.5 25.5t-4 37z" />
    <glyph glyph-name="zero" unicode="0" horiz-adv-x="564" 
d="M294 864q59 1 105 -37t78 -101t48.5 -142.5t17.5 -162.5t-15.5 -162t-51 -139t-87.5 -94.5t-127 -29.5q-71 5 -120 45t-77.5 102t-38 139t-2.5 157t29 156.5t57 136t81.5 95.5t102.5 37zM384 650q-23 50 -54 64t-62 1.5t-57.5 -47t-41.5 -81.5q-14 -46 -22 -99
t-8.5 -105.5t6.5 -100.5t24 -84q19 -42 48.5 -60.5t61 -15.5t61 26.5t47.5 64.5q20 44 29.5 101.5t9 117.5t-11 117t-30.5 101z" />
    <glyph glyph-name="one" unicode="1" horiz-adv-x="179" 
d="M33 807q5 33 23.5 46t39 12.5t37 -13.5t16.5 -32q1 -15 1.5 -51.5t0.5 -87.5t0.5 -111.5t0.5 -124v-125t0.5 -114t1.5 -91.5t2 -57q1 -27 -15.5 -44t-37.5 -20.5t-40.5 9t-25.5 44.5q-2 7 -3 39t-1.5 80.5t-1 109t-0.5 125v129t0.5 119.5t1 96.5t0.5 61.5z" />
    <glyph glyph-name="two" unicode="2" horiz-adv-x="513" 
d="M264 719q-20 -6 -37 -18.5t-32.5 -28t-29.5 -34t-27 -36.5q-16 -21 -39 -23.5t-42.5 7t-30 27.5t-2.5 36q9 28 36 62.5t62.5 65.5t74.5 53.5t71 27.5q43 7 83 -4t71.5 -37t51 -65t19.5 -88q0 -44 -15.5 -92.5t-40.5 -98.5t-57 -99.5t-65 -94.5t-64 -83.5t-53 -66.5l249 8
q25 0 39 -17t15 -39.5t-12 -43.5t-41 -28q-97 -4 -198 -6.5t-186 -5.5q-20 -2 -31 11t-14.5 33t1.5 43t17 41q13 20 29 37.5t28 32.5q17 21 41 51.5t51.5 67t55 75.5t51.5 76.5t42 72t26 60.5t5 51.5t-16 43.5t-34.5 26.5t-51.5 -0.5z" />
    <glyph glyph-name="three" unicode="3" horiz-adv-x="474" 
d="M134 612q-8 -23 -28.5 -32t-41.5 -7t-36.5 14.5t-12.5 33.5q6 48 30.5 95t62 82t86 53t102.5 9q61 -11 95 -53t42 -97t-8.5 -112.5t-55.5 -99.5q40 -23 62.5 -57.5t31 -74t4 -82t-17.5 -82t-33 -73t-44 -55.5q-30 -27 -69 -47t-83 -24.5t-91.5 11.5t-93.5 60
q-23 22 -19 48t22 43t43 20t43 -19q16 -20 34.5 -29t38 -10t38 5t33.5 16q28 18 44.5 45.5t22.5 57t2 58t-16.5 49t-32.5 30t-46 1.5q-23 -7 -39 7t-22.5 35t-2 42.5t23.5 28.5t38.5 26t36 44t27.5 53t12.5 53t-9 43t-35.5 24q-29 6 -51 -6.5t-39 -34t-29 -47t-19 -45.5z
" />
    <glyph glyph-name="four" unicode="4" horiz-adv-x="604" 
d="M255 784q15 18 34 34.5t39 28.5t40.5 18.5t37.5 3.5q20 -3 37.5 -19.5t21.5 -50.5q0 -33 -1.5 -71t-2.5 -78t-1 -78.5t3 -71.5q17 0 27.5 0.5t20.5 1.5t21 1.5t28 1.5q15 3 28.5 -13t17 -38t-5 -44t-36.5 -29q-17 0 -28 -0.5t-20.5 -0.5h-20.5t-28 -1v-353
q-3 -22 -22.5 -30t-41.5 -5.5t-41 14.5t-20 32q1 39 4 77.5t4.5 79.5t1.5 85t-4 94q-23 2 -52 3.5t-60 2t-60.5 0t-51.5 -2.5q-38 -2 -65.5 6t-40.5 23q-28 33 16 106q19 32 47 68t59 72t61.5 70t53.5 63zM170 503q13 1 34.5 1h45.5t48 -0.5t44 -0.5q-1 19 -0.5 46.5t1.5 57
t2 56.5t1 47z" />
    <glyph glyph-name="five" unicode="5" horiz-adv-x="474" 
d="M384 858q24 1 35.5 -18.5t10.5 -43.5t-16 -43.5t-44 -17.5q-24 2 -53 3t-59.5 0.5t-59.5 -2.5t-53 -6l-6 -205q94 19 156.5 -2.5t98.5 -67t49 -107.5t9 -125q-4 -55 -30.5 -100.5t-66 -76t-87 -44.5t-93 -7.5t-83.5 36.5t-58 87q-8 21 -4.5 37.5t14 28t25 17t28.5 4.5
t25.5 -9t15.5 -24q15 -33 45.5 -44t62.5 -3t57.5 33.5t29.5 66.5q3 29 -1 61t-20.5 58t-49.5 42.5t-88 14.5q-33 -13 -60 -14.5t-46.5 5.5t-30.5 21t-12 33q-1 15 -2.5 51t-2.5 80t0 91t6 84q1 12 5 27t13 29t25 26t41 19q31 9 70 11t77.5 0.5t72 -4t54.5 -2.5z" />
    <glyph glyph-name="six" unicode="6" horiz-adv-x="466" 
d="M182 842q20 20 43 20t39.5 -12t21.5 -32t-11 -40q-25 -31 -50.5 -73t-46 -86.5t-34.5 -87.5t-15 -76q19 16 37.5 25.5t38.5 12.5q57 8 102 -7.5t77 -47t50.5 -74t23 -89.5t-5.5 -93.5t-35.5 -85t-66.5 -65t-99 -33.5q-56 -7 -98.5 17t-72.5 64.5t-47 91t-22 97.5
q-8 71 1 153t32 160.5t58 147t80 113.5zM210 379q-29 -7 -45.5 -31t-22.5 -55.5t-2 -66t17.5 -62.5t35.5 -45.5t51 -14.5q39 3 64.5 28t37 59.5t9 72.5t-19 67.5t-48 44.5t-77.5 3z" />
    <glyph glyph-name="seven" unicode="7" horiz-adv-x="515" 
d="M90 661q-26 -9 -43 4t-23 33.5t-0.5 42t24.5 28.5q50 18 98 31.5t95.5 24.5t95.5 20.5t98 19.5q24 5 39 -4t21.5 -29t5 -49t-10.5 -63l-142 -693q-4 -22 -25 -30t-44 -5t-39.5 16.5t-10.5 35.5l141 678z" />
    <glyph glyph-name="eight" unicode="8" horiz-adv-x="507" 
d="M186 860q65 10 114.5 -9t82.5 -55.5t49.5 -85t16.5 -97t-16 -91t-49 -67.5q52 -42 77.5 -92t28.5 -101t-14.5 -98.5t-51.5 -84t-83 -58.5t-109 -20q-46 1 -84 23.5t-65 57.5t-42 79.5t-16 91t13.5 91.5t46.5 81q-29 32 -47 64.5t-26 78.5q-7 43 1 91.5t30.5 90.5t58 72
t84.5 38zM341 655q-12 50 -36 73t-52 26.5t-56.5 -10.5t-49 -39t-29.5 -58t1 -68q9 -30 31 -45.5t49.5 -19t56.5 5t50.5 27t32 46t2.5 62.5zM242 100q45 -1 77 21.5t49.5 56.5t19 73t-14.5 70.5t-50 49.5t-89 11q-32 -5 -53.5 -27t-32.5 -53.5t-10.5 -66.5t12.5 -65
t34.5 -50t57.5 -20z" />
    <glyph glyph-name="nine" unicode="9" horiz-adv-x="526" 
d="M423 837q19 9 35.5 9.5t27.5 -11.5t16.5 -38t3.5 -69q-3 -53 -6 -117t-5.5 -131.5t-5.5 -134t-5 -124.5t-4 -104t-3 -72q-3 -26 -21.5 -38.5t-41 -12t-42.5 13.5t-25 37q-2 21 2 64t8.5 97.5t7.5 114t0 113.5q-32 -35 -79.5 -52t-95.5 -15t-89.5 25t-62.5 68
q-29 63 -23 122.5t36 111t78.5 92t105.5 64.5q24 10 49.5 18t50.5 9t48 -8t40 -32zM357 771q-26 7 -59 -4.5t-65.5 -34t-59.5 -53.5t-41.5 -63.5t-12 -64.5t30.5 -56q13 -12 34 -15.5t45 4t48 26.5t42.5 53.5t29.5 85.5t8 122z" />
    <glyph glyph-name="colon" unicode=":" horiz-adv-x="284" 
d="M155 448q-17 17 -20.5 34.5t3 33t20 26.5t30.5 14t35 -3.5t33 -26.5q12 -21 4 -42.5t-25.5 -35t-40 -15.5t-39.5 15zM140 145q-21 29 -13.5 55.5t28.5 41t46.5 12t39.5 -31.5q15 -24 8 -48.5t-25 -39.5t-42 -14.5t-42 25.5z" />
    <glyph glyph-name="semicolon" unicode=";" horiz-adv-x="343" 
d="M156 123q-18 34 -7.5 54t31.5 26.5t45 0.5t33 -23t19 -44t12.5 -60t-6.5 -71.5t-37 -78.5q-16 -23 -39 -23.5t-40.5 11.5t-23 32.5t12.5 41.5q16 18 20.5 37t2 36t-9.5 33t-13 28zM164 272q-17 17 -20.5 34.5t3 33t20 26.5t30.5 14t35 -3.5t33 -26.5q12 -21 4 -42.5
t-25.5 -35t-40 -15.5t-39.5 15z" />
    <glyph glyph-name="less" unicode="&#x3c;" horiz-adv-x="370" 
d="M166 334l136 -133q13 -12 10.5 -32.5t-14.5 -38t-29.5 -24.5t-33.5 8l-170 170q-20 18 -25.5 36.5t-2 36t15 31t25.5 21.5l195 125q19 10 35.5 -0.5t25.5 -28.5t8 -38t-17 -28z" />
    <glyph glyph-name="equal" unicode="=" horiz-adv-x="648" 
d="M189 197q-18 0 -28 18t-11 40t8.5 40t31.5 18h373q14 0 24 -8.5t16 -21t7 -27.5t-4 -28t-16 -22t-28 -9h-373zM191 370q-18 0 -28 18t-11 40t8.5 40t31.5 18h373q14 0 24 -8.5t16 -21t7 -27.5t-4 -28t-16 -22t-28 -9h-373z" />
    <glyph glyph-name="greater" unicode="&#x3e;" horiz-adv-x="367" 
d="M55 439q-16 8 -17 28t8 38t25 28.5t36 0.5l195 -125q14 -8 25 -21.5t15 -31t-2 -36t-25 -36.5l-170 -170q-16 -15 -33.5 -8t-29.5 24.5t-15 38t11 32.5l136 133z" />
    <glyph glyph-name="question" unicode="?" horiz-adv-x="534" 
d="M149 678q-20 -13 -39.5 -3.5t-31 29t-12 43.5t17.5 39q55 45 113 66t111.5 20.5t99 -21t75.5 -57.5t40.5 -89t-5.5 -116q-12 -47 -38.5 -83t-62.5 -60.5t-78.5 -39t-85.5 -18.5l-7 -103q-2 -15 -19.5 -24t-38 -10t-37.5 8t-17 30l5 124q0 16 2 31.5t8 27.5t17.5 19
t29.5 5q32 -2 64 4.5t59 19.5q46 21 69 56t23 69.5t-24 60.5t-72 29q-35 3 -76 -11t-90 -46zM154 10q-32 6 -46 24.5t-11 38.5t21.5 36t52.5 17q23 1 40 -8t26 -22.5t9.5 -29.5t-9 -29t-30 -21t-53.5 -6z" />
    <glyph glyph-name="at" unicode="@" horiz-adv-x="1031" 
d="M332 272q-22 43 -20.5 89t20 89.5t51.5 82t73 67t84 44.5t86 14.5t78.5 -23t61.5 -68.5q12 -11 12 -36.5t-5.5 -58t-14 -68t-12.5 -65t-0.5 -49t20.5 -20.5q32 -2 56.5 17t40.5 50.5t21.5 72.5t0.5 84t-23 84.5t-49 73.5t-76.5 51t-107.5 18q-52 -1 -103.5 -16t-98 -42
t-84.5 -66.5t-63 -88.5q-26 -51 -39 -106t-9.5 -105t25.5 -92t65.5 -68t110 -32t160.5 16q19 7 30 -4.5t12 -29.5t-8.5 -36t-32.5 -24q-120 -32 -207.5 -24t-145.5 43.5t-88.5 93.5t-36 127t12.5 143.5t57 143.5q38 68 89.5 121t112 89t126.5 53.5t134 14.5
q81 -4 143.5 -34.5t106.5 -78.5t70 -108.5t33 -122.5t-5 -121.5t-42.5 -106t-79.5 -74.5t-117 -28q-42 1 -75 24t-45 70q-34 -30 -78 -46t-87.5 -15t-81 20.5t-58.5 60.5zM652 524q-23 19 -50.5 20t-54.5 -11.5t-51 -35t-39 -50t-19.5 -57.5t8.5 -56q9 -19 36.5 -25t59.5 12
t62.5 66t47.5 137z" />
    <glyph glyph-name="A" unicode="A" horiz-adv-x="685" 
d="M15 283q-1 68 17.5 148.5t54 157.5t85 141.5t109.5 100t128 33t141 -58.5q23 16 39.5 13t27 -15.5t14 -29t0.5 -28.5q-4 -16 -13 -52.5t-19.5 -86t-21 -107t-19.5 -116t-14 -114t-3.5 -99.5t11 -73t29.5 -35q44 -14 76 43.5t52 171.5q7 20 23.5 26.5t33 3t28.5 -14.5
t10 -25q-11 -66 -28 -123t-46 -98.5t-73 -65t-108 -22.5q-54 1 -83.5 46.5t-29.5 116.5q-15 -22 -34 -43.5t-42 -38.5t-50.5 -29t-58.5 -15q-66 -7 -110.5 15t-72 63t-40 96t-13.5 114zM228 114q49 2 87 39t66.5 94.5t49 127.5t34 136t22 121t13.5 84q-49 32 -94.5 30
t-85 -27.5t-72.5 -70.5t-57.5 -99t-40 -112.5t-19.5 -112.5q-1 -13 -1 -33.5t2.5 -44t8 -47.5t17 -43t28.5 -31t42 -11z" />
    <glyph glyph-name="B" unicode="B" horiz-adv-x="632" 
d="M84 821q7 28 25.5 38.5t38 8.5t34.5 -13t15 -26q0 -6 -1 -11.5t-1 -10.5q61 22 119.5 29.5t107 -5.5t85 -47t53.5 -94q7 -24 3 -57.5t-15 -66.5t-26.5 -61t-31.5 -41q37 -12 64 -38.5t43 -61.5t20 -76t-5 -82q-9 -40 -37 -74.5t-69 -61.5t-91 -45t-101.5 -24.5t-101.5 0
t-90 28.5q-13 -21 -30.5 -29.5t-33.5 -5.5t-28 18t-15 42q9 90 18 187.5t18 196.5t17 196t16 187zM131 127q28 -20 68 -26.5t82.5 -1t84.5 21.5t73.5 41.5t49.5 60t13 76.5q-2 15 -11 29t-22 26q-24 21 -65.5 26.5t-88 1t-90.5 -15t-73 -20.5zM164 477q7 0 29.5 1t53 5
t63.5 12.5t62.5 23t50 36t24.5 52.5q5 39 -6 64.5t-33.5 39t-52 16.5t-60.5 -1t-60.5 -14t-50.5 -23z" />
    <glyph glyph-name="C" unicode="C" horiz-adv-x="515" 
d="M354 498q13 27 20.5 63t6 69t-13 56.5t-36.5 24.5q-50 -9 -84.5 -41.5t-57 -77.5t-35 -96t-18.5 -97q-4 -30 -4 -64.5t5.5 -68t18.5 -64t35.5 -54t55.5 -37.5t79 -14q24 0 50.5 7t53.5 26.5t54 55t52 93.5q9 20 26 24.5t32.5 -1.5t26 -19t5.5 -28q-48 -124 -125 -194
t-182 -80q-63 -6 -113 10.5t-86.5 48.5t-61 77t-37 96.5t-14.5 106t6 105.5q6 41 19 90t32.5 97t47 91.5t63.5 75t81.5 46.5t101.5 7q20 -3 32 -9t19.5 -13.5t12.5 -17t11 -18.5q18 16 37.5 19t34 -5.5t20.5 -27.5t-3 -46q-19 -65 -31 -107.5t-19.5 -71.5t-12.5 -48t-9 -37
q-7 -15 -24.5 -20t-35 1t-29.5 22.5t-7 44.5z" />
    <glyph glyph-name="D" unicode="D" horiz-adv-x="814" 
d="M241 651q-37 -16 -64 -21.5t-48 -5t-39 4t-36 5.5q-23 7 -31.5 25.5t-5.5 37.5t16.5 32t34.5 10q31 -9 63 -9.5t60.5 12.5t51 42.5t33.5 79.5q12 22 27.5 32t31 9t29.5 -13t22 -36v-15q61 -8 118.5 -48.5t103.5 -103t76.5 -141t39.5 -163t-8 -170t-67 -161.5
q29 1 59.5 29t57.5 67t47.5 79t28.5 65q4 12 20 13t32 -6.5t26 -22.5t2 -36q-17 -33 -36.5 -72.5t-43.5 -77t-53 -70t-63.5 -52t-76 -23t-90.5 16.5q-27 -13 -61 -18q-35 -3 -71 4.5t-70 23t-64 38t-53 48.5l-22 -73q-6 -19 -24.5 -21t-37.5 6.5t-32.5 25.5t-9.5 36z
M372 722q-12 -51 -23 -107.5t-21.5 -112.5t-20.5 -108t-19 -94q42 18 82 9t76 -34t67 -60t55 -69q18 33 26 83t4 108t-20 118.5t-44 114t-68.5 94t-93.5 58.5zM315 186q4 -20 22 -41t42 -38.5t50.5 -29t47.5 -10.5q-17 26 -35.5 51.5t-38.5 43.5t-42 25.5t-46 -1.5z" />
    <glyph glyph-name="E" unicode="E" horiz-adv-x="483" 
d="M69 748q18 28 44.5 52.5t59 40.5t68 19t71.5 -13q13 10 28.5 14t29 0t23 -16.5t10.5 -36.5q8 -52 6.5 -94.5t-6.5 -72.5q-6 -20 -22.5 -29t-33.5 -8.5t-30.5 9.5t-12.5 24q4 22 1.5 45t-13 38.5t-29 19.5t-46.5 -11q-26 -14 -42.5 -36t-24 -48.5t-7 -56t8.5 -57.5
q7 -24 22 -39.5t34 -22.5t41 -6.5t44 7.5q16 8 28 3t19 -17t9 -28.5t-1 -31.5t-11.5 -27t-22.5 -15q-43 -5 -83 -19t-68 -39t-37.5 -62.5t8.5 -88.5q13 -37 49 -46.5t81 1.5q34 8 69 24.5t66 40t57 53t43 62.5q9 18 26.5 20.5t33 -5.5t24 -23.5t0.5 -32.5q-21 -41 -51.5 -77
t-68.5 -66t-81.5 -53.5t-90.5 -39.5q-44 -15 -87 -18t-79.5 11.5t-64.5 48.5t-42 93q-8 31 -8.5 70t8 76.5t26 70.5t46.5 54q-31 31 -48 72.5t-19.5 87.5t9 92.5t37.5 86.5z" />
    <glyph glyph-name="F" unicode="F" horiz-adv-x="556" 
d="M222 421q-24 0 -36.5 15.5t-12 36t16 40.5t47.5 28l140 34q3 19 5.5 41.5t5.5 45t5.5 43.5t4.5 37l-284 -51q-20 -2 -34.5 12t-19.5 33.5t1.5 37.5t29.5 24l2 1h-1l338 63q20 7 38 4t30 -14.5t16 -32t-2 -48.5l-16 -170q7 0 17.5 2t21.5 4.5t21.5 4.5t16.5 4
q24 4 34.5 -11.5t10 -37t-10.5 -41.5t-27 -23q-7 -2 -19.5 -5t-26.5 -7t-26.5 -7t-19.5 -4q-7 -42 -14.5 -96t-20 -110.5t-32 -110t-50 -94.5t-74 -64t-103.5 -18q-59 5 -97 36t-59.5 75t-28.5 95.5t-2 98.5q3 26 21.5 36t39 7t36 -17t12.5 -36q-2 -16 -2.5 -46.5t7 -62
t26 -56.5t53.5 -29q34 -5 59 16.5t43 57.5t30 81t19 87t10.5 76t5.5 48q-33 -9 -72 -21t-73 -12zM92 799l-1 -1z" />
    <glyph glyph-name="G" unicode="G" horiz-adv-x="838" 
d="M77 -96q-20 -11 -38 -1t-28 29t-8 41.5t22 36.5q16 10 37.5 32t43 48.5t41.5 53t33 46.5q-4 16 -3 35t8 35t21 26.5t36 10.5q7 14 16.5 41t19 57t18 57.5t14.5 41.5q-40 7 -64.5 37.5t-35.5 72t-8 88t19 86t44.5 65.5t69.5 28q45 1 72 -15.5t41.5 -45.5t19.5 -67.5
t6 -81.5q22 17 43.5 37.5t40 41t32 40.5t21.5 37v2h1q5 29 23.5 41t39.5 8.5t37.5 -21t17.5 -47.5v-91t-0.5 -108.5t-3 -118.5t-7 -120t-11.5 -113t-18 -98q17 9 37.5 25t42 35.5t42 42.5t37.5 47q6 16 22.5 17.5t33 -7.5t26 -25.5t2.5 -36.5q-21 -47 -62 -93t-92 -85
t-108 -66.5t-109 -35.5q-39 -5 -82.5 1t-86.5 20t-81 37t-66 53q-14 -20 -33.5 -46.5t-42 -52.5t-46.5 -47t-47 -30zM443 509q-9 -30 -23 -71.5t-30.5 -85.5t-34 -85t-33.5 -70q16 -24 43 -48t58.5 -39t65 -16.5t62.5 19.5q17 43 29.5 106t20 133t10.5 140.5t3 128.5
q-39 -37 -83.5 -66t-87.5 -46zM343 744q-8 2 -14.5 -15.5t-8 -41t3.5 -46t22 -31.5q7 33 9 66.5t-12 67.5z" />
    <glyph glyph-name="H" unicode="H" horiz-adv-x="638" 
d="M453 832q1 19 18.5 25t38.5 2t38 -15.5t17 -26.5l-43 -546q13 -2 31 1.5t37 9t36.5 11.5t29.5 9q16 5 26 -9t12.5 -33t-3 -37t-18.5 -21q-12 -4 -25.5 -9.5t-31.5 -11t-41 -11.5t-55 -10l-12 -138q-1 -16 -19.5 -24.5t-39.5 -9.5t-38.5 5.5t-16.5 21.5l8 131
q-34 -3 -67.5 -1t-63.5 7t-54.5 12t-39.5 14l-7 -147q0 -18 -18.5 -27t-41 -9t-41.5 8.5t-20 26.5q-1 9 1 39.5t4.5 66t5 66t2.5 39.5q-29 25 -43 55.5t-12.5 61.5t20 61t54.5 53q3 37 5.5 84t5 95.5t5 95.5t5.5 85q3 22 21.5 30t39.5 5t37.5 -15.5t15.5 -31.5
q-2 -33 -4.5 -76t-4.5 -88t-4.5 -88t-5.5 -76q27 -5 56.5 -18.5t58.5 -31.5t55.5 -40t46.5 -45q2 19 5 54t6.5 78.5t8 92t8 95t6.5 87t5 68.5zM190 366q-2 -16 -2.5 -31t-1.5 -31q25 -21 55.5 -29t62.5 -10q-23 29 -51 56t-63 45z" />
    <glyph glyph-name="I" unicode="I" horiz-adv-x="727" 
d="M747 292q11 17 28.5 18t32 -9.5t21.5 -29t-3 -39.5q-23 -51 -69 -102.5t-105 -86.5t-125 -44t-130 25q-86 -22 -153 -6t-114.5 59.5t-76.5 109t-39 142.5q-3 21 2 42t17 37t32 24.5t48 5.5l83 -15q24 -6 32.5 -25t5 -39t-16.5 -35.5t-33 -14.5q-14 0 -32 1.5t-26 1.5
q2 -38 18.5 -75.5t43 -66t61 -44t72.5 -8.5q-18 36 -29 79t-15.5 90.5t-3 97t9.5 99.5q12 80 38.5 153.5t66.5 127t91.5 80.5t114.5 15q47 -9 74.5 -41t39.5 -79t10 -105t-14 -120t-32.5 -123t-46 -114.5t-54 -95.5t-56.5 -64q39 -3 74 14t64.5 43.5t53 58t40.5 58.5z
M565 751q-25 5 -48 -10.5t-43 -46t-36 -73t-27.5 -90.5t-18 -99.5t-6 -99.5t8.5 -89.5t24 -71.5q55 63 91 129.5t56 130t27 120.5t4.5 100.5t-11.5 70t-21 29.5z" />
    <glyph glyph-name="J" unicode="J" horiz-adv-x="681" 
d="M777 237q-10 -26 -32.5 -59t-54 -65.5t-70.5 -60t-84 -42.5q-7 -64 -27 -129t-49 -124t-66 -107t-78 -77q-58 -42 -110 -42.5t-88 27.5q-24 18 -39.5 47t-19.5 64t5.5 74t34.5 79q18 29 41.5 57t50.5 52.5t55.5 44.5t57.5 35q-114 31 -179 90.5t-88 137.5
q-27 94 3.5 202.5t109.5 214.5q26 34 57 69.5t68 64.5t79.5 47.5t90.5 20.5q50 1 82 -19t50.5 -53.5t25.5 -77t8 -89t-2.5 -89.5t-6.5 -78q-8 -91 -22 -175t-22 -143q19 6 38.5 23t37.5 40t34 48.5t30 49.5q6 13 22.5 14.5t32 -7t24.5 -25.5t0 -40zM441 742q-26 6 -55.5 -9
t-56.5 -40t-50.5 -53t-37.5 -47q-54 -72 -79 -146t-17 -138q5 -40 25 -74t55.5 -59t87.5 -38.5t122 -12.5q2 7 7.5 36t12.5 72t14.5 95.5t13.5 106.5q2 20 5 49.5t5 62.5t1 65.5t-6.5 60t-16.5 46.5t-30 23zM181 -350q18 -10 39 -0.5t42 31.5t41 55t38.5 70t33.5 76.5
t26 74.5q-16 -6 -44.5 -28.5t-59.5 -53t-61 -65.5t-49 -67t-23 -57t17 -36z" />
    <glyph glyph-name="K" unicode="K" horiz-adv-x="614" 
d="M504 832q22 21 45 22.5t38.5 -10.5t21 -33.5t-7.5 -45.5v-2q-27 -41 -50 -73.5t-46 -60.5t-47 -53.5t-53 -52.5t-63.5 -58t-78.5 -69q28 -35 47.5 -82t37 -91.5t36.5 -77.5t46 -39q34 -8 66 8t59.5 43.5t50 61t37.5 60.5q12 16 28.5 17t30.5 -8.5t21 -28.5t0 -42
q-21 -55 -56.5 -101.5t-81 -77.5t-98 -43t-105.5 3q-42 12 -67.5 46.5t-44 77.5t-33.5 88t-36 78q-6 -29 -14 -73.5t-18.5 -90t-22.5 -87t-24 -64.5q-3 -16 -15 -24t-27.5 -9t-31.5 3t-27.5 13t-15 21t5.5 26q3 4 9 23t14 47.5t17 62.5t16.5 68.5t12.5 66.5t7 55
q-20 2 -30.5 19.5t-9.5 39.5t13 42.5t38 28.5q5 49 9.5 91t8 83t6 83t3.5 91q5 33 24 48t40 13.5t37.5 -19.5t17.5 -51q-1 -38 -2 -70t-3 -62.5t-4.5 -62.5t-6.5 -69q44 40 79.5 72t68 65t63 71.5t65.5 92.5z" />
    <glyph glyph-name="L" unicode="L" horiz-adv-x="730" 
d="M150 792q-5 28 8.5 48.5t33.5 29t39.5 2.5t27.5 -31q5 -30 10.5 -55.5t16 -48.5t28.5 -44.5t48 -42.5q10 30 25.5 72t39.5 77t59 54.5t83 5.5q18 -5 35.5 -16.5t30.5 -28.5t20 -39.5t5 -49.5q-3 -46 -26.5 -87t-56.5 -72t-70 -48t-67 -15q-8 -20 -15.5 -46t-15 -53.5
t-15 -53.5t-14.5 -47q38 -25 61 -63t42 -74t38 -62t48 -27q37 -1 66.5 18t51.5 48.5t36 64.5t21 67q5 22 23 24.5t37 -6.5t31.5 -25t7.5 -31q-15 -44 -38.5 -95t-59 -94t-83.5 -69t-112 -20q-51 5 -80 24.5t-49 48.5t-35.5 65t-39.5 73q-11 -38 -27.5 -77.5t-41.5 -70.5
t-59.5 -49t-82.5 -12q-44 6 -72 33.5t-38 67.5t0 86.5t43 88.5q36 48 88.5 75t109.5 26q11 40 27.5 92.5t28.5 102.5q-45 25 -75.5 57t-50.5 67t-31 70t-15 65zM179 84q25 25 35 61.5t21 71.5q-19 -5 -37.5 -16t-33 -25.5t-24.5 -31.5t-12 -33q-2 -12 2 -21.5t11.5 -14
t17.5 -3t20 11.5zM544 761q-8 0 -19 -16t-21.5 -38t-19.5 -45t-13 -36q12 -3 25 6t24 24t20 33t13 34t2 26.5t-11 11.5z" />
    <glyph glyph-name="M" unicode="M" horiz-adv-x="1227" 
d="M8 774q4 28 20 43.5t34.5 17t37 -10.5t27.5 -39q13 -36 33.5 -50t45 -13.5t51.5 13.5t52.5 31.5t48 39.5t38.5 38t37 20.5t38.5 -5.5t27.5 -29.5t5 -50.5l-23 -135q23 35 55.5 75t70.5 70.5t80 46t84 2.5q29 -9 46 -31.5t26 -50.5t12 -58.5t5 -54.5q17 30 43.5 60.5
t58.5 51.5t67.5 28t70.5 -10t50 -52.5t16.5 -82.5t-7.5 -102t-22 -111t-27 -109t-23 -96t-9 -72.5t14 -38.5t29.5 -2t30.5 23t29.5 38t26 44.5t19.5 41.5t11 29q16 21 34 25.5t32.5 -1.5t23.5 -19.5t6 -28.5q-15 -60 -42 -112.5t-64 -89.5t-82.5 -53t-99.5 -2
q-39 10 -56.5 42.5t-20 80t6 104.5t21.5 115.5t27.5 114.5t23.5 100t9 72t-16 31q-24 5 -48.5 -19.5t-48.5 -68t-47 -100t-44 -116t-40 -116t-34 -98.5q-8 -23 -29.5 -30.5t-42.5 -2.5t-34.5 21t-6.5 39q15 47 28.5 104.5t24.5 116.5t18.5 115t9 100t-3.5 72t-18 31
q-36 9 -73.5 -22t-73.5 -87t-69 -130.5t-61 -152t-49 -152t-32 -130.5q0 -12 -9 -21t-22 -14t-28 -6t-27 3t-19 12.5t-4 23.5q4 62 18.5 142.5t31 165t32.5 166.5t23 148q-31 -22 -65 -39t-70 -21q-41 -5 -79.5 7t-68.5 36.5t-49.5 59t-22.5 75.5z" />
    <glyph glyph-name="N" unicode="N" horiz-adv-x="761" 
d="M62 637q-20 6 -28 26.5t-4 40t20 31.5t43 2q45 -9 73.5 -1t46.5 27.5t28.5 45.5t19.5 53q8 22 30 27.5t43.5 -1.5t35 -24.5t4.5 -40.5q-3 -9 -3.5 -18.5t-5.5 -22.5q32 26 79 48.5t96 27.5q54 5 88 -13t52.5 -51.5t23.5 -80t1 -99t-14.5 -108.5t-23.5 -108.5t-26 -98
t-22 -78.5q-13 -48 -16.5 -81t10.5 -43q8 -6 23 1t32 22.5t35 37t33.5 45.5t26.5 48t15 44q9 17 25 17.5t29.5 -11t20.5 -32t-2 -44.5q-9 -26 -24 -58t-35.5 -63t-46 -58.5t-55 -46t-62.5 -24.5t-68 6q-31 10 -50.5 33t-28.5 54t-8 69t10 79q9 39 24.5 93.5t31 112.5t28 115
t15 101.5t-8.5 72t-41 26.5q-24 -1 -52.5 -13.5t-56.5 -32.5t-51.5 -44t-37.5 -48q-4 -28 -11 -72t-16 -96.5t-19.5 -109.5t-21 -112.5t-21 -104.5t-19.5 -85q-7 -26 -29.5 -32t-45.5 1t-38.5 23.5t-9.5 34.5v1q9 32 23 93.5t30 142t31.5 173.5t27.5 188q-17 -11 -41 -15
t-47.5 -3.5t-42 4t-22.5 7.5z" />
    <glyph glyph-name="O" unicode="O" horiz-adv-x="609" 
d="M216 822q43 35 97.5 42t106 -14t91.5 -71t55 -129q15 12 31 0t22.5 -34.5t-1 -50t-37.5 -47.5q0 -122 -23.5 -219t-66.5 -163.5t-104.5 -101t-138.5 -31.5q-50 2 -94.5 29t-76.5 75t-48.5 113.5t-9.5 143.5q6 69 25 139t46.5 131.5t60 110.5t65.5 77zM469 480
q-41 -8 -80.5 4.5t-72.5 38t-57 60t-33 70.5q-15 -20 -28.5 -53.5t-24.5 -73.5t-19 -83.5t-11 -82.5q-4 -51 4.5 -92.5t25.5 -71.5t40.5 -48t49.5 -22q34 -5 62.5 8t51.5 39.5t40 63t28.5 77.5t17.5 84t6 82zM309 761q-5 -26 3 -58.5t27.5 -60t51 -42.5t73.5 -4
q0 33 -13.5 69t-36 63t-50.5 38.5t-55 -5.5z" />
    <glyph glyph-name="P" unicode="P" horiz-adv-x="696" 
d="M20 779q1 24 18 36t38 14t38.5 -5.5t19.5 -23.5q7 -23 20.5 -34t28.5 -9.5t28.5 14.5t21.5 39q4 23 22.5 37.5t39.5 18.5t39.5 -2t22.5 -23v-36q26 22 63.5 35.5t77 15t77.5 -9.5t65 -36q32 -29 51 -70.5t25 -89.5t0.5 -98.5t-20.5 -96.5t-39 -84.5t-55 -61.5
q-42 -32 -86.5 -45t-85 -11t-73.5 17.5t-51 42.5l-28 -315q-8 -17 -29.5 -25.5t-44 -7t-40 13.5t-16.5 38q-1 13 3 55t11.5 100t16.5 126.5t17.5 135t16.5 125t12 96.5q-30 -17 -64.5 -12.5t-65 23t-52 48.5t-23.5 65zM560 730q-46 30 -89.5 17.5t-77.5 -52t-54 -98
t-18 -121.5q0 -19 16.5 -46.5t44.5 -45t67 -16.5t84 38q17 14 32 39.5t25.5 57t15.5 65.5t2 65.5t-14.5 57t-33.5 39.5z" />
    <glyph glyph-name="Q" unicode="Q" horiz-adv-x="645" 
d="M17 375q6 45 22 100t41 111t59.5 108t77.5 90.5t93 59t108 12.5q49 -7 85.5 -34t61.5 -67.5t40 -90t21 -100.5q7 -55 2.5 -114t-18 -115.5t-34.5 -106.5t-47 -86l58 -94q15 -22 9 -44.5t-22 -36t-38 -13.5t-39 23l-55 82q-62 -41 -115 -51.5t-104 -2.5q-54 9 -96 41
t-70 81t-38.5 112.5t-1.5 135.5zM289 306q-13 25 -3.5 45t28.5 28.5t41.5 3.5t37.5 -29l64 -106q16 20 28 53t19 73t8 83t-4 84q-4 34 -12.5 67.5t-21.5 60.5t-31.5 44t-43.5 19q-39 2 -73 -17t-61.5 -51.5t-49.5 -74.5t-38 -86t-26.5 -85.5t-14.5 -73.5q-6 -42 0.5 -79.5
t22.5 -67t41.5 -48t58.5 -21.5q25 -3 54.5 5.5t61.5 26.5z" />
    <glyph glyph-name="R" unicode="R" horiz-adv-x="851" 
d="M72 645q-26 4 -36.5 22.5t-9 38t13.5 34t33 11.5q30 -4 67.5 -5t73 6t65 25t44.5 51q12 22 28.5 32t33 9t31.5 -13t23 -36q2 -33 1 -62.5t-5 -61.5q14 23 40.5 51.5t60.5 53t71.5 40.5t73.5 15q45 -1 73 -18t42.5 -44t16.5 -61t-5.5 -69.5t-23 -70t-35.5 -61.5
q-21 -29 -50 -57.5t-62.5 -54t-69.5 -46.5t-72 -35q4 -15 12 -39t19 -51t24.5 -54t28.5 -49.5t32 -37t35 -15.5q16 -1 37 9.5t44 28t47 39t45.5 43t38.5 40t28 29.5q14 15 28.5 13.5t24.5 -12.5t13 -28.5t-6 -33.5q-26 -32 -59 -72.5t-72.5 -76.5t-84.5 -61.5t-94 -27.5
q-37 -2 -69 15t-58.5 45t-47.5 64.5t-37 75t-27.5 75t-18.5 64.5q-5 -16 -10.5 -44.5t-11 -62t-11 -69.5t-10 -68t-7.5 -56.5t-4 -35.5q-7 -20 -29 -28t-44.5 -5t-36.5 16.5t-4 35.5q16 123 29.5 220t24 176t17 144t8.5 122q-39 -17 -70.5 -23.5t-58 -7t-48 3t-40.5 5.5z
M416 448q43 1 84 19.5t76 46.5t62 61.5t42.5 65t17.5 57t-12 38.5q-17 15 -46 6.5t-65 -43t-76.5 -96.5t-82.5 -155z" />
    <glyph glyph-name="S" unicode="S" horiz-adv-x="762" 
d="M96 -23q-24 -12 -43 -2.5t-28.5 29t-7 42t20.5 36.5q29 17 58 41.5t58 53.5q-1 17 4 30t14 22t20.5 13t24.5 2q53 62 101 128.5t86 126.5q-14 39 -24 78q-12 46 -16.5 100t8 100t46.5 75t99 24q44 -3 67 -26.5t30 -59.5t1.5 -79t-18.5 -86t-30 -81t-32 -63
q15 -42 31.5 -86t30 -89.5t22 -92.5t7.5 -95q21 13 42.5 30.5t40.5 38.5t35 44.5t26 47.5t28 28t34 -4t23.5 -25.5t-2.5 -38.5q-39 -93 -107 -154.5t-154 -85.5q-38 -11 -86.5 -12t-98.5 8.5t-98 30.5t-84 55q-13 -12 -28.5 -26t-32.5 -28t-34.5 -27t-33.5 -23zM456 372
q-37 -51 -76.5 -106t-81.5 -106q39 -39 91.5 -58t113.5 -7q10 42 6 86t-14 82.5t-21.5 67.5t-17.5 41zM503 783q-21 4 -29 -15.5t-7.5 -48t6.5 -58.5t12 -46q10 11 18.5 37.5t12.5 54.5t1.5 50.5t-14.5 25.5z" />
    <glyph glyph-name="T" unicode="T" horiz-adv-x="625" 
d="M291 574q-18 -18 -40 -13t-38 20.5t-21 36.5t10 36q41 45 102 100t136 103q56 28 84.5 6.5t27.5 -74.5q0 -5 -1 -44.5t-3.5 -99.5t-8.5 -134.5t-17 -151t-28 -147.5t-42 -124q38 15 68 39t53.5 52.5t42 58t33.5 55.5q10 20 26.5 22t31.5 -7t23 -26.5t1 -36.5
q-33 -74 -85 -132t-115.5 -94t-134 -48t-138.5 8q-42 12 -82.5 43.5t-75 72.5t-60.5 87t-39 88q-7 25 5 44.5t31 28t39 3.5t29 -29q7 -21 21.5 -50t34 -58t43.5 -56t50 -43q19 -12 32.5 -17t24 -3t19 12.5t17.5 28.5q20 39 34 93.5t24 114.5t16 121.5t9.5 113t5 88.5t2.5 50
q-20 -18 -43 -38.5t-44 -40t-37 -35.5t-23 -24z" />
    <glyph glyph-name="U" unicode="U" horiz-adv-x="621" 
d="M82 834q7 15 21 23t29.5 10t31 -2.5t27 -15t15.5 -27t-3 -39.5q-8 -23 -21.5 -78t-25 -125t-18.5 -146t-2.5 -140.5t23 -108t57.5 -49.5q24 -3 47 13.5t43 44.5t37 63t30.5 69t22.5 62.5t13 43.5l79 391q3 24 23.5 32.5t44 4.5t41 -19t14.5 -39q-2 -10 -9.5 -44.5
t-18.5 -84.5t-23.5 -110.5t-24 -122.5t-20 -121t-11.5 -106.5t1.5 -78.5t18.5 -36q15 -6 31.5 8t33 40t31.5 60.5t28 70.5q4 16 21.5 23t35.5 4.5t30 -16t5 -37.5q-6 -26 -18.5 -58.5t-30 -66t-40 -64t-48 -52.5t-55 -33t-60.5 -4q-23 5 -38.5 19.5t-26 34.5t-17 43.5
t-10.5 45.5q-16 -20 -36.5 -39.5t-45 -35t-52 -24t-57.5 -4.5q-54 7 -90.5 39t-59 81.5t-32.5 111.5t-10.5 129.5t6 136t17 130t23 112t23.5 81.5z" />
    <glyph glyph-name="V" unicode="V" horiz-adv-x="565" 
d="M188 713q-7 0 -17.5 -12.5t-22 -30t-22 -37.5t-17.5 -36q-11 -18 -31.5 -26t-40 -4t-32.5 21t-8 48q9 30 28 66t46 67.5t60.5 52.5t71.5 21q40 0 64.5 -28t37.5 -74t17 -105.5t3 -122t-4 -123t-4 -109.5q68 172 136.5 309.5t129.5 253.5q10 19 26.5 27.5t33 8t32 -9
t24 -21.5t8.5 -30t-14 -36q-35 -51 -71 -115t-71 -134.5t-67.5 -143.5t-61.5 -141t-53.5 -126.5t-42.5 -100.5q-7 -16 -29.5 -24t-46.5 -6.5t-43 13t-19 34.5q0 18 2 57t4.5 90t5.5 110t5.5 117.5t3 113t-1 96t-6 66t-13.5 24.5z" />
    <glyph glyph-name="W" unicode="W" horiz-adv-x="933" 
d="M250 715q-27 -37 -59.5 -76t-63.5 -77q-20 -24 -45 -27.5t-44 7t-25 31.5t12 45q18 25 40.5 57t47 64.5t51 61t51.5 45.5q39 26 67.5 22.5t47 -27t27.5 -61t8 -79.5q-1 -33 -1 -79t-0.5 -95.5t-1.5 -95.5t-2 -79l192 282q14 25 35 37t41 12t34.5 -12t15.5 -36
q4 -37 7.5 -70t7 -65t7.5 -64.5t9 -66.5q22 47 53.5 110.5t68.5 130.5t78.5 130.5t83.5 110.5q12 14 27 18t29.5 1t27 -12t19.5 -20.5t7 -25t-10 -25.5h1q-55 -75 -95.5 -137t-71.5 -118.5t-55 -110.5t-45 -112.5t-41 -125.5t-44 -149q-4 -21 -22 -31.5t-38 -10.5t-36 12
t-16 37q-8 48 -13 95.5t-10 97t-12.5 101.5t-19.5 110q-26 -39 -54.5 -89t-58 -105t-60.5 -112.5t-63 -110.5q-9 -19 -29 -23t-39.5 5t-32.5 29.5t-8 50.5q2 36 6 86.5t7.5 108t6.5 118.5t4.5 118.5t0.5 107.5t-5 86z" />
    <glyph glyph-name="X" unicode="X" horiz-adv-x="664" 
d="M592 853q23 16 45 10.5t37 -21.5t19 -37t-9 -34l-283 -370l251 -354q11 -18 3 -40t-24.5 -37.5t-36.5 -20.5t-32 11l-238 340l-211 -283q-17 -17 -38 -14.5t-37 16.5t-22.5 35.5t6.5 42.5l228 300l-232 363q-18 20 -11.5 41t24.5 35t41 16.5t37 -14.5l219 -333z" />
    <glyph glyph-name="Y" unicode="Y" horiz-adv-x="725" 
d="M135 836q9 24 34 30t49 -2t38.5 -28.5t2.5 -50.5q-15 -37 -34 -98.5t-35.5 -131.5t-28.5 -142t-13.5 -130.5t10.5 -97t43 -41.5t65.5 23.5t69.5 74.5t69 114.5t66 143.5t59.5 159.5t49.5 164.5q1 18 11.5 28t25 13.5t31 0t29.5 -12.5t19.5 -23t2.5 -31
q-27 -104 -55.5 -196t-52.5 -180.5t-40 -176.5t-18 -184q8 3 25 17.5t38 36t43.5 46.5t43 49.5t36.5 44.5t23 32q15 16 31 12.5t27.5 -17t16 -32t-4.5 -31.5q-28 -42 -61 -84t-69.5 -80.5t-75.5 -71t-79 -56.5q2 -46 -7.5 -99.5t-29 -104t-48.5 -94.5t-65.5 -71.5t-80.5 -34
t-94 16.5q-42 19 -59 56t-13 82t26.5 95t59.5 95.5t86 82.5t106 58q3 44 8 81.5t12 82.5q-29 -39 -59.5 -72t-63 -54.5t-66 -30.5t-67.5 0q-58 14 -92 51.5t-50 90.5t-17.5 117t7.5 131.5t24.5 134t32.5 124t33 102t25 68.5zM256 -358q14 -10 30.5 -1.5t33.5 28.5t33 48.5
t28.5 58.5t20 58t8.5 48q-42 -15 -77.5 -50t-58.5 -73.5t-29 -71.5t11 -45z" />
    <glyph glyph-name="Z" unicode="Z" horiz-adv-x="706" 
d="M329 737q-13 12 -31 7.5t-37.5 -19t-39 -36t-36.5 -44t-30 -42.5t-19 -32q-15 -24 -37.5 -27.5t-41 7t-28 33t1.5 50.5q14 32 38.5 67.5t56 67t68 55.5t74.5 34t75.5 2.5t71.5 -38.5q29 -27 42.5 -65t16.5 -81.5t-4 -91t-18 -93.5t-25.5 -88.5t-27.5 -76.5
q102 22 145 -19.5t33 -156.5q12 7 33.5 24t44.5 38t45 43.5t35 41.5q14 20 32.5 17.5t31.5 -18t16 -39t-13 -44.5q-22 -29 -53 -60.5t-64 -61t-64 -54.5t-53 -39q-10 -49 -29.5 -108t-47.5 -117t-63.5 -110.5t-77 -87.5t-88 -48.5t-95.5 6.5q-32 13 -47.5 40t-17.5 61.5
t7.5 72.5t28.5 73q25 46 61.5 88t79.5 80.5t88.5 72.5t89.5 64q3 15 6.5 35.5t3.5 39.5t-5 33t-19 16q-18 3 -35 -6.5t-32.5 -24.5t-29 -32t-24.5 -29q-14 -16 -35.5 -14.5t-40.5 14t-30 32.5t-4 43q6 21 24.5 63.5t40 95.5t42 112t31.5 112.5t8 96.5t-29 65zM230 -360
q10 -5 26.5 8t35.5 37.5t39.5 57t38 65.5t31 63t20.5 50l-42.5 -37.5t-52 -49.5t-51 -56.5t-39.5 -57.5q-16 -29 -19 -50.5t13 -29.5z" />
    <glyph glyph-name="bracketleft" unicode="[" horiz-adv-x="318" 
d="M324 988q19 -2 31 -20t13.5 -39.5t-9 -39t-35.5 -17.5l-152 5q-5 -111 -8.5 -221.5t-7.5 -225t-8 -234t-9 -248.5v-1l146 2q29 0 43.5 -18t14 -39.5t-15 -40.5t-42.5 -20l-183 -7q-49 -2 -65.5 29t-14.5 89q8 224 14.5 451t11.5 451q1 46 7 76.5t20.5 48t39.5 24t66 5.5z
" />
    <glyph glyph-name="backslash" unicode="\" horiz-adv-x="556" 
d="M551 82q4 -21 -5 -38t-25 -27.5t-36 -12.5t-37 8l-429 776q-9 13 -2 30t23 30t35 16.5t34 -11.5z" />
    <glyph glyph-name="bracketright" unicode="]" horiz-adv-x="425" 
d="M86 -164q-20 2 -31.5 20t-13 39.5t9 39t35.5 17.5l152 -5q4 111 8 221.5t8 225t8 234t9 248.5v1l-146 -2q-29 0 -43.5 18t-14 39.5t15 40.5t42.5 20l183 7q49 2 65.5 -29t14.5 -89q-8 -224 -14.5 -451t-11.5 -451q-1 -46 -7 -76.5t-20.5 -48t-40 -24.5t-65.5 -5z" />
    <glyph glyph-name="asciicircum" unicode="^" horiz-adv-x="389" 
d="M203 404l-62 -83q-10 -15 -31.5 -12.5t-40 15t-28.5 31t3 36.5l98 132q15 22 32.5 30t34 6.5t31.5 -11t24 -22.5l97 -133q13 -18 3 -36.5t-28.5 -31t-40 -15t-31.5 12.5z" />
    <glyph glyph-name="underscore" unicode="_" horiz-adv-x="657" 
d="M131 -4q-18 0 -28 18t-11 40t8.5 40t31.5 18h373q14 0 24 -8.5t16 -21t7 -27.5t-4 -28t-16 -22t-28 -9h-373z" />
    <glyph glyph-name="grave" unicode="`" horiz-adv-x="285" 
d="M57 790q-14 20 -5.5 39t26 30t38.5 11.5t32 -15.5l107 -144q12 -17 2.5 -34.5t-26.5 -28.5t-37 -13.5t-29 11.5z" />
    <glyph glyph-name="a" unicode="a" horiz-adv-x="608" 
d="M165 9q-61 0 -96.5 34t-49.5 87.5t-8.5 118.5t27.5 127.5t57.5 115.5t81.5 81t100.5 24t113.5 -55q6 18 26 21.5t39.5 -4t32.5 -25t5 -42.5q-7 -28 -18 -68.5t-21.5 -84.5t-18 -88.5t-7 -80t10.5 -59t35 -25.5q30 -2 56.5 20.5t47 56.5t34.5 72t18 66q7 26 23.5 30.5
t32 -3.5t25 -24.5t2.5 -31.5q-7 -40 -28 -91.5t-53.5 -98t-73.5 -78.5t-88 -32q-21 0 -43.5 7.5t-43 23.5t-36.5 41t-23 61q-9 -11 -25 -27.5t-37 -31.5t-46 -26t-52 -11zM164 134q32 -3 56.5 15t43.5 48.5t32 68.5t21.5 73.5t13.5 65t7 42.5q-32 27 -60 28t-51.5 -15.5
t-41.5 -46.5t-30.5 -65.5t-18.5 -72.5t-5.5 -68t9 -51t24.5 -22z" />
    <glyph glyph-name="b" unicode="b" horiz-adv-x="567" 
d="M348 850q54 -28 71.5 -73t7.5 -99.5t-41.5 -114t-74.5 -116t-92 -105.5t-94 -82q0 -17 1.5 -42.5t8.5 -49.5t21 -41.5t39 -17.5q24 0 50 19.5t49.5 46t42 53.5t26.5 42q9 16 13 41t11.5 48t21 39.5t42.5 16.5q18 0 33.5 -12.5t21.5 -35.5q16 -14 32.5 -15t31 3.5t24.5 11
t13 7.5q20 8 38.5 3.5t29 -16.5t10.5 -29.5t-16 -35.5q-19 -20 -43 -31t-48 -14.5t-46.5 0t-37.5 12.5q-16 -41 -47.5 -89t-71.5 -88.5t-85.5 -67.5t-88.5 -27q-58 0 -96 24t-60 64t-31 91t-9 104q0 24 4 66.5t13 95.5t23.5 111t34.5 112t46 100t59.5 74.5t74 35t88.5 -18.5
zM290 740q-15 7 -29.5 -6.5t-28.5 -40t-27.5 -62t-26 -74t-23 -75.5t-18.5 -66q22 19 45.5 49t45 63.5t39.5 68.5t27.5 64.5t9.5 50.5t-14 28z" />
    <glyph glyph-name="c" unicode="c" horiz-adv-x="442" 
d="M341 383q-2 0 -3 1q-11 -24 -28.5 -35t-35.5 -8.5t-32.5 17.5t-19.5 42q0 13 3 32.5t4.5 38t-1.5 32t-16 15.5q-23 -13 -40 -43.5t-28 -69t-15.5 -81.5t-3 -82.5t10 -70.5t24.5 -45q20 -19 44 -23t50 1q22 4 50 15t56.5 32t55 54t46.5 83q7 15 24.5 18t34.5 -3.5
t27 -21.5t2 -37q-20 -47 -49.5 -84t-63.5 -65t-71 -48t-72 -33q-27 -10 -57 -15.5t-60.5 -2.5t-58.5 15.5t-50 39.5q-26 31 -40.5 77t-18.5 98t2.5 107t22 104.5t40 90t56.5 63.5q52 35 101.5 32.5t78.5 -44.5q23 -3 37 -23t8 -46z" />
    <glyph glyph-name="d" unicode="d" horiz-adv-x="570" 
d="M14 200q-6 49 3.5 101t32.5 97t57.5 78.5t78.5 47.5q35 11 75.5 7t85.5 -30q6 22 15 64t19.5 90t20.5 95.5t16 82.5q4 24 22 33t37.5 5t34 -19t10.5 -40q-7 -48 -19.5 -116.5t-25 -144.5t-22.5 -152t-11.5 -139t7 -106.5t32.5 -54.5q13 -6 29 3.5t31 29.5t26 50t13 66
q7 27 23 35.5t31.5 4t26 -19.5t6.5 -35q-2 -34 -16 -76.5t-39 -80.5t-60 -64t-78 -26q-26 0 -48 13.5t-39 33t-28.5 42t-16.5 41.5q-26 -36 -57.5 -58t-66.5 -30t-69 -1t-62.5 28.5t-48.5 57.5t-26 87zM330 374q-28 27 -55.5 33.5t-52.5 -1.5q-21 -7 -38.5 -23.5t-30.5 -39
t-20 -49.5t-6 -55q2 -57 28.5 -80.5t58.5 -17.5q26 5 50.5 28.5t37.5 65.5q5 16 10 35t9 38t6.5 36.5t2.5 29.5z" />
    <glyph glyph-name="e" unicode="e" horiz-adv-x="403" 
d="M351 471q-2 -50 -18 -100.5t-47 -91t-75.5 -65t-101.5 -20.5q1 -31 7 -60t19.5 -49.5t36.5 -29t58 2.5q35 10 67 33t57.5 53t43 63.5t25.5 65.5q4 17 19 21t31.5 -1t28 -17.5t7.5 -28.5q-22 -58 -43.5 -103t-47.5 -79.5t-58.5 -58.5t-76.5 -40q-59 -21 -109 -18.5
t-87 26.5t-58.5 68t-24.5 107q-2 30 -1.5 72.5t5.5 89t16 94.5t30 89.5t47.5 73t69.5 45.5q34 12 67 9t58.5 -21t40.5 -50.5t14 -79.5zM225 497q-14 9 -27.5 1.5t-25.5 -25t-21 -41.5t-15 -49.5t-9 -48.5t-1 -37q46 9 73 38t37.5 62t7 62t-18.5 38z" />
    <glyph glyph-name="f" unicode="f" horiz-adv-x="362" 
d="M60 828q14 25 35.5 32t40.5 1t31 -22t6 -37l-62 -664q43 3 84 17.5t79 37t72.5 50.5t64.5 57q16 8 28.5 -6t18 -35.5t2 -44.5t-19.5 -33q-21 -16 -47 -35.5t-52.5 -37t-51.5 -31.5t-43 -19q30 -33 47 -84t21 -108.5t-5.5 -114.5t-32.5 -100.5t-60 -68.5t-88 -18
q-48 6 -77.5 37t-45.5 75.5t-21 99t-4 108t4.5 102t4.5 81.5q0 19 4 72t9.5 125t13 155t15 161t15 144t14.5 104zM133 -306q27 1 45 24.5t26.5 57.5t6.5 74.5t-14 75.5t-34.5 60.5t-56.5 29.5q-2 -17 -5.5 -48t-6 -67t-3 -73t3 -67t12.5 -49t26 -18z" />
    <glyph glyph-name="g" unicode="g" horiz-adv-x="549" 
d="M334 552q4 13 20 21.5t33.5 5t31.5 -22t14 -57.5q-1 -15 -3.5 -51.5t-5.5 -82t-6.5 -95.5t-6.5 -90.5t-5 -67t-1 -26.5q11 4 27.5 13t37 29.5t44.5 53.5t50 85q9 12 24.5 10.5t29 -11t20.5 -25.5t0 -33q-42 -90 -101.5 -147.5t-131.5 -95.5q1 -38 -3.5 -87.5t-15 -101.5
t-27.5 -101t-42.5 -85.5t-59.5 -56t-78 -11.5q-51 9 -77 42.5t-31 81t10 103t46 107.5t75 95t99 67v24q-25 -20 -58 -34t-67.5 -17t-66.5 7t-54 38q-37 47 -48 118t1 144q11 68 42.5 122.5t76 90t98 47.5t109.5 -6zM161 106q31 -3 54 14t39 47t26.5 68.5t16 78.5t7 77
t0.5 65q-69 -8 -116 -54.5t-61 -118.5q-2 -12 -4.5 -40t0 -58t11 -53.5t27.5 -25.5zM195 -372q17 -3 32 13t27.5 42.5t22 60t16 65.5t10 59.5t4.5 42.5q-21 -11 -42 -36t-39 -56t-31.5 -63.5t-18.5 -60t-1.5 -46.5t20.5 -21z" />
    <glyph glyph-name="h" unicode="h" horiz-adv-x="512" 
d="M341 -25q-33 10 -44.5 45t-10.5 81.5t10 99t16 97.5t7.5 76.5t-15.5 36.5q-23 7 -50.5 -2t-52.5 -25.5t-43 -36t-21 -34.5l-53 -296q-3 -18 -21.5 -26.5t-39 -7.5t-35.5 11t-10 28q7 52 13 99t13.5 97t16.5 107t20.5 129t26 163t33.5 209q3 21 15.5 32t28 14t32 -1
t29.5 -13t19.5 -21.5t1.5 -26.5l-58 -336q34 21 68.5 32.5t65.5 13t55 -6.5t38 -25q16 -21 21.5 -52t4 -67.5t-7.5 -75.5t-11.5 -75.5t-8 -68t2.5 -52.5q8 -1 20.5 9.5t27 28.5t29.5 40t28.5 43.5t23 39.5t13.5 28q12 15 28.5 16t30 -9t19.5 -29t-4 -43q-12 -22 -28 -51.5
t-35.5 -60t-42 -59t-49 -48.5t-56 -28.5t-61.5 1.5z" />
    <glyph glyph-name="i" unicode="i" horiz-adv-x="248" 
d="M61 536q20 20 41 22.5t37 -7t23.5 -28t1.5 -40.5q-10 -21 -19 -55t-16 -72t-11 -78t-3.5 -73t6.5 -57t19 -30t27.5 -2.5t31 21.5t35.5 54t40 97q8 15 22.5 18.5t28 -1.5t21 -17.5t2.5 -29.5q-9 -35 -29.5 -84t-51.5 -92t-71 -68.5t-87 -12.5q-42 12 -66 48.5t-34 86.5
t-8 108.5t10.5 113.5t22 102.5t27.5 75.5zM90 627q-20 27 -15.5 52t22 38.5t42 11.5t45.5 -30q14 -23 7.5 -45.5t-23 -36t-39 -13.5t-39.5 23z" />
    <glyph glyph-name="j" unicode="j" horiz-adv-x="257" 
d="M6 560q1 23 19.5 37t40.5 14.5t40 -13.5t19 -47q-2 -110 -11 -230.5t-11 -238.5q18 8 39.5 28t44.5 47t45.5 58t42.5 63q15 19 30.5 20t27.5 -10t17.5 -30.5t-0.5 -40.5q-7 -24 -24 -51.5t-39.5 -55.5t-49 -55t-52 -49.5t-48.5 -39.5t-39 -24q-3 -102 -21.5 -182
t-53 -129.5t-85.5 -64.5t-117 14q-39 17 -56 48t-15.5 70.5t20 83.5t50.5 86.5t75.5 79.5t95.5 62q4 80 7 152t4.5 139.5t2.5 131t1 127.5zM-131 -319q22 -16 42.5 -8.5t37.5 34t28 70t13 100.5q-41 -20 -67.5 -51t-41 -61.5t-17.5 -54t5 -29.5zM150 732q-9 -27 -29.5 -34.5
t-40.5 -1t-33 25.5t-7 46q7 31 29 40t43 2t34 -28t4 -50z" />
    <glyph glyph-name="k" unicode="k" horiz-adv-x="512" 
d="M33 825q2 19 19 29.5t36 9.5t35 -13t16 -36q0 -37 -0.5 -86t-1.5 -100.5t-2 -100.5t-3 -86q23 26 52.5 46t60 31t60.5 12t54 -10q22 -11 35.5 -31t18 -45.5t1.5 -53t-12 -52.5q-13 -34 -32 -58.5t-44 -42t-54.5 -30t-63.5 -23.5q8 -12 19.5 -26t25 -26.5t29 -23
t31.5 -15.5q33 -11 67 5.5t63 45.5t49.5 64.5t27.5 62.5q10 14 26 12.5t30.5 -12.5t22.5 -28.5t1 -33.5q-17 -42 -46.5 -86t-70 -78t-91 -52.5t-108.5 -9.5q-26 4 -51 18t-46.5 33.5t-40.5 42.5t-33 44v-132q0 -12 -8.5 -19.5t-21 -11t-27 -2t-26.5 7.5t-20 16t-7 25
q6 92 12.5 197t11.5 213t7 212.5t-1 196.5zM300 410q-7 13 -29 6.5t-46 -26.5t-45 -49.5t-25 -61.5h2q29 -8 59 4t52 34t32 47.5t0 45.5z" />
    <glyph glyph-name="l" unicode="l" horiz-adv-x="374" 
d="M305 858q40 -10 55 -48.5t11 -95t-25 -125.5t-54.5 -141.5t-76.5 -143t-90 -129.5q8 -37 25 -53.5t39.5 -18t47.5 9.5t50 31q32 26 59.5 60.5t42.5 68.5q3 11 18.5 15t32.5 0.5t30 -15t11 -31.5q-22 -54 -53.5 -98.5t-69.5 -76.5q-59 -51 -120 -67q-60 -16 -106 1t-77 57
t-47 98.5t-16 126.5q0 41 2.5 86.5t8.5 92t15 92.5t23 89q17 54 41 99.5t56.5 75.5t74 41.5t92.5 -1.5zM240 743q-12 1 -25 -13t-25.5 -38t-24.5 -56.5t-22 -67.5q-11 -36 -19.5 -73t-15 -69t-10 -57.5t-3.5 -38.5q14 19 29.5 45t31 55.5t30 61.5t26.5 63q15 37 25.5 70.5
t15 59t2 41.5t-14.5 17z" />
    <glyph glyph-name="m" unicode="m" horiz-adv-x="932" 
d="M-5 26q14 91 20.5 160t7.5 120.5t-1.5 87t-6.5 60.5t-8.5 40.5t-5.5 26.5q-2 15 2.5 26.5t13 19.5t19.5 12.5t22 4.5q22 0 34 -7t18.5 -20.5t9 -33t4.5 -45.5q13 22 30 44.5t38 40.5t46.5 29.5t55.5 11.5q31 0 59 -11.5t50.5 -32t38 -48t23.5 -59.5q22 42 48.5 80
t71.5 59t84 12t68.5 -36.5t46.5 -69t17 -86.5q0 -52 -6.5 -109t-11.5 -106t-3.5 -82t17.5 -37q27 -7 52 16t45.5 57t36 69.5t24.5 55.5q7 17 22.5 21t30 -2t24 -21.5t6.5 -37.5q-12 -49 -33 -98t-52.5 -88.5t-75.5 -64t-101 -24.5q-38 0 -62.5 20.5t-38.5 50t-19 62.5t-5 58
q0 36 4.5 69t10.5 64.5t10.5 61t4.5 57.5q0 38 -8.5 60t-24.5 22q-31 0 -58.5 -36.5t-50 -94t-40 -130t-27.5 -144.5q-3 -25 -22 -35.5t-40.5 -8t-39 16t-17.5 36.5q2 13 6.5 47.5t8 78.5t4 91.5t-6 87.5t-22 65.5t-43.5 25.5q-23 0 -44 -21.5t-40.5 -57.5t-35.5 -83
t-28.5 -99t-21 -105t-11.5 -100q-3 -25 -23.5 -35t-43.5 -8t-41 15t-16 34z" />
    <glyph glyph-name="n" unicode="n" horiz-adv-x="557" 
d="M15 476q5 33 24 48t40 13.5t37.5 -19.5t17.5 -51v-22q18 24 40 48t47.5 42.5t56.5 27t67 1.5q37 -8 59.5 -31.5t33.5 -57t13 -73.5t-0.5 -80.5t-7.5 -79t-8.5 -68.5t-3 -48.5t9.5 -19.5q15 -2 32.5 8t35.5 32.5t35 57t29 81.5q5 21 21.5 23.5t32.5 -6t27 -25.5t5 -35
q-19 -57 -44.5 -106.5t-56.5 -84.5t-67.5 -52.5t-76.5 -9.5t-61.5 30.5t-30.5 54t-8 69t6 76.5t11 76t7 67t-5 50.5t-26 25.5q-27 7 -52 -11t-46.5 -52.5t-39.5 -79.5t-31 -92t-20.5 -91.5t-8.5 -75.5q-3 -14 -20 -24.5t-37 -12.5t-38.5 8t-23.5 38q-1 18 1 41.5t6 69
t8.5 121.5t9.5 199z" />
    <glyph glyph-name="o" unicode="o" horiz-adv-x="587" 
d="M328 595q46 15 80.5 6t57.5 -35t36.5 -64.5t18.5 -81.5q2 -20 2.5 -44t-1 -48t-4 -46t-6.5 -40q24 1 43 6.5t35 13t30.5 16.5t29.5 17q19 10 31.5 2.5t17 -22.5t2 -32.5t-13.5 -27.5q-48 -44 -105 -63.5t-116 -19.5q-39 -69 -100 -104.5t-133 -36.5q-67 -1 -113 27
t-73 73t-35.5 102.5t0 116t34 114t65.5 96.5t94.5 62.5t122.5 12.5zM256 480q-32 -7 -59 -35.5t-46 -68t-27 -85.5t-1.5 -86.5t30.5 -70.5t69 -39q16 -3 36 3t39 18t34.5 28.5t23.5 33.5q-28 17 -47.5 41t-33.5 53q-22 48 -26 102.5t8 105.5zM380 475q-28 -17 -31.5 -47.5
t5.5 -62t25 -56.5t27 -31q6 5 9.5 23.5t4.5 42.5t-1 50t-7 46t-13 30.5t-19 4.5z" />
    <glyph glyph-name="p" unicode="p" horiz-adv-x="650" 
d="M38 543q4 25 24 33.5t41.5 5.5t38.5 -16t15 -32l-10 -124q11 34 38.5 69t63.5 60t78 34.5t83 -8.5q49 -22 76.5 -72t36.5 -112t1 -128t-29 -118q42 21 84 59.5t88 109.5q13 12 24.5 3.5t17.5 -27t4 -42t-17 -41.5q-24 -44 -62.5 -83t-87 -68.5t-103 -49t-110.5 -25.5
t-109.5 2.5t-98.5 34.5q-9 -90 -15 -153.5t-10.5 -106.5t-7 -68t-3.5 -38.5t-1.5 -18t-0.5 -5.5h-1q-3 -12 -22.5 -20t-41.5 -8t-39 8.5t-15 29.5q3 24 7.5 75.5t9.5 119.5t11 146.5t12 157.5t11 152.5t9 131t7 93.5t3 39zM386 444q-20 18 -45 12.5t-51 -27t-50.5 -55.5
t-43 -72t-29 -76.5t-7.5 -69.5q8 -41 34.5 -60.5t59.5 -20.5t65.5 14t52.5 43q16 23 28.5 67t16.5 91.5t-2.5 90.5t-28.5 63z" />
    <glyph glyph-name="q" unicode="q" horiz-adv-x="576" 
d="M352 579q28 1 47.5 -9t32.5 -24.5t19 -30.5t7 -27q-3 -108 -19 -214t-25 -217q34 0 60.5 19.5t46.5 52.5t35.5 75.5t28.5 88.5q6 18 22.5 21.5t33 -1.5t29.5 -16t12 -21q-4 -50 -17.5 -98.5t-34.5 -89t-47.5 -69.5t-56.5 -40q18 -28 28.5 -68.5t11.5 -84t-8.5 -86.5
t-30 -77.5t-53.5 -55.5t-79 -21q-32 0 -51.5 19t-31.5 46t-17.5 57t-7.5 53q-5 64 -2.5 129.5t7.5 135.5q-21 -20 -44 -36t-47.5 -25t-49.5 -8.5t-49 13.5q-36 20 -60.5 45t-35.5 67q-9 32 -10.5 71t4.5 80t20.5 81t37.5 75q27 40 61 74.5t72 59.5t79 40t82 16zM132 104
q9 -23 31 -26q20 -3 45 13q26 17 46.5 51.5t35.5 76.5q12 34 20.5 69.5t14 67.5t7.5 57.5t1 40.5q-3 -1 -6 -2.5t-6 -1.5q-23 -2 -47.5 -13t-47.5 -29.5t-43.5 -43t-35.5 -53.5q-24 -46 -30.5 -99.5t15.5 -107.5zM417 -290q15 14 23.5 46t8.5 67t-10.5 64.5t-33.5 38.5
q-2 -54 0 -108t12 -108z" />
    <glyph glyph-name="r" unicode="r" horiz-adv-x="501" 
d="M28 0q-10 -17 -28.5 -18.5t-36 6t-29.5 20.5t-7 25q7 17 18 44t27 78.5t36.5 136t46.5 215.5q4 32 22.5 46t40.5 12q13 -1 25 -6.5t20.5 -16t12.5 -25t0 -32.5q18 -21 35.5 -35.5t37 -24.5t42 -17.5t51.5 -15.5q20 -13 26 -26t4 -27.5t-9 -31t-13 -35.5q-3 -11 -7 -32
t-6.5 -46.5t-3.5 -52.5t1.5 -49.5t9.5 -38t20 -17.5q42 -8 79 50t71 190q5 24 21.5 32t34 5t30 -15t8.5 -29q-6 -37 -18 -82t-31.5 -89.5t-46.5 -84t-63 -64.5q-27 -19 -58.5 -24.5t-61.5 3t-54.5 30t-35.5 55.5q-23 69 -19 141.5t22 144.5q-23 10 -51 21.5t-48 26.5
q-35 -110 -55 -175t-32 -101t-17.5 -50t-10.5 -21z" />
    <glyph glyph-name="s" unicode="s" horiz-adv-x="470" 
d="M-2 62q-24 -15 -44.5 -13.5t-33 14t-14.5 34.5t12 47q26 42 58.5 95t66 110l67 114t62.5 106q10 18 30 27t39.5 7.5t34 -14.5t14.5 -39q0 -16 -5 -32.5t0 -32.5q12 -40 26 -96.5t22 -119.5q3 -24 4.5 -52t1 -56t-3.5 -54.5t-8 -46.5q26 12 46 30t38 45t35.5 64.5
t37.5 88.5q10 26 28.5 30.5t36 -3t29 -23t7.5 -29.5q-9 -31 -26 -70.5t-43 -79.5q-17 -26 -36.5 -51t-42 -46t-48.5 -37t-54 -25q-43 -17 -87.5 -18t-86.5 11q-49 14 -89.5 44.5t-66.5 77.5zM194 382q-14 -23 -27 -46l-26 -46q-13 -24 -26.5 -48.5t-30.5 -51.5q5 -12 15 -32
t26 -40q14 -18 31.5 -33t37.5 -20q8 12 12 30t5.5 40.5t0.5 48t-3 51.5q-3 43 -8 82.5t-7 64.5z" />
    <glyph glyph-name="t" unicode="t" horiz-adv-x="356" 
d="M-18 521q-22 3 -32 20t-9 36.5t11.5 37t29.5 21.5q23 2 38 0t38 0l35 194q5 19 24 29t39.5 8.5t35.5 -15t12 -42.5l-29 -174h147q19 -2 29.5 -17t11.5 -34t-8 -37.5t-28 -26.5h-168q-2 -21 -9 -60t-14 -85t-11 -93.5t-1 -86.5t16 -64t41 -26q25 -1 54 6.5t55 26.5t47 51
t30 82q3 25 20 33t35.5 4t32 -17.5t9.5 -31.5q-13 -59 -37.5 -107.5t-62 -83.5t-89.5 -54.5t-120 -19.5q-51 0 -82.5 21.5t-48 59.5t-21 89t-1 109.5t12 121.5t18.5 125q-12 -1 -25.5 0t-25.5 0z" />
    <glyph glyph-name="u" unicode="u" 
d="M60 552q14 25 33.5 34.5t38 5t31.5 -22t13 -46.5q-3 -12 -11 -48t-17.5 -83t-18.5 -99.5t-12 -96.5t1.5 -74t20.5 -33q29 -5 54 22t46 71.5t38 99.5t29.5 105.5t20.5 89.5t12 52q7 25 18.5 41t35.5 26q35 4 54.5 -14.5t20.5 -53.5q-8 -39 -18 -83t-19 -87.5t-15 -84
t-7.5 -72.5t3 -54t18.5 -28q32 -5 57.5 33t54.5 124q9 22 27 27t33.5 -2.5t24 -26.5t-0.5 -46q-6 -17 -15 -39.5t-21.5 -46.5t-27.5 -48t-32 -43q-25 -30 -56 -42.5t-61 -8.5t-57 25t-44 59q-18 -26 -36.5 -48t-41 -38t-50 -23.5t-64.5 -5.5q-36 2 -59.5 20t-36.5 46
t-18 61.5t-5 67.5t2.5 64.5t4.5 51.5q3 27 9.5 63t14 73.5t15.5 73t13 62.5z" />
    <glyph glyph-name="v" unicode="v" horiz-adv-x="420" 
d="M84 567q38 -158 59.5 -252.5t24.5 -121.5q14 36 31 84t36 98t39.5 99t42.5 88q12 25 34.5 30t42 -3.5t30 -26.5t-1.5 -40q-13 -26 -30 -65t-35.5 -85t-37.5 -95.5t-35.5 -96t-30 -87t-21.5 -67.5q-8 -23 -31 -31.5t-47.5 -6t-45 12.5t-23.5 25q-15 70 -28.5 139
t-26 131.5t-23.5 116t-19 94.5q-9 23 1.5 41.5t28.5 28t37.5 8t28.5 -17.5z" />
    <glyph glyph-name="w" unicode="w" horiz-adv-x="673" 
d="M-11 543q-1 20 15 34.5t36.5 19t39.5 -1.5t23 -26q5 -35 9.5 -76.5t10 -84.5t11.5 -85t15 -79q16 32 29.5 63t27.5 62.5t29.5 64.5t35.5 69q6 18 25.5 25t41.5 3.5t41.5 -18.5t25.5 -40l67 -290q12 37 23.5 88t21 103.5t17 99.5t11.5 76q3 22 14.5 33t26 14.5t30 0
t28 -12t18.5 -20t2 -24.5q-11 -58 -25.5 -121.5t-31.5 -128t-35 -127.5t-35 -121q-5 -17 -25 -27.5t-42.5 -12.5t-41.5 5.5t-22 27.5v2l-87 294q-23 -35 -42.5 -75t-39 -81t-40.5 -82t-46 -78q-9 -12 -25 -17t-31 -2.5t-26.5 12.5t-12.5 27q-7 79 -17 149t-20.5 132.5
t-18.5 118.5t-11 107z" />
    <glyph glyph-name="x" unicode="x" horiz-adv-x="529" 
d="M-12 541q1 27 19 39.5t38.5 11t35.5 -16.5t11 -43q-2 -12 -1.5 -33t3.5 -47.5t9.5 -55.5t17.5 -56q12 -31 29.5 -57t41.5 -41l205 339q16 24 38.5 24.5t39.5 -14.5t22 -40t-14 -51l-210 -325q38 -33 76 -45.5t73 -5.5q46 8 83 47t59 108q2 16 15.5 21t28.5 0t27 -19.5
t12 -38.5q-30 -90 -80.5 -144.5t-113.5 -71.5q-54 -15 -113 -3t-121 54l-61 -106q-15 -25 -39.5 -26.5t-45.5 10.5t-31 32t4 37l80 123q-41 38 -66.5 79.5t-40.5 84.5q-23 65 -28 125.5t-3 104.5z" />
    <glyph glyph-name="y" unicode="y" horiz-adv-x="672" 
d="M65 552q10 24 33 31t44 0.5t33 -26t0 -48.5q-8 -24 -17 -59t-16.5 -74t-12 -78.5t-3 -72.5t9.5 -55t26 -27q39 -2 72.5 15.5t62 48.5t52.5 71t43.5 82.5t35 83.5t27.5 74q14 25 33.5 34.5t38 5t31.5 -22t13 -45.5q-18 -53 -27.5 -108t-12.5 -109q-2 -38 -1.5 -75t4.5 -69
q11 6 30.5 19t41 31t41.5 40t33 46q20 24 39.5 22t33 -17t17 -36t-7.5 -36q-36 -61 -91 -116t-141 -91q3 -43 0 -98t-14.5 -112t-31 -109.5t-50 -89.5t-71.5 -53t-95 1q-52 16 -75 53t-23.5 86.5t18.5 106.5t52.5 112.5t78 104.5t94.5 84q1 24 1 44.5t1 43.5
q-25 -32 -58.5 -61.5t-72.5 -50.5t-82 -29t-88 4q-42 12 -66.5 44t-35.5 76.5t-10 98t9.5 108t22.5 105.5t31 92zM415 -77q-23 -19 -44 -47.5t-37.5 -59.5t-28 -62.5t-15.5 -56.5t0 -42t19 -19q19 -3 35.5 15.5t30 48.5t23.5 66.5t15.5 69.5t6 57t-4.5 30z" />
    <glyph glyph-name="z" unicode="z" horiz-adv-x="611" 
d="M111 254q-12 -16 -30 -19.5t-33.5 3t-23.5 21.5t0 36q11 54 39 111t65 101t78.5 66.5t80.5 8.5q42 -15 58.5 -48.5t17 -74t-10 -83.5t-21.5 -77q35 4 67.5 -8.5t58 -36.5t42.5 -56t22 -67q15 12 31 29.5t30 38t26 40.5t20 36q11 24 28.5 31t32.5 0t22.5 -26t-1.5 -47
q-32 -65 -77.5 -126t-103.5 -107q-1 -66 -28.5 -135t-70.5 -124q-26 -33 -55.5 -58t-60 -38t-61 -12t-58.5 20q-33 22 -44.5 52.5t-6.5 64.5t23 69.5t45 68.5q22 27 48 51t52 44t49.5 36.5t40.5 28.5q4 40 -7.5 67.5t-31 37.5t-43.5 0.5t-45 -43.5q-17 -23 -41.5 -27.5
t-44 4.5t-28.5 27.5t4 42.5q5 14 15 37.5t20.5 52t20.5 58t17 54t9 42t-3 21.5q-11 8 -28 -6.5t-36 -42.5t-37 -65t-32 -74zM263 -249q12 -10 34 6t45 47q23 30 42 69t24 74q-3 -3 -15.5 -14t-30 -27.5t-37 -36.5t-35.5 -40q-20 -26 -29.5 -47t2.5 -31z" />
    <glyph glyph-name="braceleft" unicode="{" horiz-adv-x="362" 
d="M280 961q14 1 27.5 -12.5t18.5 -31.5t-1 -36t-30 -25q-45 -14 -68 -50.5t-29 -81.5t0.5 -91t20.5 -77q9 -21 21.5 -40.5t12.5 -37.5t-9.5 -28.5t-23.5 -17.5t-30.5 -13t-30.5 -15q41 -26 57.5 -44t18.5 -41q2 -16 -0.5 -36.5t-12.5 -48.5q-10 -29 -9.5 -70t11.5 -80
t32 -68.5t53 -33.5q25 -3 35.5 -23.5t8 -43t-17 -40t-38.5 -14.5q-53 6 -89.5 35.5t-59.5 71.5t-34.5 91.5t-14 96t1.5 84.5t12 58q-42 25 -70.5 47.5t-31.5 46.5q-3 25 25 56.5t79 57.5q-29 39 -40 87.5t-7 97.5t21 96.5t45 84.5t65 61t81 28z" />
    <glyph glyph-name="bar" unicode="|" horiz-adv-x="602" 
d="M135 623q26 -2 49 -16.5t43.5 -35t38 -44.5t31.5 -44q18 30 51 63t70.5 54t73.5 21t61 -37q18 -28 12.5 -74.5t-26.5 -101.5t-52.5 -113t-64.5 -108q-7 -11 -23.5 -34.5t-36.5 -47.5t-40.5 -41.5t-36.5 -15.5q-10 1 -22.5 12.5t-26 28.5t-26.5 36.5t-24 37.5t-18.5 31.5
t-9.5 17.5q-33 64 -50 110.5t-31 81.5q-5 13 -11 35t-9.5 47t-2.5 50.5t9 45.5t25 31.5t47 9.5z" />
    <glyph glyph-name="braceright" unicode="}" horiz-adv-x="387" 
d="M98 -144q-14 -1 -27.5 12.5t-18.5 31.5t1 36t30 25q33 10 55 30.5t35 47t18 57t2.5 60.5t-11.5 57.5t-23 47.5q-13 19 -23.5 39.5t-10.5 38.5t9.5 28.5t23.5 17.5t30.5 13t30.5 15q-41 26 -57.5 44t-18.5 41q-2 16 2.5 36t10.5 49q6 30 3 72t-14 81.5t-30.5 68
t-45.5 30.5t-36 22.5t-7.5 43.5t17 40.5t38.5 14.5q53 -7 89.5 -36t59.5 -71t34.5 -91.5t14 -96t-1.5 -84.5t-12 -58q42 -25 70.5 -47.5t31.5 -46.5q3 -25 -25 -56.5t-79 -57.5q28 -39 39.5 -87.5t7.5 -97.5t-21 -96.5t-45 -84.5t-65 -61.5t-81 -27.5z" />
    <glyph glyph-name="asciitilde" unicode="~" 
d="M498 432q-21 -45 -48.5 -75t-58.5 -41.5t-64 -3.5t-64 38q-24 24 -42.5 33.5t-33.5 6.5t-29 -18.5t-30 -40.5q-10 -15 -28 -17t-33 5.5t-22.5 23t3.5 34.5q23 40 49 66t55.5 35.5t62.5 1t70 -37.5q30 -24 51 -30t36 0.5t26 24t20 41.5q6 17 23 19.5t32.5 -5.5t24.5 -24
t0 -36z" />
    <glyph glyph-name="exclamdown" unicode="&#xa1;" horiz-adv-x="187" 
d="M148.002 51.0498q-3.99902 -25.998 -20.998 -36.498q-16.999 -10.499 -35.998 -8.99902t-34.498 12.999t-18.499 28.498v562.966q9 26.999 27.498 35.498q18.499 8.5 36.998 5.5t31.998 -15.999t13.499 -29.998v-553.967zM36.0088 787.005q-4.99902 26.999 9 44.9971
q13.999 17.999 34.498 23.499q20.498 5.5 41.9971 -3q21.499 -8.49902 30.498 -35.498q9.99902 -27.998 -5 -48.9971q-14.999 -20.998 -37.4971 -27.998q-22.499 -6.99902 -44.9971 3q-22.499 9.99902 -28.499 43.9971z" />
    <glyph glyph-name="sterling" unicode="&#xa3;" horiz-adv-x="838" 
d="M398 390q-7 -29 -11.5 -52t-6.5 -35q25 -17 42.5 -39.5t30.5 -47.5t24.5 -49.5t24.5 -44.5t30.5 -33t42.5 -14q18 -1 39 6t41 22.5t38 38.5t30 53q5 22 24 26t38 -3.5t31.5 -24t5.5 -36.5q-15 -44 -38.5 -81t-56.5 -63.5t-76.5 -41t-100.5 -12.5q-51 1 -80.5 20.5
t-49 49.5t-35 67t-39.5 74q-11 -38 -27.5 -77.5t-41.5 -70.5t-59.5 -49t-82.5 -12q-44 6 -72 33.5t-38 67.5t0 86.5t43 88.5q36 48 88.5 75t109.5 26q4 9 7.5 24t8.5 34l-81 5q-18 0 -27 18.5t-8 41t11.5 40t32.5 16.5l97 -7q14 61 35 126t51.5 117t73.5 82.5t102 23.5
q51 -7 83 -37t46 -71.5t11.5 -88t-19.5 -85.5q-6 -15 -22.5 -17.5t-32.5 4t-26 21t-4 33.5q9 26 10 50.5t-6 43t-21.5 29.5t-37.5 11q-17 0 -34 -22t-33 -57.5t-30.5 -80t-26.5 -89.5l125 -10q21 -2 32.5 -19.5t11.5 -38t-12 -37.5t-38 -17zM179 84q25 25 35 61.5t21 71.5
q-19 -5 -37.5 -16t-33 -25.5t-24.5 -31.5t-12 -33q-2 -12 2 -21.5t11.5 -14t17.5 -3t20 11.5z" />
    <glyph glyph-name="dieresis" unicode="&#xa8;" horiz-adv-x="387" 
d="M68 641q-17 17 -20.5 34.5t3 33t20 26.5t30.5 14t35 -3.5t33 -26.5q12 -21 4 -42.5t-25.5 -35t-40 -15.5t-39.5 15zM245 647q-17 17 -20.5 34.5t3 33t20 26.5t30.5 14t35 -3.5t33 -26.5q12 -21 4 -42.5t-25.5 -35t-40 -15.5t-39.5 15z" />
    <glyph glyph-name="macron" unicode="&#xaf;" horiz-adv-x="462" 
d="M78 624q-18 0 -28.5 17t-11.5 38t8 38t31 17l305 5q21 0 33.5 -17t14 -37.5t-9.5 -38t-37 -17.5z" />
    <glyph glyph-name="acute" unicode="&#xb4;" horiz-adv-x="275" 
d="M130 625q-10 -15 -30.5 -12.5t-38 15t-26.5 31t4 36.5l117 154q12 18 33 17.5t39 -12t26 -31.5t-7 -42z" />
    <glyph glyph-name="periodcentered" unicode="&#xb7;" horiz-adv-x="273" 
d="M102 265q-17 17 -20.5 34.5t3 33t20 26.5t30.5 14t35 -3.5t33 -26.5q12 -21 4 -42.5t-25.5 -35t-40 -15.5t-39.5 15z" />
    <glyph glyph-name="cedilla" unicode="&#xb8;" horiz-adv-x="304" 
d="M46 19q3 18 18 26.5t31.5 7t30 -12t13.5 -29.5q-1 -9 -4.5 -25.5t-4.5 -24.5q45 -5 75.5 -17t48.5 -29t24.5 -38.5t3.5 -43.5q-8 -49 -61 -81t-150 -30q-27 3 -40.5 18t-13.5 32t13 32t40 18h35t33.5 2t25.5 7.5t10 15.5q0 7 -8 10t-20.5 4.5t-28.5 2.5t-32 3
q-25 3 -36 16t-13 33t1.5 46t8.5 57z" />
    <glyph glyph-name="questiondown" unicode="&#xbf;" horiz-adv-x="510" 
d="M414.009 178.041q19.999 13 39.498 3.5q19.499 -9.49902 30.998 -28.998t11.999 -43.4971q0.5 -23.999 -17.499 -38.998q-54.9961 -44.9971 -112.993 -65.9961q-57.9961 -20.998 -111.493 -20.498q-53.4961 0.499023 -98.9941 20.998q-45.4971 20.499 -75.4951 57.4971
q-29.998 36.9971 -40.4971 88.9941q-10.5 51.9971 5.49902 115.993q12 46.9971 38.498 82.9951q26.498 35.9971 62.4961 60.4961q35.998 24.498 78.4951 38.9971t85.4951 18.499l6.99902 102.994q2 14.999 19.499 23.998q17.499 9 37.998 10q20.498 1 37.4971 -8
q16.999 -8.99902 16.999 -29.998l-4.99902 -123.992q0 -15.999 -2 -31.498t-8 -27.498q-5.99902 -12 -17.499 -18.999q-11.499 -7 -29.498 -5q-31.998 2 -63.9961 -4.5q-31.998 -6.49902 -58.9961 -19.499q-45.9971 -20.998 -68.9961 -55.9961
q-22.998 -34.998 -22.998 -69.4961t23.998 -60.4961q23.999 -25.998 71.9961 -28.998q34.998 -3 75.9951 10.999t89.9941 45.9971zM409.01 846.001q31.998 -6 45.9971 -24.499t10.999 -38.4971q-3 -19.999 -21.499 -35.998q-18.498 -15.999 -52.4961 -16.999
q-22.999 -1 -39.998 7.99902q-16.999 9 -25.998 22.499q-9 13.499 -9.5 29.498t9 28.998q9.49902 13 29.998 20.999t53.4971 6z" />
    <glyph glyph-name="Agrave" unicode="&#xc0;" horiz-adv-x="685" 
d="M15 283q-1 68 17.5 148.5t54 157.5t85 141.5t109.5 100t128 33t141 -58.5q23 16 39.5 13t27 -15.5t14 -29t0.5 -28.5q-4 -16 -13 -52.5t-19.5 -86t-21 -107t-19.5 -116t-14 -114t-3.5 -99.5t11 -73t29.5 -35q44 -14 76 43.5t52 171.5q7 20 23.5 26.5t33 3t28.5 -14.5
t10 -25q-11 -66 -28 -123t-46 -98.5t-73 -65t-108 -22.5q-54 1 -83.5 46.5t-29.5 116.5q-15 -22 -34 -43.5t-42 -38.5t-50.5 -29t-58.5 -15q-66 -7 -110.5 15t-72 63t-40 96t-13.5 114zM228 114q49 2 87 39t66.5 94.5t49 127.5t34 136t22 121t13.5 84q-49 32 -94.5 30
t-85 -27.5t-72.5 -70.5t-57.5 -99t-40 -112.5t-19.5 -112.5q-1 -13 -1 -33.5t2.5 -44t8 -47.5t17 -43t28.5 -31t42 -11zM320 1050q-14 20 -5.5 39t26 30t38.5 11.5t32 -15.5l107 -144q12 -17 2.5 -34.5t-26.5 -28.5t-37 -13.5t-29 11.5z" />
    <glyph glyph-name="Aacute" unicode="&#xc1;" horiz-adv-x="685" 
d="M15 283q-1 68 17.5 148.5t54 157.5t85 141.5t109.5 100t128 33t141 -58.5q23 16 39.5 13t27 -15.5t14 -29t0.5 -28.5q-4 -16 -13 -52.5t-19.5 -86t-21 -107t-19.5 -116t-14 -114t-3.5 -99.5t11 -73t29.5 -35q44 -14 76 43.5t52 171.5q7 20 23.5 26.5t33 3t28.5 -14.5
t10 -25q-11 -66 -28 -123t-46 -98.5t-73 -65t-108 -22.5q-54 1 -83.5 46.5t-29.5 116.5q-15 -22 -34 -43.5t-42 -38.5t-50.5 -29t-58.5 -15q-66 -7 -110.5 15t-72 63t-40 96t-13.5 114zM228 114q49 2 87 39t66.5 94.5t49 127.5t34 136t22 121t13.5 84q-49 32 -94.5 30
t-85 -27.5t-72.5 -70.5t-57.5 -99t-40 -112.5t-19.5 -112.5q-1 -13 -1 -33.5t2.5 -44t8 -47.5t17 -43t28.5 -31t42 -11zM451 909q-10 -15 -30.5 -12.5t-38 15t-26.5 31t4 36.5l117 154q12 18 33 17.5t39 -12t26 -31.5t-7 -42z" />
    <glyph glyph-name="Acircumflex" unicode="&#xc2;" horiz-adv-x="685" 
d="M15 283q-1 68 17.5 148.5t54 157.5t85 141.5t109.5 100t128 33t141 -58.5q23 16 39.5 13t27 -15.5t14 -29t0.5 -28.5q-4 -16 -13 -52.5t-19.5 -86t-21 -107t-19.5 -116t-14 -114t-3.5 -99.5t11 -73t29.5 -35q44 -14 76 43.5t52 171.5q7 20 23.5 26.5t33 3t28.5 -14.5
t10 -25q-11 -66 -28 -123t-46 -98.5t-73 -65t-108 -22.5q-54 1 -83.5 46.5t-29.5 116.5q-15 -22 -34 -43.5t-42 -38.5t-50.5 -29t-58.5 -15q-66 -7 -110.5 15t-72 63t-40 96t-13.5 114zM228 114q49 2 87 39t66.5 94.5t49 127.5t34 136t22 121t13.5 84q-49 32 -94.5 30
t-85 -27.5t-72.5 -70.5t-57.5 -99t-40 -112.5t-19.5 -112.5q-1 -13 -1 -33.5t2.5 -44t8 -47.5t17 -43t28.5 -31t42 -11zM368.012 980l55.9971 -75q8.99902 -14 28.498 -11.5t36.998 13.5t26.498 28q9 17 -3 33l-88.9941 121q-13.999 19 -29.998 26.5t-31.498 6t-28.499 -10
q-12.999 -8.5 -21.998 -20.5l-87.9951 -121q-11.999 -17 -2.99902 -33.5q8.99902 -16.5 26.498 -28t36.498 -13.5q18.998 -2 27.998 11z" />
    <glyph glyph-name="Atilde" unicode="&#xc3;" horiz-adv-x="685" 
d="M15 283q-1 68 17.5 148.5t54 157.5t85 141.5t109.5 100t128 33t141 -58.5q23 16 39.5 13t27 -15.5t14 -29t0.5 -28.5q-4 -16 -13 -52.5t-19.5 -86t-21 -107t-19.5 -116t-14 -114t-3.5 -99.5t11 -73t29.5 -35q44 -14 76 43.5t52 171.5q7 20 23.5 26.5t33 3t28.5 -14.5
t10 -25q-11 -66 -28 -123t-46 -98.5t-73 -65t-108 -22.5q-54 1 -83.5 46.5t-29.5 116.5q-15 -22 -34 -43.5t-42 -38.5t-50.5 -29t-58.5 -15q-66 -7 -110.5 15t-72 63t-40 96t-13.5 114zM228 114q49 2 87 39t66.5 94.5t49 127.5t34 136t22 121t13.5 84q-49 32 -94.5 30
t-85 -27.5t-72.5 -70.5t-57.5 -99t-40 -112.5t-19.5 -112.5q-1 -13 -1 -33.5t2.5 -44t8 -47.5t17 -43t28.5 -31t42 -11zM662 1012q-21 -45 -48.5 -75t-58.5 -41.5t-64 -3.5t-64 38q-24 24 -42.5 33.5t-33.5 6.5t-29 -18.5t-30 -40.5q-10 -15 -28 -17t-33 5.5t-22.5 23
t3.5 34.5q23 40 48 69.5t53.5 41.5t62 2.5t73.5 -48.5q27 -26 48 -32.5t37 1t27.5 25.5t20.5 42q6 17 23 19.5t32.5 -5.5t24.5 -24t0 -36z" />
    <glyph glyph-name="Adieresis" unicode="&#xc4;" horiz-adv-x="685" 
d="M15 283q-1 68 17.5 148.5t54 157.5t85 141.5t109.5 100t128 33t141 -58.5q23 16 39.5 13t27 -15.5t14 -29t0.5 -28.5q-4 -16 -13 -52.5t-19.5 -86t-21 -107t-19.5 -116t-14 -114t-3.5 -99.5t11 -73t29.5 -35q44 -14 76 43.5t52 171.5q7 20 23.5 26.5t33 3t28.5 -14.5
t10 -25q-11 -66 -28 -123t-46 -98.5t-73 -65t-108 -22.5q-54 1 -83.5 46.5t-29.5 116.5q-15 -22 -34 -43.5t-42 -38.5t-50.5 -29t-58.5 -15q-66 -7 -110.5 15t-72 63t-40 96t-13.5 114zM228 114q49 2 87 39t66.5 94.5t49 127.5t34 136t22 121t13.5 84q-49 32 -94.5 30
t-85 -27.5t-72.5 -70.5t-57.5 -99t-40 -112.5t-19.5 -112.5q-1 -13 -1 -33.5t2.5 -44t8 -47.5t17 -43t28.5 -31t42 -11zM261 906q-17 17 -20.5 34.5t3 33t20 26.5t30.5 14t35 -3.5t33 -26.5q12 -21 4 -42.5t-25.5 -35t-40 -15.5t-39.5 15zM438 912q-17 17 -20.5 34.5t3 33
t20 26.5t30.5 14t35 -3.5t33 -26.5q12 -21 4 -42.5t-25.5 -35t-40 -15.5t-39.5 15z" />
    <glyph glyph-name="Aring" unicode="&#xc5;" horiz-adv-x="685" 
d="M15 283q-1 68 17.5 148.5t54 157.5t85 141.5t109.5 100t128 33t141 -58.5q23 16 39.5 13t27 -15.5t14 -29t0.5 -28.5q-4 -16 -13 -52.5t-19.5 -86t-21 -107t-19.5 -116t-14 -114t-3.5 -99.5t11 -73t29.5 -35q44 -14 76 43.5t52 171.5q7 20 23.5 26.5t33 3t28.5 -14.5
t10 -25q-11 -66 -28 -123t-46 -98.5t-73 -65t-108 -22.5q-54 1 -83.5 46.5t-29.5 116.5q-15 -22 -34 -43.5t-42 -38.5t-50.5 -29t-58.5 -15q-66 -7 -110.5 15t-72 63t-40 96t-13.5 114zM228 114q49 2 87 39t66.5 94.5t49 127.5t34 136t22 121t13.5 84q-49 32 -94.5 30
t-85 -27.5t-72.5 -70.5t-57.5 -99t-40 -112.5t-19.5 -112.5q-1 -13 -1 -33.5t2.5 -44t8 -47.5t17 -43t28.5 -31t42 -11zM321 1025q-8 -19 5 -32.5t33.5 -18t40.5 2.5t26 28q3 17 -10 29t-31.5 16.5t-37 -1t-26.5 -24.5zM236 1030q6 43 31.5 67.5t59.5 33t70.5 2t65 -26
t44 -50.5t6.5 -72q-11 -37 -38 -58.5t-59.5 -28.5t-66.5 -1t-61 23t-42.5 45.5t-9.5 65.5z" />
    <glyph glyph-name="AE" unicode="&#xc6;" horiz-adv-x="897" 
d="M19 272q-2 66 16.5 145t52 154.5t81.5 139.5t105.5 101.5t123.5 40t137 -45.5q19 16 42 29t47.5 19t50 4.5t51.5 -12.5q13 10 28.5 14t29 0t23 -16.5t10.5 -36.5q8 -52 6.5 -94.5t-6.5 -72.5q-6 -20 -22.5 -29t-33.5 -8.5t-30.5 9.5t-12.5 24q4 22 1.5 45t-13 38.5
t-29 19.5t-46.5 -11q-26 -14 -42.5 -36t-24 -48.5t-7 -56t8.5 -57.5q7 -24 22 -39.5t34 -22.5t41 -6.5t44 7.5q16 8 28 3t19 -17t9 -28.5t-1 -31.5t-11.5 -27t-22.5 -15q-43 -5 -83 -19t-68 -39t-37.5 -62.5t8.5 -88.5q13 -37 49 -46.5t81 1.5q34 8 69 24.5t66 40t57 53
t43 62.5q9 18 26.5 20.5t33 -5.5t24 -23.5t0.5 -32.5q-21 -41 -51.5 -77t-68.5 -66t-81.5 -53.5t-90.5 -39.5q-42 -14 -82 -17.5t-75.5 8t-63.5 39.5t-44 78q-18 -21 -40.5 -41.5t-46.5 -38t-49 -30.5t-49 -17q-65 -12 -109.5 9.5t-72.5 63.5t-40.5 99t-13.5 116zM232 103
q28 3 56 19t53.5 38.5t47.5 48.5t38 49q6 45 24.5 86t52.5 65q-29 28 -45.5 66t-21 80t3.5 85.5t28 82.5q-45 18 -86 8.5t-77 -38.5t-65.5 -73t-51.5 -95.5t-36 -106.5t-18 -105q-1 -12 -1 -33.5t2.5 -45.5t8 -48.5t17 -43.5t28.5 -30t42 -9z" />
    <glyph glyph-name="Ccedilla" unicode="&#xc7;" horiz-adv-x="515" 
d="M354 498q13 27 20.5 63t6 69t-13 56.5t-36.5 24.5q-50 -9 -84.5 -41.5t-57 -77.5t-35 -96t-18.5 -97q-4 -30 -4 -64.5t5.5 -68t18.5 -64t35.5 -54t55.5 -37.5t79 -14q24 0 50.5 7t53.5 26.5t54 55t52 93.5q9 20 26 24.5t32.5 -1.5t26 -19t5.5 -28q-48 -124 -125 -194
t-182 -80q-63 -6 -113 10.5t-86.5 48.5t-61 77t-37 96.5t-14.5 106t6 105.5q6 41 19 90t32.5 97t47 91.5t63.5 75t81.5 46.5t101.5 7q20 -3 32 -9t19.5 -13.5t12.5 -17t11 -18.5q18 16 37.5 19t34 -5.5t20.5 -27.5t-3 -46q-19 -65 -31 -107.5t-19.5 -71.5t-12.5 -48t-9 -37
q-7 -15 -24.5 -20t-35 1t-29.5 22.5t-7 44.5zM230 23q3 18 18 26.5t31.5 7t30 -12t13.5 -29.5q-1 -9 -4.5 -25.5t-4.5 -24.5q45 -5 75.5 -17t48.5 -29t24.5 -38.5t3.5 -43.5q-8 -49 -61 -81t-150 -30q-27 3 -40.5 18t-13.5 32t13 32t40 18h35t33.5 2t25.5 7.5t10 15.5
q0 7 -8 10t-20.5 4.5t-28.5 2.5t-32 3q-25 3 -36 16t-13 33t1.5 46t8.5 57z" />
    <glyph glyph-name="Egrave" unicode="&#xc8;" horiz-adv-x="483" 
d="M69 748q18 28 44.5 52.5t59 40.5t68 19t71.5 -13q13 10 28.5 14t29 0t23 -16.5t10.5 -36.5q8 -52 6.5 -94.5t-6.5 -72.5q-6 -20 -22.5 -29t-33.5 -8.5t-30.5 9.5t-12.5 24q4 22 1.5 45t-13 38.5t-29 19.5t-46.5 -11q-26 -14 -42.5 -36t-24 -48.5t-7 -56t8.5 -57.5
q7 -24 22 -39.5t34 -22.5t41 -6.5t44 7.5q16 8 28 3t19 -17t9 -28.5t-1 -31.5t-11.5 -27t-22.5 -15q-43 -5 -83 -19t-68 -39t-37.5 -62.5t8.5 -88.5q13 -37 49 -46.5t81 1.5q34 8 69 24.5t66 40t57 53t43 62.5q9 18 26.5 20.5t33 -5.5t24 -23.5t0.5 -32.5q-21 -41 -51.5 -77
t-68.5 -66t-81.5 -53.5t-90.5 -39.5q-44 -15 -87 -18t-79.5 11.5t-64.5 48.5t-42 93q-8 31 -8.5 70t8 76.5t26 70.5t46.5 54q-31 31 -48 72.5t-19.5 87.5t9 92.5t37.5 86.5zM145 1055q-14 20 -5.5 39t26 30t38.5 11.5t32 -15.5l107 -144q12 -17 2.5 -34.5t-26.5 -28.5
t-37 -13.5t-29 11.5z" />
    <glyph glyph-name="Eacute" unicode="&#xc9;" horiz-adv-x="483" 
d="M69 748q18 28 44.5 52.5t59 40.5t68 19t71.5 -13q13 10 28.5 14t29 0t23 -16.5t10.5 -36.5q8 -52 6.5 -94.5t-6.5 -72.5q-6 -20 -22.5 -29t-33.5 -8.5t-30.5 9.5t-12.5 24q4 22 1.5 45t-13 38.5t-29 19.5t-46.5 -11q-26 -14 -42.5 -36t-24 -48.5t-7 -56t8.5 -57.5
q7 -24 22 -39.5t34 -22.5t41 -6.5t44 7.5q16 8 28 3t19 -17t9 -28.5t-1 -31.5t-11.5 -27t-22.5 -15q-43 -5 -83 -19t-68 -39t-37.5 -62.5t8.5 -88.5q13 -37 49 -46.5t81 1.5q34 8 69 24.5t66 40t57 53t43 62.5q9 18 26.5 20.5t33 -5.5t24 -23.5t0.5 -32.5q-21 -41 -51.5 -77
t-68.5 -66t-81.5 -53.5t-90.5 -39.5q-44 -15 -87 -18t-79.5 11.5t-64.5 48.5t-42 93q-8 31 -8.5 70t8 76.5t26 70.5t46.5 54q-31 31 -48 72.5t-19.5 87.5t9 92.5t37.5 86.5zM226 890q-10 -15 -30.5 -12.5t-38 15t-26.5 31t4 36.5l117 154q12 18 33 17.5t39 -12t26 -31.5
t-7 -42z" />
    <glyph glyph-name="Ecircumflex" unicode="&#xca;" horiz-adv-x="483" 
d="M69 748q18 28 44.5 52.5t59 40.5t68 19t71.5 -13q13 10 28.5 14t29 0t23 -16.5t10.5 -36.5q8 -52 6.5 -94.5t-6.5 -72.5q-6 -20 -22.5 -29t-33.5 -8.5t-30.5 9.5t-12.5 24q4 22 1.5 45t-13 38.5t-29 19.5t-46.5 -11q-26 -14 -42.5 -36t-24 -48.5t-7 -56t8.5 -57.5
q7 -24 22 -39.5t34 -22.5t41 -6.5t44 7.5q16 8 28 3t19 -17t9 -28.5t-1 -31.5t-11.5 -27t-22.5 -15q-43 -5 -83 -19t-68 -39t-37.5 -62.5t8.5 -88.5q13 -37 49 -46.5t81 1.5q34 8 69 24.5t66 40t57 53t43 62.5q9 18 26.5 20.5t33 -5.5t24 -23.5t0.5 -32.5q-21 -41 -51.5 -77
t-68.5 -66t-81.5 -53.5t-90.5 -39.5q-44 -15 -87 -18t-79.5 11.5t-64.5 48.5t-42 93q-8 31 -8.5 70t8 76.5t26 70.5t46.5 54q-31 31 -48 72.5t-19.5 87.5t9 92.5t37.5 86.5zM242 990l-56 -75q-9 -14 -28.5 -11.5t-37 13.5t-26.5 28t3 33l89 121q14 19 30 26.5t31.5 6
t28.5 -10t22 -20.5l88 -121q12 -17 3 -33.5t-26.5 -28t-36.5 -13.5t-28 11z" />
    <glyph glyph-name="Edieresis" unicode="&#xcb;" horiz-adv-x="483" 
d="M69 748q18 28 44.5 52.5t59 40.5t68 19t71.5 -13q13 10 28.5 14t29 0t23 -16.5t10.5 -36.5q8 -52 6.5 -94.5t-6.5 -72.5q-6 -20 -22.5 -29t-33.5 -8.5t-30.5 9.5t-12.5 24q4 22 1.5 45t-13 38.5t-29 19.5t-46.5 -11q-26 -14 -42.5 -36t-24 -48.5t-7 -56t8.5 -57.5
q7 -24 22 -39.5t34 -22.5t41 -6.5t44 7.5q16 8 28 3t19 -17t9 -28.5t-1 -31.5t-11.5 -27t-22.5 -15q-43 -5 -83 -19t-68 -39t-37.5 -62.5t8.5 -88.5q13 -37 49 -46.5t81 1.5q34 8 69 24.5t66 40t57 53t43 62.5q9 18 26.5 20.5t33 -5.5t24 -23.5t0.5 -32.5q-21 -41 -51.5 -77
t-68.5 -66t-81.5 -53.5t-90.5 -39.5q-44 -15 -87 -18t-79.5 11.5t-64.5 48.5t-42 93q-8 31 -8.5 70t8 76.5t26 70.5t46.5 54q-31 31 -48 72.5t-19.5 87.5t9 92.5t37.5 86.5zM121 906q-17 17 -20.5 34.5t3 33t20 26.5t30.5 14t35 -3.5t33 -26.5q12 -21 4 -42.5t-25.5 -35
t-40 -15.5t-39.5 15zM298 912q-17 17 -20.5 34.5t3 33t20 26.5t30.5 14t35 -3.5t33 -26.5q12 -21 4 -42.5t-25.5 -35t-40 -15.5t-39.5 15z" />
    <glyph glyph-name="Igrave" unicode="&#xcc;" horiz-adv-x="727" 
d="M747 292q11 17 28.5 18t32 -9.5t21.5 -29t-3 -39.5q-23 -51 -69 -102.5t-105 -86.5t-125 -44t-130 25q-86 -22 -153 -6t-114.5 59.5t-76.5 109t-39 142.5q-3 21 2 42t17 37t32 24.5t48 5.5l83 -15q24 -6 32.5 -25t5 -39t-16.5 -35.5t-33 -14.5q-14 0 -32 1.5t-26 1.5
q2 -38 18.5 -75.5t43 -66t61 -44t72.5 -8.5q-18 36 -29 79t-15.5 90.5t-3 97t9.5 99.5q12 80 38.5 153.5t66.5 127t91.5 80.5t114.5 15q47 -9 74.5 -41t39.5 -79t10 -105t-14 -120t-32.5 -123t-46 -114.5t-54 -95.5t-56.5 -64q39 -3 74 14t64.5 43.5t53 58t40.5 58.5z
M565 751q-25 5 -48 -10.5t-43 -46t-36 -73t-27.5 -90.5t-18 -99.5t-6 -99.5t8.5 -89.5t24 -71.5q55 63 91 129.5t56 130t27 120.5t4.5 100.5t-11.5 70t-21 29.5zM537 1031q-14 20 -5.5 39t26 30t38.5 11.5t32 -15.5l107 -144q12 -17 2.5 -34.5t-26.5 -28.5t-37 -13.5
t-29 11.5z" />
    <glyph glyph-name="Iacute" unicode="&#xcd;" horiz-adv-x="727" 
d="M747 292q11 17 28.5 18t32 -9.5t21.5 -29t-3 -39.5q-23 -51 -69 -102.5t-105 -86.5t-125 -44t-130 25q-86 -22 -153 -6t-114.5 59.5t-76.5 109t-39 142.5q-3 21 2 42t17 37t32 24.5t48 5.5l83 -15q24 -6 32.5 -25t5 -39t-16.5 -35.5t-33 -14.5q-14 0 -32 1.5t-26 1.5
q2 -38 18.5 -75.5t43 -66t61 -44t72.5 -8.5q-18 36 -29 79t-15.5 90.5t-3 97t9.5 99.5q12 80 38.5 153.5t66.5 127t91.5 80.5t114.5 15q47 -9 74.5 -41t39.5 -79t10 -105t-14 -120t-32.5 -123t-46 -114.5t-54 -95.5t-56.5 -64q39 -3 74 14t64.5 43.5t53 58t40.5 58.5z
M565 751q-25 5 -48 -10.5t-43 -46t-36 -73t-27.5 -90.5t-18 -99.5t-6 -99.5t8.5 -89.5t24 -71.5q55 63 91 129.5t56 130t27 120.5t4.5 100.5t-11.5 70t-21 29.5zM498 914q-10 -15 -30.5 -12.5t-38 15t-26.5 31t4 36.5l117 154q12 18 33 17.5t39 -12t26 -31.5t-7 -42z" />
    <glyph glyph-name="Icircumflex" unicode="&#xce;" horiz-adv-x="727" 
d="M747 292q11 17 28.5 18t32 -9.5t21.5 -29t-3 -39.5q-23 -51 -69 -102.5t-105 -86.5t-125 -44t-130 25q-86 -22 -153 -6t-114.5 59.5t-76.5 109t-39 142.5q-3 21 2 42t17 37t32 24.5t48 5.5l83 -15q24 -6 32.5 -25t5 -39t-16.5 -35.5t-33 -14.5q-14 0 -32 1.5t-26 1.5
q2 -38 18.5 -75.5t43 -66t61 -44t72.5 -8.5q-18 36 -29 79t-15.5 90.5t-3 97t9.5 99.5q12 80 38.5 153.5t66.5 127t91.5 80.5t114.5 15q47 -9 74.5 -41t39.5 -79t10 -105t-14 -120t-32.5 -123t-46 -114.5t-54 -95.5t-56.5 -64q39 -3 74 14t64.5 43.5t53 58t40.5 58.5z
M565 751q-25 5 -48 -10.5t-43 -46t-36 -73t-27.5 -90.5t-18 -99.5t-6 -99.5t8.5 -89.5t24 -71.5q55 63 91 129.5t56 130t27 120.5t4.5 100.5t-11.5 70t-21 29.5zM582 975l-56 -75q-9 -14 -28.5 -11.5t-37 13.5t-26.5 28t3 33l89 121q14 19 30 26.5t31.5 6t28.5 -10t22 -20.5
l88 -121q12 -17 3 -33.5t-26.5 -28t-36.5 -13.5t-28 11z" />
    <glyph glyph-name="Idieresis" unicode="&#xcf;" horiz-adv-x="727" 
d="M747 292q11 17 28.5 18t32 -9.5t21.5 -29t-3 -39.5q-23 -51 -69 -102.5t-105 -86.5t-125 -44t-130 25q-86 -22 -153 -6t-114.5 59.5t-76.5 109t-39 142.5q-3 21 2 42t17 37t32 24.5t48 5.5l83 -15q24 -6 32.5 -25t5 -39t-16.5 -35.5t-33 -14.5q-14 0 -32 1.5t-26 1.5
q2 -38 18.5 -75.5t43 -66t61 -44t72.5 -8.5q-18 36 -29 79t-15.5 90.5t-3 97t9.5 99.5q12 80 38.5 153.5t66.5 127t91.5 80.5t114.5 15q47 -9 74.5 -41t39.5 -79t10 -105t-14 -120t-32.5 -123t-46 -114.5t-54 -95.5t-56.5 -64q39 -3 74 14t64.5 43.5t53 58t40.5 58.5z
M565 751q-25 5 -48 -10.5t-43 -46t-36 -73t-27.5 -90.5t-18 -99.5t-6 -99.5t8.5 -89.5t24 -71.5q55 63 91 129.5t56 130t27 120.5t4.5 100.5t-11.5 70t-21 29.5zM460 920q-17 17 -20.5 34.5t3 33t20 26.5t30.5 14t35 -3.5t33 -26.5q12 -21 4 -42.5t-25.5 -35t-40 -15.5
t-39.5 15zM637 926q-17 17 -20.5 34.5t3 33t20 26.5t30.5 14t35 -3.5t33 -26.5q12 -21 4 -42.5t-25.5 -35t-40 -15.5t-39.5 15z" />
    <glyph glyph-name="Eth" unicode="&#xd0;" horiz-adv-x="814" 
d="M241 651q-37 -16 -64 -21.5t-48 -5t-39 4t-36 5.5q-23 7 -31.5 25.5t-5.5 37.5t16.5 32t34.5 10q31 -9 63 -9.5t60.5 12.5t51 42.5t33.5 79.5q12 22 27.5 32t31 9t29.5 -13t22 -36v-15q61 -8 118.5 -48.5t103.5 -103t76.5 -141t39.5 -163t-8 -170t-67 -161.5
q29 1 59.5 29t57.5 67t47.5 79t28.5 65q4 12 20 13t32 -6.5t26 -22.5t2 -36q-17 -33 -36.5 -72.5t-43.5 -77t-53 -70t-63.5 -52t-76 -23t-90.5 16.5q-27 -13 -61 -18q-35 -3 -71 4.5t-70 23t-64 38t-53 48.5l-22 -73q-6 -19 -24.5 -21t-37.5 6.5t-32.5 25.5t-9.5 36z
M372 722q-12 -51 -23 -107.5t-21.5 -112.5t-20.5 -108t-19 -94q42 18 82 9t76 -34t67 -60t55 -69q18 33 26 83t4 108t-20 118.5t-44 114t-68.5 94t-93.5 58.5zM315 186q4 -20 22 -41t42 -38.5t50.5 -29t47.5 -10.5q-17 26 -35.5 51.5t-38.5 43.5t-42 25.5t-46 -1.5zM116 394
q-18 0 -28 18.5t-11 41t8.5 41.5t31.5 19l305 5q21 0 33.5 -18.5t13.5 -41t-10.5 -41.5t-37.5 -19z" />
    <glyph glyph-name="Ntilde" unicode="&#xd1;" horiz-adv-x="761" 
d="M62 637q-20 6 -28 26.5t-4 40t20 31.5t43 2q45 -9 73.5 -1t46.5 27.5t28.5 45.5t19.5 53q8 22 30 27.5t43.5 -1.5t35 -24.5t4.5 -40.5q-3 -9 -3.5 -18.5t-5.5 -22.5q32 26 79 48.5t96 27.5q54 5 88 -13t52.5 -51.5t23.5 -80t1 -99t-14.5 -108.5t-23.5 -108.5t-26 -98
t-22 -78.5q-13 -48 -16.5 -81t10.5 -43q8 -6 23 1t32 22.5t35 37t33.5 45.5t26.5 48t15 44q9 17 25 17.5t29.5 -11t20.5 -32t-2 -44.5q-9 -26 -24 -58t-35.5 -63t-46 -58.5t-55 -46t-62.5 -24.5t-68 6q-31 10 -50.5 33t-28.5 54t-8 69t10 79q9 39 24.5 93.5t31 112.5t28 115
t15 101.5t-8.5 72t-41 26.5q-24 -1 -52.5 -13.5t-56.5 -32.5t-51.5 -44t-37.5 -48q-4 -28 -11 -72t-16 -96.5t-19.5 -109.5t-21 -112.5t-21 -104.5t-19.5 -85q-7 -26 -29.5 -32t-45.5 1t-38.5 23.5t-9.5 34.5v1q9 32 23 93.5t30 142t31.5 173.5t27.5 188q-17 -11 -41 -15
t-47.5 -3.5t-42 4t-22.5 7.5zM734 1051q-21 -45 -48.5 -75t-58.5 -41.5t-64 -3.5t-64 38q-24 24 -42.5 33.5t-33.5 6.5t-29 -18.5t-30 -40.5q-10 -15 -28 -17t-33 5.5t-22.5 23t3.5 34.5q23 40 48 69.5t53.5 41.5t62 2.5t73.5 -48.5q27 -26 48 -32.5t37 1t27.5 25.5t20.5 42
q6 17 23 19.5t32.5 -5.5t24.5 -24t0 -36z" />
    <glyph glyph-name="Ograve" unicode="&#xd2;" horiz-adv-x="619" 
d="M216 822q43 35 97.5 42t106 -14t91.5 -71t55 -129q15 12 31 0t22.5 -34.5t-1 -50t-37.5 -47.5q0 -122 -23.5 -219t-66.5 -163.5t-104.5 -101t-138.5 -31.5q-50 2 -94.5 29t-76.5 75t-48.5 113.5t-9.5 143.5q6 69 25 139t46.5 131.5t60 110.5t65.5 77zM469 480
q-41 -8 -80.5 4.5t-72.5 38t-57 60t-33 70.5q-15 -20 -28.5 -53.5t-24.5 -73.5t-19 -83.5t-11 -82.5q-4 -51 4.5 -92.5t25.5 -71.5t40.5 -48t49.5 -22q34 -5 62.5 8t51.5 39.5t40 63t28.5 77.5t17.5 84t6 82zM309 761q-5 -26 3 -58.5t27.5 -60t51 -42.5t73.5 -4
q0 33 -13.5 69t-36 63t-50.5 38.5t-55 -5.5zM329 1026q-14 20 -5.5 39t26 30t38.5 11.5t32 -15.5l107 -144q12 -17 2.5 -34.5t-26.5 -28.5t-37 -13.5t-29 11.5z" />
    <glyph glyph-name="Oacute" unicode="&#xd3;" horiz-adv-x="619" 
d="M216 822q43 35 97.5 42t106 -14t91.5 -71t55 -129q15 12 31 0t22.5 -34.5t-1 -50t-37.5 -47.5q0 -122 -23.5 -219t-66.5 -163.5t-104.5 -101t-138.5 -31.5q-50 2 -94.5 29t-76.5 75t-48.5 113.5t-9.5 143.5q6 69 25 139t46.5 131.5t60 110.5t65.5 77zM469 480
q-41 -8 -80.5 4.5t-72.5 38t-57 60t-33 70.5q-15 -20 -28.5 -53.5t-24.5 -73.5t-19 -83.5t-11 -82.5q-4 -51 4.5 -92.5t25.5 -71.5t40.5 -48t49.5 -22q34 -5 62.5 8t51.5 39.5t40 63t28.5 77.5t17.5 84t6 82zM309 761q-5 -26 3 -58.5t27.5 -60t51 -42.5t73.5 -4
q0 33 -13.5 69t-36 63t-50.5 38.5t-55 -5.5zM294 890q-10 -15 -30.5 -12.5t-38 15t-26.5 31t4 36.5l117 154q12 18 33 17.5t39 -12t26 -31.5t-7 -42z" />
    <glyph glyph-name="Ocircumflex" unicode="&#xd4;" horiz-adv-x="619" 
d="M216 822q43 35 97.5 42t106 -14t91.5 -71t55 -129q15 12 31 0t22.5 -34.5t-1 -50t-37.5 -47.5q0 -122 -23.5 -219t-66.5 -163.5t-104.5 -101t-138.5 -31.5q-50 2 -94.5 29t-76.5 75t-48.5 113.5t-9.5 143.5q6 69 25 139t46.5 131.5t60 110.5t65.5 77zM469 480
q-41 -8 -80.5 4.5t-72.5 38t-57 60t-33 70.5q-15 -20 -28.5 -53.5t-24.5 -73.5t-19 -83.5t-11 -82.5q-4 -51 4.5 -92.5t25.5 -71.5t40.5 -48t49.5 -22q34 -5 62.5 8t51.5 39.5t40 63t28.5 77.5t17.5 84t6 82zM309 761q-5 -26 3 -58.5t27.5 -60t51 -42.5t73.5 -4
q0 33 -13.5 69t-36 63t-50.5 38.5t-55 -5.5zM373 976l-56 -75q-9 -14 -28.5 -11.5t-37 13.5t-26.5 28t3 33l89 121q14 19 30 26.5t31.5 6t28.5 -10t22 -20.5l88 -121q12 -17 3 -33.5t-26.5 -28t-36.5 -13.5t-28 11z" />
    <glyph glyph-name="Otilde" unicode="&#xd5;" horiz-adv-x="609" 
d="M216 822q43 35 97.5 42t106 -14t91.5 -71t55 -129q15 12 31 0t22.5 -34.5t-1 -50t-37.5 -47.5q0 -122 -23.5 -219t-66.5 -163.5t-104.5 -101t-138.5 -31.5q-50 2 -94.5 29t-76.5 75t-48.5 113.5t-9.5 143.5q6 69 25 139t46.5 131.5t60 110.5t65.5 77zM469 480
q-41 -8 -80.5 4.5t-72.5 38t-57 60t-33 70.5q-15 -20 -28.5 -53.5t-24.5 -73.5t-19 -83.5t-11 -82.5q-4 -51 4.5 -92.5t25.5 -71.5t40.5 -48t49.5 -22q34 -5 62.5 8t51.5 39.5t40 63t28.5 77.5t17.5 84t6 82zM309 761q-5 -26 3 -58.5t27.5 -60t51 -42.5t73.5 -4
q0 33 -13.5 69t-36 63t-50.5 38.5t-55 -5.5zM532 1007q-21 -45 -48.5 -75t-58.5 -41.5t-64 -3.5t-64 38q-24 24 -42.5 33.5t-33.5 6.5t-29 -18.5t-30 -40.5q-10 -15 -28 -17t-33 5.5t-22.5 23t3.5 34.5q23 40 48 69.5t53.5 41.5t62 2.5t73.5 -48.5q27 -26 48 -32.5t37 1
t27.5 25.5t20.5 42q6 17 23 19.5t32.5 -5.5t24.5 -24t0 -36z" />
    <glyph glyph-name="Odieresis" unicode="&#xd6;" horiz-adv-x="619" 
d="M216 822q43 35 97.5 42t106 -14t91.5 -71t55 -129q15 12 31 0t22.5 -34.5t-1 -50t-37.5 -47.5q0 -122 -23.5 -219t-66.5 -163.5t-104.5 -101t-138.5 -31.5q-50 2 -94.5 29t-76.5 75t-48.5 113.5t-9.5 143.5q6 69 25 139t46.5 131.5t60 110.5t65.5 77zM469 480
q-41 -8 -80.5 4.5t-72.5 38t-57 60t-33 70.5q-15 -20 -28.5 -53.5t-24.5 -73.5t-19 -83.5t-11 -82.5q-4 -51 4.5 -92.5t25.5 -71.5t40.5 -48t49.5 -22q34 -5 62.5 8t51.5 39.5t40 63t28.5 77.5t17.5 84t6 82zM309 761q-5 -26 3 -58.5t27.5 -60t51 -42.5t73.5 -4
q0 33 -13.5 69t-36 63t-50.5 38.5t-55 -5.5zM238 915q-17 17 -20.5 34.5t3 33t20 26.5t30.5 14t35 -3.5t33 -26.5q12 -21 4 -42.5t-25.5 -35t-40 -15.5t-39.5 15zM415 921q-17 17 -20.5 34.5t3 33t20 26.5t30.5 14t35 -3.5t33 -26.5q12 -21 4 -42.5t-25.5 -35t-40 -15.5
t-39.5 15z" />
    <glyph glyph-name="Oslash" unicode="&#xd8;" horiz-adv-x="609" 
d="M216 822q41 33 92 41t101 -9l26 64q15 15 34.5 12t35 -14.5t23 -28t-1.5 -29.5l-26 -67q23 -26 40.5 -61t25.5 -80q15 12 31 0t22.5 -34.5t-1 -50t-37.5 -47.5q0 -122 -23.5 -219t-66.5 -163.5t-104.5 -101t-138.5 -31.5q-13 0 -25.5 2.5t-24.5 6.5l-17 -45
q-17 -10 -36.5 -9t-35 10.5t-24.5 25.5t-4 37l18 47q-42 48 -65 121t-15 165q6 69 25 139t46.5 131.5t60 110.5t65.5 77zM469 480q-23 -5 -44.5 -3t-42.5 9l-138 -356q7 -2 19 -4q34 -5 62.5 8t51.5 39.5t40 63t28.5 77.5t17.5 84t6 82zM143 360q-3 -40 1 -73.5t14 -60.5
l129 322q-23 23 -38.5 50t-22.5 55q-15 -20 -28.5 -53.5t-24.5 -73.5t-19 -83.5t-11 -82.5zM309 761q-4 -23 1.5 -50.5t19.5 -53.5l43 106q-34 16 -64 -2zM464 596q0 31 -13 68l-28 -72q20 -2 41 4z" />
    <glyph glyph-name="Ugrave" unicode="&#xd9;" horiz-adv-x="621" 
d="M82 834q7 15 21 23t29.5 10t31 -2.5t27 -15t15.5 -27t-3 -39.5q-8 -23 -21.5 -78t-25 -125t-18.5 -146t-2.5 -140.5t23 -108t57.5 -49.5q24 -3 47 13.5t43 44.5t37 63t30.5 69t22.5 62.5t13 43.5l79 391q3 24 23.5 32.5t44 4.5t41 -19t14.5 -39q-2 -10 -9.5 -44.5
t-18.5 -84.5t-23.5 -110.5t-24 -122.5t-20 -121t-11.5 -106.5t1.5 -78.5t18.5 -36q15 -6 31.5 8t33 40t31.5 60.5t28 70.5q4 16 21.5 23t35.5 4.5t30 -16t5 -37.5q-6 -26 -18.5 -58.5t-30 -66t-40 -64t-48 -52.5t-55 -33t-60.5 -4q-23 5 -38.5 19.5t-26 34.5t-17 43.5
t-10.5 45.5q-16 -20 -36.5 -39.5t-45 -35t-52 -24t-57.5 -4.5q-54 7 -90.5 39t-59 81.5t-32.5 111.5t-10.5 129.5t6 136t17 130t23 112t23.5 81.5zM214 1055q-14 20 -5.5 39t26 30t38.5 11.5t32 -15.5l107 -144q12 -17 2.5 -34.5t-26.5 -28.5t-37 -13.5t-29 11.5z" />
    <glyph glyph-name="Uacute" unicode="&#xda;" horiz-adv-x="621" 
d="M82 834q7 15 21 23t29.5 10t31 -2.5t27 -15t15.5 -27t-3 -39.5q-8 -23 -21.5 -78t-25 -125t-18.5 -146t-2.5 -140.5t23 -108t57.5 -49.5q24 -3 47 13.5t43 44.5t37 63t30.5 69t22.5 62.5t13 43.5l79 391q3 24 23.5 32.5t44 4.5t41 -19t14.5 -39q-2 -10 -9.5 -44.5
t-18.5 -84.5t-23.5 -110.5t-24 -122.5t-20 -121t-11.5 -106.5t1.5 -78.5t18.5 -36q15 -6 31.5 8t33 40t31.5 60.5t28 70.5q4 16 21.5 23t35.5 4.5t30 -16t5 -37.5q-6 -26 -18.5 -58.5t-30 -66t-40 -64t-48 -52.5t-55 -33t-60.5 -4q-23 5 -38.5 19.5t-26 34.5t-17 43.5
t-10.5 45.5q-16 -20 -36.5 -39.5t-45 -35t-52 -24t-57.5 -4.5q-54 7 -90.5 39t-59 81.5t-32.5 111.5t-10.5 129.5t6 136t17 130t23 112t23.5 81.5zM377 909q-10 -15 -30.5 -12.5t-38 15t-26.5 31t4 36.5l117 154q12 18 33 17.5t39 -12t26 -31.5t-7 -42z" />
    <glyph glyph-name="Ucircumflex" unicode="&#xdb;" horiz-adv-x="621" 
d="M82 834q7 15 21 23t29.5 10t31 -2.5t27 -15t15.5 -27t-3 -39.5q-8 -23 -21.5 -78t-25 -125t-18.5 -146t-2.5 -140.5t23 -108t57.5 -49.5q24 -3 47 13.5t43 44.5t37 63t30.5 69t22.5 62.5t13 43.5l79 391q3 24 23.5 32.5t44 4.5t41 -19t14.5 -39q-2 -10 -9.5 -44.5
t-18.5 -84.5t-23.5 -110.5t-24 -122.5t-20 -121t-11.5 -106.5t1.5 -78.5t18.5 -36q15 -6 31.5 8t33 40t31.5 60.5t28 70.5q4 16 21.5 23t35.5 4.5t30 -16t5 -37.5q-6 -26 -18.5 -58.5t-30 -66t-40 -64t-48 -52.5t-55 -33t-60.5 -4q-23 5 -38.5 19.5t-26 34.5t-17 43.5
t-10.5 45.5q-16 -20 -36.5 -39.5t-45 -35t-52 -24t-57.5 -4.5q-54 7 -90.5 39t-59 81.5t-32.5 111.5t-10.5 129.5t6 136t17 130t23 112t23.5 81.5zM360 980l-56 -75q-9 -14 -28.5 -11.5t-37 13.5t-26.5 28t3 33l89 121q14 19 30 26.5t31.5 6t28.5 -10t22 -20.5l88 -121
q12 -17 3 -33.5t-26.5 -28t-36.5 -13.5t-28 11z" />
    <glyph glyph-name="Udieresis" unicode="&#xdc;" horiz-adv-x="621" 
d="M82 834q7 15 21 23t29.5 10t31 -2.5t27 -15t15.5 -27t-3 -39.5q-8 -23 -21.5 -78t-25 -125t-18.5 -146t-2.5 -140.5t23 -108t57.5 -49.5q24 -3 47 13.5t43 44.5t37 63t30.5 69t22.5 62.5t13 43.5l79 391q3 24 23.5 32.5t44 4.5t41 -19t14.5 -39q-2 -10 -9.5 -44.5
t-18.5 -84.5t-23.5 -110.5t-24 -122.5t-20 -121t-11.5 -106.5t1.5 -78.5t18.5 -36q15 -6 31.5 8t33 40t31.5 60.5t28 70.5q4 16 21.5 23t35.5 4.5t30 -16t5 -37.5q-6 -26 -18.5 -58.5t-30 -66t-40 -64t-48 -52.5t-55 -33t-60.5 -4q-23 5 -38.5 19.5t-26 34.5t-17 43.5
t-10.5 45.5q-16 -20 -36.5 -39.5t-45 -35t-52 -24t-57.5 -4.5q-54 7 -90.5 39t-59 81.5t-32.5 111.5t-10.5 129.5t6 136t17 130t23 112t23.5 81.5zM219 911q-17 17 -20.5 34.5t3 33t20 26.5t30.5 14t35 -3.5t33 -26.5q12 -21 4 -42.5t-25.5 -35t-40 -15.5t-39.5 15zM396 917
q-17 17 -20.5 34.5t3 33t20 26.5t30.5 14t35 -3.5t33 -26.5q12 -21 4 -42.5t-25.5 -35t-40 -15.5t-39.5 15z" />
    <glyph glyph-name="Yacute" unicode="&#xdd;" horiz-adv-x="725" 
d="M135 836q9 24 34 30t49 -2t38.5 -28.5t2.5 -50.5q-15 -37 -34 -98.5t-35.5 -131.5t-28.5 -142t-13.5 -130.5t10.5 -97t43 -41.5t65.5 23.5t69.5 74.5t69 114.5t66 143.5t59.5 159.5t49.5 164.5q1 18 11.5 28t25 13.5t31 0t29.5 -12.5t19.5 -23t2.5 -31
q-27 -104 -55.5 -196t-52.5 -180.5t-40 -176.5t-18 -184q8 3 25 17.5t38 36t43.5 46.5t43 49.5t36.5 44.5t23 32q15 16 31 12.5t27.5 -17t16 -32t-4.5 -31.5q-28 -42 -61 -84t-69.5 -80.5t-75.5 -71t-79 -56.5q2 -46 -7.5 -99.5t-29 -104t-48.5 -94.5t-65.5 -71.5t-80.5 -34
t-94 16.5q-42 19 -59 56t-13 82t26.5 95t59.5 95.5t86 82.5t106 58q3 44 8 81.5t12 82.5q-29 -39 -59.5 -72t-63 -54.5t-66 -30.5t-67.5 0q-58 14 -92 51.5t-50 90.5t-17.5 117t7.5 131.5t24.5 134t32.5 124t33 102t25 68.5zM256 -358q14 -10 30.5 -1.5t33.5 28.5t33 48.5
t28.5 58.5t20 58t8.5 48q-42 -15 -77.5 -50t-58.5 -73.5t-29 -71.5t11 -45zM444 885q-10 -15 -30.5 -12.5t-38 15t-26.5 31t4 36.5l117 154q12 18 33 17.5t39 -12t26 -31.5t-7 -42z" />
    <glyph glyph-name="Thorn" unicode="&#xde;" horiz-adv-x="650" 
d="M45 698q4 25 24 33.5t41.5 5.5t38.5 -16t15 -32l-17 -279q11 34 38.5 69t63.5 60t78 34.5t83 -8.5q49 -22 76.5 -72t36.5 -112t1 -128t-29 -118q42 21 84 59.5t88 109.5q13 12 24.5 3.5t17.5 -27t4 -42t-17 -41.5q-24 -44 -62.5 -83t-87 -68.5t-103 -49t-110.5 -25.5
t-109.5 2.5t-98.5 34.5q-9 -90 -15 -153.5t-10.5 -106.5t-7 -68t-3.5 -38.5t-1.5 -18t-0.5 -5.5h-1q-3 -12 -22.5 -20t-41.5 -8t-39 8.5t-15 29.5q3 24 7.5 82t10.5 137t12.5 171.5t13 186t12.5 181t10.5 156t7.5 111t3 45.5zM386 444q-20 18 -45 12.5t-51 -27t-50.5 -55.5
t-43 -72t-29 -76.5t-7.5 -69.5q8 -41 34.5 -60.5t59.5 -20.5t65.5 14t52.5 43q16 23 28.5 67t16.5 91.5t-2.5 90.5t-28.5 63z" />
    <glyph glyph-name="germandbls" unicode="&#xdf;" horiz-adv-x="628" 
d="M170 581q-20 -132 -31.5 -301.5t-24.5 -364.5q-3 -16 -22 -23.5t-39.5 -5t-35.5 15.5t-10 38q7 67 12 148.5t11 170t14.5 178.5t21.5 173q9 58 34.5 103t61.5 76t79.5 48t87.5 19q37 2 74 -7t68 -29.5t54.5 -52.5t34.5 -77q9 -38 5.5 -73t-15 -65t-28 -52.5t-32.5 -35.5
q37 -12 64 -38.5t43 -61.5t20 -76t-5 -82q-11 -51 -52.5 -92t-99.5 -69t-125.5 -39.5t-128.5 -3.5q-18 2 -23 18t-1 34t15 32t26 12q47 -6 98.5 5t93.5 36.5t67.5 64t22.5 88.5q-3 37 -28 57.5t-62.5 29t-81.5 6.5t-84 -10q-21 -6 -31.5 10t-10.5 37.5t11.5 41t35.5 19.5
q30 3 62.5 10.5t60 21.5t46.5 36.5t24 55.5q4 30 -5 54t-27 40.5t-42.5 24.5t-51.5 6q-26 -2 -50.5 -12.5t-45 -30t-35.5 -46.5t-20 -62z" />
    <glyph glyph-name="agrave" unicode="&#xe0;" horiz-adv-x="608" 
d="M165 9q-61 0 -96.5 34t-49.5 87.5t-8.5 118.5t27.5 127.5t57.5 115.5t81.5 81t100.5 24t113.5 -55q6 18 26 21.5t39.5 -4t32.5 -25t5 -42.5q-7 -28 -18 -68.5t-21.5 -84.5t-18 -88.5t-7 -80t10.5 -59t35 -25.5q30 -2 56.5 20.5t47 56.5t34.5 72t18 66q7 26 23.5 30.5
t32 -3.5t25 -24.5t2.5 -31.5q-7 -40 -28 -91.5t-53.5 -98t-73.5 -78.5t-88 -32q-21 0 -43.5 7.5t-43 23.5t-36.5 41t-23 61q-9 -11 -25 -27.5t-37 -31.5t-46 -26t-52 -11zM164 134q32 -3 56.5 15t43.5 48.5t32 68.5t21.5 73.5t13.5 65t7 42.5q-32 27 -60 28t-51.5 -15.5
t-41.5 -46.5t-30.5 -65.5t-18.5 -72.5t-5.5 -68t9 -51t24.5 -22zM207 790q-14 20 -5.5 39t26 30t38.5 11.5t32 -15.5l107 -144q12 -17 2.5 -34.5t-26.5 -28.5t-37 -13.5t-29 11.5z" />
    <glyph glyph-name="aacute" unicode="&#xe1;" horiz-adv-x="608" 
d="M165 9q-61 0 -96.5 34t-49.5 87.5t-8.5 118.5t27.5 127.5t57.5 115.5t81.5 81t100.5 24t113.5 -55q6 18 26 21.5t39.5 -4t32.5 -25t5 -42.5q-7 -28 -18 -68.5t-21.5 -84.5t-18 -88.5t-7 -80t10.5 -59t35 -25.5q30 -2 56.5 20.5t47 56.5t34.5 72t18 66q7 26 23.5 30.5
t32 -3.5t25 -24.5t2.5 -31.5q-7 -40 -28 -91.5t-53.5 -98t-73.5 -78.5t-88 -32q-21 0 -43.5 7.5t-43 23.5t-36.5 41t-23 61q-9 -11 -25 -27.5t-37 -31.5t-46 -26t-52 -11zM164 134q32 -3 56.5 15t43.5 48.5t32 68.5t21.5 73.5t13.5 65t7 42.5q-32 27 -60 28t-51.5 -15.5
t-41.5 -46.5t-30.5 -65.5t-18.5 -72.5t-5.5 -68t9 -51t24.5 -22zM307 654q-10 -15 -30.5 -12.5t-38 15t-26.5 31t4 36.5l117 154q12 18 33 17.5t39 -12t26 -31.5t-7 -42z" />
    <glyph glyph-name="acircumflex" unicode="&#xe2;" horiz-adv-x="608" 
d="M165 9q-61 0 -96.5 34t-49.5 87.5t-8.5 118.5t27.5 127.5t57.5 115.5t81.5 81t100.5 24t113.5 -55q6 18 26 21.5t39.5 -4t32.5 -25t5 -42.5q-7 -28 -18 -68.5t-21.5 -84.5t-18 -88.5t-7 -80t10.5 -59t35 -25.5q30 -2 56.5 20.5t47 56.5t34.5 72t18 66q7 26 23.5 30.5
t32 -3.5t25 -24.5t2.5 -31.5q-7 -40 -28 -91.5t-53.5 -98t-73.5 -78.5t-88 -32q-21 0 -43.5 7.5t-43 23.5t-36.5 41t-23 61q-9 -11 -25 -27.5t-37 -31.5t-46 -26t-52 -11zM164 134q32 -3 56.5 15t43.5 48.5t32 68.5t21.5 73.5t13.5 65t7 42.5q-32 27 -60 28t-51.5 -15.5
t-41.5 -46.5t-30.5 -65.5t-18.5 -72.5t-5.5 -68t9 -51t24.5 -22zM304 696l-56 -75q-9 -14 -28.5 -11.5t-37 13.5t-26.5 28t3 33l89 121q14 19 30 26.5t31.5 6t28.5 -10t22 -20.5l88 -121q12 -17 3 -33.5t-26.5 -28t-36.5 -13.5t-28 11z" />
    <glyph glyph-name="atilde" unicode="&#xe3;" horiz-adv-x="608" 
d="M165 9q-61 0 -96.5 34t-49.5 87.5t-8.5 118.5t27.5 127.5t57.5 115.5t81.5 81t100.5 24t113.5 -55q6 18 26 21.5t39.5 -4t32.5 -25t5 -42.5q-7 -28 -18 -68.5t-21.5 -84.5t-18 -88.5t-7 -80t10.5 -59t35 -25.5q30 -2 56.5 20.5t47 56.5t34.5 72t18 66q7 26 23.5 30.5
t32 -3.5t25 -24.5t2.5 -31.5q-7 -40 -28 -91.5t-53.5 -98t-73.5 -78.5t-88 -32q-21 0 -43.5 7.5t-43 23.5t-36.5 41t-23 61q-9 -11 -25 -27.5t-37 -31.5t-46 -26t-52 -11zM164 134q32 -3 56.5 15t43.5 48.5t32 68.5t21.5 73.5t13.5 65t7 42.5q-32 27 -60 28t-51.5 -15.5
t-41.5 -46.5t-30.5 -65.5t-18.5 -72.5t-5.5 -68t9 -51t24.5 -22zM531 742q-21 -45 -48.5 -75t-58.5 -41.5t-64 -3.5t-64 38q-24 24 -42.5 33.5t-33.5 6.5t-29 -18.5t-30 -40.5q-10 -15 -28 -17t-33 5.5t-22.5 23t3.5 34.5q23 40 48 69.5t53.5 41.5t62 2.5t73.5 -48.5
q27 -26 48 -32.5t37 1t27.5 25.5t20.5 42q6 17 23 19.5t32.5 -5.5t24.5 -24t0 -36z" />
    <glyph glyph-name="adieresis" unicode="&#xe4;" horiz-adv-x="608" 
d="M165 9q-61 0 -96.5 34t-49.5 87.5t-8.5 118.5t27.5 127.5t57.5 115.5t81.5 81t100.5 24t113.5 -55q6 18 26 21.5t39.5 -4t32.5 -25t5 -42.5q-7 -28 -18 -68.5t-21.5 -84.5t-18 -88.5t-7 -80t10.5 -59t35 -25.5q30 -2 56.5 20.5t47 56.5t34.5 72t18 66q7 26 23.5 30.5
t32 -3.5t25 -24.5t2.5 -31.5q-7 -40 -28 -91.5t-53.5 -98t-73.5 -78.5t-88 -32q-21 0 -43.5 7.5t-43 23.5t-36.5 41t-23 61q-9 -11 -25 -27.5t-37 -31.5t-46 -26t-52 -11zM164 134q32 -3 56.5 15t43.5 48.5t32 68.5t21.5 73.5t13.5 65t7 42.5q-32 27 -60 28t-51.5 -15.5
t-41.5 -46.5t-30.5 -65.5t-18.5 -72.5t-5.5 -68t9 -51t24.5 -22zM184 641q-17 17 -20.5 34.5t3 33t20 26.5t30.5 14t35 -3.5t33 -26.5q12 -21 4 -42.5t-25.5 -35t-40 -15.5t-39.5 15zM361 647q-17 17 -20.5 34.5t3 33t20 26.5t30.5 14t35 -3.5t33 -26.5q12 -21 4 -42.5
t-25.5 -35t-40 -15.5t-39.5 15z" />
    <glyph glyph-name="aring" unicode="&#xe5;" horiz-adv-x="608" 
d="M165 9q-61 0 -96.5 34t-49.5 87.5t-8.5 118.5t27.5 127.5t57.5 115.5t81.5 81t100.5 24t113.5 -55q6 18 26 21.5t39.5 -4t32.5 -25t5 -42.5q-7 -28 -18 -68.5t-21.5 -84.5t-18 -88.5t-7 -80t10.5 -59t35 -25.5q30 -2 56.5 20.5t47 56.5t34.5 72t18 66q7 26 23.5 30.5
t32 -3.5t25 -24.5t2.5 -31.5q-7 -40 -28 -91.5t-53.5 -98t-73.5 -78.5t-88 -32q-21 0 -43.5 7.5t-43 23.5t-36.5 41t-23 61q-9 -11 -25 -27.5t-37 -31.5t-46 -26t-52 -11zM164 134q32 -3 56.5 15t43.5 48.5t32 68.5t21.5 73.5t13.5 65t7 42.5q-32 27 -60 28t-51.5 -15.5
t-41.5 -46.5t-30.5 -65.5t-18.5 -72.5t-5.5 -68t9 -51t24.5 -22zM243 740q-8 -19 5 -32.5t33.5 -18t40.5 2.5t26 28q3 17 -10 29t-31.5 16.5t-37 -1t-26.5 -24.5zM158 745q6 43 31.5 67.5t59.5 33t70.5 2t65 -26t44 -50.5t6.5 -72q-11 -37 -38 -58.5t-59.5 -28.5t-66.5 -1
t-61 23t-42.5 45.5t-9.5 65.5z" />
    <glyph glyph-name="ae" unicode="&#xe6;" horiz-adv-x="707" 
d="M655 471q-2 -50 -18 -100.5t-47 -91t-75.5 -65t-101.5 -20.5q1 -31 7 -60t19.5 -49.5t36.5 -29t58 2.5q35 10 67 33t57.5 53t43 63.5t25.5 65.5q4 17 19 21t31.5 -1t28 -17.5t7.5 -28.5q-22 -58 -43.5 -103t-47.5 -79.5t-58.5 -58.5t-76.5 -40q-92 -33 -161.5 -9
t-98.5 97q-15 -11 -36 -23t-44.5 -22t-48 -17.5t-47.5 -9.5q-60 -6 -93.5 26t-45.5 86t-4 122.5t32 136t61.5 126t85 92.5t102 36t113.5 -44q15 17 33 29.5t40 20.5q34 12 67 9t58.5 -21t40.5 -50.5t14 -79.5zM150 107q21 -2 43 5.5t42 22.5t38.5 35.5t32.5 44.5
q1 57 9.5 125t31.5 129q-31 21 -59.5 17.5t-53 -24.5t-45 -55t-35 -73t-23 -78.5t-9.5 -72t5.5 -53.5t22.5 -23zM529 497q-15 9 -28 1.5t-25 -25t-21 -41.5t-15 -49.5t-9 -48.5t-1 -37q46 9 73 38t37.5 62t7 62t-18.5 38z" />
    <glyph glyph-name="ccedilla" unicode="&#xe7;" horiz-adv-x="442" 
d="M341 383q-2 0 -3 1q-11 -24 -28.5 -35t-35.5 -8.5t-32.5 17.5t-19.5 42q0 13 3 32.5t4.5 38t-1.5 32t-16 15.5q-23 -13 -40 -43.5t-28 -69t-15.5 -81.5t-3 -82.5t10 -70.5t24.5 -45q20 -19 44 -23t50 1q22 4 50 15t56.5 32t55 54t46.5 83q7 15 24.5 18t34.5 -3.5
t27 -21.5t2 -37q-20 -47 -49.5 -84t-63.5 -65t-71 -48t-72 -33q-27 -10 -57 -15.5t-60.5 -2.5t-58.5 15.5t-50 39.5q-26 31 -40.5 77t-18.5 98t2.5 107t22 104.5t40 90t56.5 63.5q52 35 101.5 32.5t78.5 -44.5q23 -3 37 -23t8 -46zM122 19q3 18 18 26.5t31.5 7t30 -12
t13.5 -29.5q-1 -9 -4.5 -25.5t-4.5 -24.5q45 -5 75.5 -17t48.5 -29t24.5 -38.5t3.5 -43.5q-8 -49 -61 -81t-150 -30q-27 3 -40.5 18t-13.5 32t13 32t40 18h35t33.5 2t25.5 7.5t10 15.5q0 7 -8 10t-20.5 4.5t-28.5 2.5t-32 3q-25 3 -36 16t-13 33t1.5 46t8.5 57z" />
    <glyph glyph-name="egrave" unicode="&#xe8;" horiz-adv-x="403" 
d="M351 471q-2 -50 -18 -100.5t-47 -91t-75.5 -65t-101.5 -20.5q1 -31 7 -60t19.5 -49.5t36.5 -29t58 2.5q35 10 67 33t57.5 53t43 63.5t25.5 65.5q4 17 19 21t31.5 -1t28 -17.5t7.5 -28.5q-22 -58 -43.5 -103t-47.5 -79.5t-58.5 -58.5t-76.5 -40q-59 -21 -109 -18.5
t-87 26.5t-58.5 68t-24.5 107q-2 30 -1.5 72.5t5.5 89t16 94.5t30 89.5t47.5 73t69.5 45.5q34 12 67 9t58.5 -21t40.5 -50.5t14 -79.5zM225 497q-14 9 -27.5 1.5t-25.5 -25t-21 -41.5t-15 -49.5t-9 -48.5t-1 -37q46 9 73 38t37.5 62t7 62t-18.5 38zM124 810q-14 20 -5.5 39
t26 30t38.5 11.5t32 -15.5l107 -144q12 -17 2.5 -34.5t-26.5 -28.5t-37 -13.5t-29 11.5z" />
    <glyph glyph-name="eacute" unicode="&#xe9;" horiz-adv-x="403" 
d="M351 471q-2 -50 -18 -100.5t-47 -91t-75.5 -65t-101.5 -20.5q1 -31 7 -60t19.5 -49.5t36.5 -29t58 2.5q35 10 67 33t57.5 53t43 63.5t25.5 65.5q4 17 19 21t31.5 -1t28 -17.5t7.5 -28.5q-22 -58 -43.5 -103t-47.5 -79.5t-58.5 -58.5t-76.5 -40q-59 -21 -109 -18.5
t-87 26.5t-58.5 68t-24.5 107q-2 30 -1.5 72.5t5.5 89t16 94.5t30 89.5t47.5 73t69.5 45.5q34 12 67 9t58.5 -21t40.5 -50.5t14 -79.5zM225 497q-14 9 -27.5 1.5t-25.5 -25t-21 -41.5t-15 -49.5t-9 -48.5t-1 -37q46 9 73 38t37.5 62t7 62t-18.5 38zM215 659
q-10 -15 -30.5 -12.5t-38 15t-26.5 31t4 36.5l117 154q12 18 33 17.5t39 -12t26 -31.5t-7 -42z" />
    <glyph glyph-name="ecircumflex" unicode="&#xea;" horiz-adv-x="403" 
d="M351 471q-2 -50 -18 -100.5t-47 -91t-75.5 -65t-101.5 -20.5q1 -31 7 -60t19.5 -49.5t36.5 -29t58 2.5q35 10 67 33t57.5 53t43 63.5t25.5 65.5q4 17 19 21t31.5 -1t28 -17.5t7.5 -28.5q-22 -58 -43.5 -103t-47.5 -79.5t-58.5 -58.5t-76.5 -40q-59 -21 -109 -18.5
t-87 26.5t-58.5 68t-24.5 107q-2 30 -1.5 72.5t5.5 89t16 94.5t30 89.5t47.5 73t69.5 45.5q34 12 67 9t58.5 -21t40.5 -50.5t14 -79.5zM225 497q-14 9 -27.5 1.5t-25.5 -25t-21 -41.5t-15 -49.5t-9 -48.5t-1 -37q46 9 73 38t37.5 62t7 62t-18.5 38zM211 763l-56 -75
q-9 -14 -28.5 -11.5t-37 13.5t-26.5 28t3 33l89 121q14 19 30 26.5t31.5 6t28.5 -10t22 -20.5l88 -121q12 -17 3 -33.5t-26.5 -28t-36.5 -13.5t-28 11z" />
    <glyph glyph-name="edieresis" unicode="&#xeb;" horiz-adv-x="403" 
d="M351 471q-2 -50 -18 -100.5t-47 -91t-75.5 -65t-101.5 -20.5q1 -31 7 -60t19.5 -49.5t36.5 -29t58 2.5q35 10 67 33t57.5 53t43 63.5t25.5 65.5q4 17 19 21t31.5 -1t28 -17.5t7.5 -28.5q-22 -58 -43.5 -103t-47.5 -79.5t-58.5 -58.5t-76.5 -40q-59 -21 -109 -18.5
t-87 26.5t-58.5 68t-24.5 107q-2 30 -1.5 72.5t5.5 89t16 94.5t30 89.5t47.5 73t69.5 45.5q34 12 67 9t58.5 -21t40.5 -50.5t14 -79.5zM225 497q-14 9 -27.5 1.5t-25.5 -25t-21 -41.5t-15 -49.5t-9 -48.5t-1 -37q46 9 73 38t37.5 62t7 62t-18.5 38zM90 670
q-17 17 -20.5 34.5t3 33t20 26.5t30.5 14t35 -3.5t33 -26.5q12 -21 4 -42.5t-25.5 -35t-40 -15.5t-39.5 15zM267 676q-17 17 -20.5 34.5t3 33t20 26.5t30.5 14t35 -3.5t33 -26.5q12 -21 4 -42.5t-25.5 -35t-40 -15.5t-39.5 15z" />
    <glyph glyph-name="igrave" unicode="&#xec;" horiz-adv-x="248" 
d="M61 536q20 20 41 22.5t37 -7t23.5 -28t1.5 -40.5q-10 -21 -19 -55t-16 -72t-11 -78t-3.5 -73t6.5 -57t19 -30t27.5 -2.5t31 21.5t35.5 54t40 97q8 15 22.5 18.5t28 -1.5t21 -17.5t2.5 -29.5q-9 -35 -29.5 -84t-51.5 -92t-71 -68.5t-87 -12.5q-42 12 -66 48.5t-34 86.5
t-8 108.5t10.5 113.5t22 102.5t27.5 75.5zM29 790q-14 20 -5.5 39t26 30t38.5 11.5t32 -15.5l107 -144q12 -17 2.5 -34.5t-26.5 -28.5t-37 -13.5t-29 11.5z" />
    <glyph glyph-name="iacute" unicode="&#xed;" horiz-adv-x="248" 
d="M61 536q20 20 41 22.5t37 -7t23.5 -28t1.5 -40.5q-10 -21 -19 -55t-16 -72t-11 -78t-3.5 -73t6.5 -57t19 -30t27.5 -2.5t31 21.5t35.5 54t40 97q8 15 22.5 18.5t28 -1.5t21 -17.5t2.5 -29.5q-9 -35 -29.5 -84t-51.5 -92t-71 -68.5t-87 -12.5q-42 12 -66 48.5t-34 86.5
t-8 108.5t10.5 113.5t22 102.5t27.5 75.5zM110 625q-10 -15 -30.5 -12.5t-38 15t-26.5 31t4 36.5l117 154q12 18 33 17.5t39 -12t26 -31.5t-7 -42z" />
    <glyph glyph-name="icircumflex" unicode="&#xee;" horiz-adv-x="248" 
d="M61 536q20 20 41 22.5t37 -7t23.5 -28t1.5 -40.5q-10 -21 -19 -55t-16 -72t-11 -78t-3.5 -73t6.5 -57t19 -30t27.5 -2.5t31 21.5t35.5 54t40 97q8 15 22.5 18.5t28 -1.5t21 -17.5t2.5 -29.5q-9 -35 -29.5 -84t-51.5 -92t-71 -68.5t-87 -12.5q-42 12 -66 48.5t-34 86.5
t-8 108.5t10.5 113.5t22 102.5t27.5 75.5zM126 696l-56 -75q-9 -14 -28.5 -11.5t-37 13.5t-26.5 28t3 33l89 121q14 19 30 26.5t31.5 6t28.5 -10t22 -20.5l88 -121q12 -17 3 -33.5t-26.5 -28t-36.5 -13.5t-28 11z" />
    <glyph glyph-name="idieresis" unicode="&#xef;" horiz-adv-x="248" 
d="M61 536q20 20 41 22.5t37 -7t23.5 -28t1.5 -40.5q-10 -21 -19 -55t-16 -72t-11 -78t-3.5 -73t6.5 -57t19 -30t27.5 -2.5t31 21.5t35.5 54t40 97q8 15 22.5 18.5t28 -1.5t21 -17.5t2.5 -29.5q-9 -35 -29.5 -84t-51.5 -92t-71 -68.5t-87 -12.5q-42 12 -66 48.5t-34 86.5
t-8 108.5t10.5 113.5t22 102.5t27.5 75.5zM5 641q-17 17 -20.5 34.5t3 33t20 26.5t30.5 14t35 -3.5t33 -26.5q12 -21 4 -42.5t-25.5 -35t-40 -15.5t-39.5 15zM182 647q-17 17 -20.5 34.5t3 33t20 26.5t30.5 14t35 -3.5t33 -26.5q12 -21 4 -42.5t-25.5 -35t-40 -15.5
t-39.5 15z" />
    <glyph glyph-name="ntilde" unicode="&#xf1;" horiz-adv-x="557" 
d="M15 476q5 33 24 48t40 13.5t37.5 -19.5t17.5 -51v-22q18 24 40 48t47.5 42.5t56.5 27t67 1.5q37 -8 59.5 -31.5t33.5 -57t13 -73.5t-0.5 -80.5t-7.5 -79t-8.5 -68.5t-3 -48.5t9.5 -19.5q15 -2 32.5 8t35.5 32.5t35 57t29 81.5q5 21 21.5 23.5t32.5 -6t27 -25.5t5 -35
q-19 -57 -44.5 -106.5t-56.5 -84.5t-67.5 -52.5t-76.5 -9.5t-61.5 30.5t-30.5 54t-8 69t6 76.5t11 76t7 67t-5 50.5t-26 25.5q-27 7 -52 -11t-46.5 -52.5t-39.5 -79.5t-31 -92t-20.5 -91.5t-8.5 -75.5q-3 -14 -20 -24.5t-37 -12.5t-38.5 8t-23.5 38q-1 18 1 41.5t6 69
t8.5 121.5t9.5 199zM506 742q-21 -45 -48.5 -75t-58.5 -41.5t-64 -3.5t-64 38q-24 24 -42.5 33.5t-33.5 6.5t-29 -18.5t-30 -40.5q-10 -15 -28 -17t-33 5.5t-22.5 23t3.5 34.5q23 40 48 69.5t53.5 41.5t62 2.5t73.5 -48.5q27 -26 48 -32.5t37 1t27.5 25.5t20.5 42
q6 17 23 19.5t32.5 -5.5t24.5 -24t0 -36z" />
    <glyph glyph-name="ograve" unicode="&#xf2;" horiz-adv-x="587" 
d="M328 595q46 15 80.5 6t57.5 -35t36.5 -64.5t18.5 -81.5q2 -20 2.5 -44t-1 -48t-4 -46t-6.5 -40q24 1 43 6.5t35 13t30.5 16.5t29.5 17q19 10 31.5 2.5t17 -22.5t2 -32.5t-13.5 -27.5q-48 -44 -105 -63.5t-116 -19.5q-39 -69 -100 -104.5t-133 -36.5q-67 -1 -113 27
t-73 73t-35.5 102.5t0 116t34 114t65.5 96.5t94.5 62.5t122.5 12.5zM256 480q-32 -7 -59 -35.5t-46 -68t-27 -85.5t-1.5 -86.5t30.5 -70.5t69 -39q16 -3 36 3t39 18t34.5 28.5t23.5 33.5q-28 17 -47.5 41t-33.5 53q-22 48 -26 102.5t8 105.5zM380 475q-28 -17 -31.5 -47.5
t5.5 -62t25 -56.5t27 -31q6 5 9.5 23.5t4.5 42.5t-1 50t-7 46t-13 30.5t-19 4.5zM197 790q-14 20 -5.5 39t26 30t38.5 11.5t32 -15.5l107 -144q12 -17 2.5 -34.5t-26.5 -28.5t-37 -13.5t-29 11.5z" />
    <glyph glyph-name="oacute" unicode="&#xf3;" horiz-adv-x="587" 
d="M328 595q46 15 80.5 6t57.5 -35t36.5 -64.5t18.5 -81.5q2 -20 2.5 -44t-1 -48t-4 -46t-6.5 -40q24 1 43 6.5t35 13t30.5 16.5t29.5 17q19 10 31.5 2.5t17 -22.5t2 -32.5t-13.5 -27.5q-48 -44 -105 -63.5t-116 -19.5q-39 -69 -100 -104.5t-133 -36.5q-67 -1 -113 27
t-73 73t-35.5 102.5t0 116t34 114t65.5 96.5t94.5 62.5t122.5 12.5zM256 480q-32 -7 -59 -35.5t-46 -68t-27 -85.5t-1.5 -86.5t30.5 -70.5t69 -39q16 -3 36 3t39 18t34.5 28.5t23.5 33.5q-28 17 -47.5 41t-33.5 53q-22 48 -26 102.5t8 105.5zM380 475q-28 -17 -31.5 -47.5
t5.5 -62t25 -56.5t27 -31q6 5 9.5 23.5t4.5 42.5t-1 50t-7 46t-13 30.5t-19 4.5zM356 674q-10 -15 -30.5 -12.5t-38 15t-26.5 31t4 36.5l117 154q12 18 33 17.5t39 -12t26 -31.5t-7 -42z" />
    <glyph glyph-name="ocircumflex" unicode="&#xf4;" horiz-adv-x="587" 
d="M328 595q46 15 80.5 6t57.5 -35t36.5 -64.5t18.5 -81.5q2 -20 2.5 -44t-1 -48t-4 -46t-6.5 -40q24 1 43 6.5t35 13t30.5 16.5t29.5 17q19 10 31.5 2.5t17 -22.5t2 -32.5t-13.5 -27.5q-48 -44 -105 -63.5t-116 -19.5q-39 -69 -100 -104.5t-133 -36.5q-67 -1 -113 27
t-73 73t-35.5 102.5t0 116t34 114t65.5 96.5t94.5 62.5t122.5 12.5zM256 480q-32 -7 -59 -35.5t-46 -68t-27 -85.5t-1.5 -86.5t30.5 -70.5t69 -39q16 -3 36 3t39 18t34.5 28.5t23.5 33.5q-28 17 -47.5 41t-33.5 53q-22 48 -26 102.5t8 105.5zM380 475q-28 -17 -31.5 -47.5
t5.5 -62t25 -56.5t27 -31q6 5 9.5 23.5t4.5 42.5t-1 50t-7 46t-13 30.5t-19 4.5zM333 744l-56 -75q-9 -14 -28.5 -11.5t-37 13.5t-26.5 28t3 33l89 121q14 19 30 26.5t31.5 6t28.5 -10t22 -20.5l88 -121q12 -17 3 -33.5t-26.5 -28t-36.5 -13.5t-28 11z" />
    <glyph glyph-name="otilde" unicode="&#xf5;" horiz-adv-x="587" 
d="M328 595q46 15 80.5 6t57.5 -35t36.5 -64.5t18.5 -81.5q2 -20 2.5 -44t-1 -48t-4 -46t-6.5 -40q24 1 43 6.5t35 13t30.5 16.5t29.5 17q19 10 31.5 2.5t17 -22.5t2 -32.5t-13.5 -27.5q-48 -44 -105 -63.5t-116 -19.5q-39 -69 -100 -104.5t-133 -36.5q-67 -1 -113 27
t-73 73t-35.5 102.5t0 116t34 114t65.5 96.5t94.5 62.5t122.5 12.5zM256 480q-32 -7 -59 -35.5t-46 -68t-27 -85.5t-1.5 -86.5t30.5 -70.5t69 -39q16 -3 36 3t39 18t34.5 28.5t23.5 33.5q-28 17 -47.5 41t-33.5 53q-22 48 -26 102.5t8 105.5zM380 475q-28 -17 -31.5 -47.5
t5.5 -62t25 -56.5t27 -31q6 5 9.5 23.5t4.5 42.5t-1 50t-7 46t-13 30.5t-19 4.5zM521 742q-21 -45 -48.5 -75t-58.5 -41.5t-64 -3.5t-64 38q-24 24 -42.5 33.5t-33.5 6.5t-29 -18.5t-30 -40.5q-10 -15 -28 -17t-33 5.5t-22.5 23t3.5 34.5q23 40 48 69.5t53.5 41.5t62 2.5
t73.5 -48.5q27 -26 48 -32.5t37 1t27.5 25.5t20.5 42q6 17 23 19.5t32.5 -5.5t24.5 -24t0 -36z" />
    <glyph glyph-name="odieresis" unicode="&#xf6;" horiz-adv-x="587" 
d="M328 595q46 15 80.5 6t57.5 -35t36.5 -64.5t18.5 -81.5q2 -20 2.5 -44t-1 -48t-4 -46t-6.5 -40q24 1 43 6.5t35 13t30.5 16.5t29.5 17q19 10 31.5 2.5t17 -22.5t2 -32.5t-13.5 -27.5q-48 -44 -105 -63.5t-116 -19.5q-39 -69 -100 -104.5t-133 -36.5q-67 -1 -113 27
t-73 73t-35.5 102.5t0 116t34 114t65.5 96.5t94.5 62.5t122.5 12.5zM256 480q-32 -7 -59 -35.5t-46 -68t-27 -85.5t-1.5 -86.5t30.5 -70.5t69 -39q16 -3 36 3t39 18t34.5 28.5t23.5 33.5q-28 17 -47.5 41t-33.5 53q-22 48 -26 102.5t8 105.5zM380 475q-28 -17 -31.5 -47.5
t5.5 -62t25 -56.5t27 -31q6 5 9.5 23.5t4.5 42.5t-1 50t-7 46t-13 30.5t-19 4.5zM173 641q-17 17 -20.5 34.5t3 33t20 26.5t30.5 14t35 -3.5t33 -26.5q12 -21 4 -42.5t-25.5 -35t-40 -15.5t-39.5 15zM350 647q-17 17 -20.5 34.5t3 33t20 26.5t30.5 14t35 -3.5t33 -26.5
q12 -21 4 -42.5t-25.5 -35t-40 -15.5t-39.5 15z" />
    <glyph glyph-name="oslash" unicode="&#xf8;" horiz-adv-x="587" 
d="M75 53q-37 39 -53.5 96t-14 119t24.5 123t60.5 108t93.5 74.5t125 22.5l38 87q15 15 34.5 12t35 -14.5t23 -28t-1.5 -29.5l-12 -29q42 -19 64 -67.5t29 -106.5q2 -20 2.5 -44t-1 -48t-4 -46t-6.5 -40q24 1 43 6.5t35 13t30.5 16.5t29.5 17q19 10 31.5 2.5t17 -22.5
t2 -32.5t-13.5 -27.5q-48 -44 -105 -63.5t-116 -19.5q-39 -69 -100 -104.5t-133 -36.5q-15 0 -29 2t-27 4l-31 -76q-17 -10 -36.5 -9t-35 10.5t-24.5 25.5t-4 37zM256 480q-23 -5 -44 -21.5t-38 -41.5t-29.5 -55.5t-19 -62.5t-6 -63.5t9.5 -58.5l123 282q1 5 1.5 10.5
t2.5 10.5zM355 178q-44 26 -71 73l-65 -156h3q16 -3 36 3t39 18t34.5 28.5t23.5 33.5zM380 475q-2 -2 -3 -2l-30 -72q1 -20 8 -40.5t16 -37.5t18.5 -29.5t16.5 -15.5q6 5 9.5 23.5t4.5 42.5t-1 50t-7 46t-13 30.5t-19 4.5z" />
    <glyph glyph-name="ugrave" unicode="&#xf9;" 
d="M60 552q14 25 33.5 34.5t38 5t31.5 -22t13 -46.5q-3 -12 -11 -48t-17.5 -83t-18.5 -99.5t-12 -96.5t1.5 -74t20.5 -33q29 -5 54 22t46 71.5t38 99.5t29.5 105.5t20.5 89.5t12 52q7 25 18.5 41t35.5 26q35 4 54.5 -14.5t20.5 -53.5q-8 -39 -18 -83t-19 -87.5t-15 -84
t-7.5 -72.5t3 -54t18.5 -28q32 -5 57.5 33t54.5 124q9 22 27 27t33.5 -2.5t24 -26.5t-0.5 -46q-6 -17 -15 -39.5t-21.5 -46.5t-27.5 -48t-32 -43q-25 -30 -56 -42.5t-61 -8.5t-57 25t-44 59q-18 -26 -36.5 -48t-41 -38t-50 -23.5t-64.5 -5.5q-36 2 -59.5 20t-36.5 46
t-18 61.5t-5 67.5t2.5 64.5t4.5 51.5q3 27 9.5 63t14 73.5t15.5 73t13 62.5zM167 790q-14 20 -5.5 39t26 30t38.5 11.5t32 -15.5l107 -144q12 -17 2.5 -34.5t-26.5 -28.5t-37 -13.5t-29 11.5z" />
    <glyph glyph-name="uacute" unicode="&#xfa;" 
d="M60 552q14 25 33.5 34.5t38 5t31.5 -22t13 -46.5q-3 -12 -11 -48t-17.5 -83t-18.5 -99.5t-12 -96.5t1.5 -74t20.5 -33q29 -5 54 22t46 71.5t38 99.5t29.5 105.5t20.5 89.5t12 52q7 25 18.5 41t35.5 26q35 4 54.5 -14.5t20.5 -53.5q-8 -39 -18 -83t-19 -87.5t-15 -84
t-7.5 -72.5t3 -54t18.5 -28q32 -5 57.5 33t54.5 124q9 22 27 27t33.5 -2.5t24 -26.5t-0.5 -46q-6 -17 -15 -39.5t-21.5 -46.5t-27.5 -48t-32 -43q-25 -30 -56 -42.5t-61 -8.5t-57 25t-44 59q-18 -26 -36.5 -48t-41 -38t-50 -23.5t-64.5 -5.5q-36 2 -59.5 20t-36.5 46
t-18 61.5t-5 67.5t2.5 64.5t4.5 51.5q3 27 9.5 63t14 73.5t15.5 73t13 62.5zM248 625q-10 -15 -30.5 -12.5t-38 15t-26.5 31t4 36.5l117 154q12 18 33 17.5t39 -12t26 -31.5t-7 -42z" />
    <glyph glyph-name="ucircumflex" unicode="&#xfb;" 
d="M60 552q14 25 33.5 34.5t38 5t31.5 -22t13 -46.5q-3 -12 -11 -48t-17.5 -83t-18.5 -99.5t-12 -96.5t1.5 -74t20.5 -33q29 -5 54 22t46 71.5t38 99.5t29.5 105.5t20.5 89.5t12 52q7 25 18.5 41t35.5 26q35 4 54.5 -14.5t20.5 -53.5q-8 -39 -18 -83t-19 -87.5t-15 -84
t-7.5 -72.5t3 -54t18.5 -28q32 -5 57.5 33t54.5 124q9 22 27 27t33.5 -2.5t24 -26.5t-0.5 -46q-6 -17 -15 -39.5t-21.5 -46.5t-27.5 -48t-32 -43q-25 -30 -56 -42.5t-61 -8.5t-57 25t-44 59q-18 -26 -36.5 -48t-41 -38t-50 -23.5t-64.5 -5.5q-36 2 -59.5 20t-36.5 46
t-18 61.5t-5 67.5t2.5 64.5t4.5 51.5q3 27 9.5 63t14 73.5t15.5 73t13 62.5zM264 696l-56 -75q-9 -14 -28.5 -11.5t-37 13.5t-26.5 28t3 33l89 121q14 19 30 26.5t31.5 6t28.5 -10t22 -20.5l88 -121q12 -17 3 -33.5t-26.5 -28t-36.5 -13.5t-28 11z" />
    <glyph glyph-name="udieresis" unicode="&#xfc;" 
d="M60 552q14 25 33.5 34.5t38 5t31.5 -22t13 -46.5q-3 -12 -11 -48t-17.5 -83t-18.5 -99.5t-12 -96.5t1.5 -74t20.5 -33q29 -5 54 22t46 71.5t38 99.5t29.5 105.5t20.5 89.5t12 52q7 25 18.5 41t35.5 26q35 4 54.5 -14.5t20.5 -53.5q-8 -39 -18 -83t-19 -87.5t-15 -84
t-7.5 -72.5t3 -54t18.5 -28q32 -5 57.5 33t54.5 124q9 22 27 27t33.5 -2.5t24 -26.5t-0.5 -46q-6 -17 -15 -39.5t-21.5 -46.5t-27.5 -48t-32 -43q-25 -30 -56 -42.5t-61 -8.5t-57 25t-44 59q-18 -26 -36.5 -48t-41 -38t-50 -23.5t-64.5 -5.5q-36 2 -59.5 20t-36.5 46
t-18 61.5t-5 67.5t2.5 64.5t4.5 51.5q3 27 9.5 63t14 73.5t15.5 73t13 62.5zM143 641q-17 17 -20.5 34.5t3 33t20 26.5t30.5 14t35 -3.5t33 -26.5q12 -21 4 -42.5t-25.5 -35t-40 -15.5t-39.5 15zM320 647q-17 17 -20.5 34.5t3 33t20 26.5t30.5 14t35 -3.5t33 -26.5
q12 -21 4 -42.5t-25.5 -35t-40 -15.5t-39.5 15z" />
    <glyph glyph-name="yacute" unicode="&#xfd;" horiz-adv-x="672" 
d="M65 552q10 24 33 31t44 0.5t33 -26t0 -48.5q-8 -24 -17 -59t-16.5 -74t-12 -78.5t-3 -72.5t9.5 -55t26 -27q39 -2 72.5 15.5t62 48.5t52.5 71t43.5 82.5t35 83.5t27.5 74q14 25 33.5 34.5t38 5t31.5 -22t13 -45.5q-18 -53 -27.5 -108t-12.5 -109q-2 -38 -1.5 -75t4.5 -69
q11 6 30.5 19t41 31t41.5 40t33 46q20 24 39.5 22t33 -17t17 -36t-7.5 -36q-36 -61 -91 -116t-141 -91q3 -43 0 -98t-14.5 -112t-31 -109.5t-50 -89.5t-71.5 -53t-95 1q-52 16 -75 53t-23.5 86.5t18.5 106.5t52.5 112.5t78 104.5t94.5 84q1 24 1 44.5t1 43.5
q-25 -32 -58.5 -61.5t-72.5 -50.5t-82 -29t-88 4q-42 12 -66.5 44t-35.5 76.5t-10 98t9.5 108t22.5 105.5t31 92zM415 -77q-23 -19 -44 -47.5t-37.5 -59.5t-28 -62.5t-15.5 -56.5t0 -42t19 -19q19 -3 35.5 15.5t30 48.5t23.5 66.5t15.5 69.5t6 57t-4.5 30zM320 625
q-10 -15 -30.5 -12.5t-38 15t-26.5 31t4 36.5l117 154q12 18 33 17.5t39 -12t26 -31.5t-7 -42z" />
    <glyph glyph-name="thorn" unicode="&#xfe;" horiz-adv-x="650" 
d="M45 698q4 25 24 33.5t41.5 5.5t38.5 -16t15 -32l-17 -279q11 34 38.5 69t63.5 60t78 34.5t83 -8.5q49 -22 76.5 -72t36.5 -112t1 -128t-29 -118q42 21 84 59.5t88 109.5q13 12 24.5 3.5t17.5 -27t4 -42t-17 -41.5q-24 -44 -62.5 -83t-87 -68.5t-103 -49t-110.5 -25.5
t-109.5 2.5t-98.5 34.5q-9 -90 -14.5 -143.5t-9 -82t-5 -36.5t-2 -6.5t-0.5 7t0 4.5h-1q-3 -12 -22.5 -20t-41.5 -8t-39 8.5t-15 29.5q3 24 7.5 76.5t9.5 122t11 150t12 161.5t11 156.5t9 134.5t7 96t3 40zM386 444q-20 18 -45 12.5t-51 -27t-50.5 -55.5t-43 -72t-29 -76.5
t-7.5 -69.5q8 -41 34.5 -60.5t59.5 -20.5t65.5 14t52.5 43q16 23 28.5 67t16.5 91.5t-2.5 90.5t-28.5 63z" />
    <glyph glyph-name="ydieresis" unicode="&#xff;" horiz-adv-x="672" 
d="M65 552q10 24 33 31t44 0.5t33 -26t0 -48.5q-8 -24 -17 -59t-16.5 -74t-12 -78.5t-3 -72.5t9.5 -55t26 -27q39 -2 72.5 15.5t62 48.5t52.5 71t43.5 82.5t35 83.5t27.5 74q14 25 33.5 34.5t38 5t31.5 -22t13 -45.5q-18 -53 -27.5 -108t-12.5 -109q-2 -38 -1.5 -75t4.5 -69
q11 6 30.5 19t41 31t41.5 40t33 46q20 24 39.5 22t33 -17t17 -36t-7.5 -36q-36 -61 -91 -116t-141 -91q3 -43 0 -98t-14.5 -112t-31 -109.5t-50 -89.5t-71.5 -53t-95 1q-52 16 -75 53t-23.5 86.5t18.5 106.5t52.5 112.5t78 104.5t94.5 84q1 24 1 44.5t1 43.5
q-25 -32 -58.5 -61.5t-72.5 -50.5t-82 -29t-88 4q-42 12 -66.5 44t-35.5 76.5t-10 98t9.5 108t22.5 105.5t31 92zM415 -77q-23 -19 -44 -47.5t-37.5 -59.5t-28 -62.5t-15.5 -56.5t0 -42t19 -19q19 -3 35.5 15.5t30 48.5t23.5 66.5t15.5 69.5t6 57t-4.5 30zM216 641
q-17 17 -20.5 34.5t3 33t20 26.5t30.5 14t35 -3.5t33 -26.5q12 -21 4 -42.5t-25.5 -35t-40 -15.5t-39.5 15zM393 647q-17 17 -20.5 34.5t3 33t20 26.5t30.5 14t35 -3.5t33 -26.5q12 -21 4 -42.5t-25.5 -35t-40 -15.5t-39.5 15z" />
    <glyph glyph-name="Amacron" unicode="&#x100;" horiz-adv-x="685" 
d="M15 283q-1 68 17.5 148.5t54 157.5t85 141.5t109.5 100t128 33t141 -58.5q23 16 39.5 13t27 -15.5t14 -29t0.5 -28.5q-4 -16 -13 -52.5t-19.5 -86t-21 -107t-19.5 -116t-14 -114t-3.5 -99.5t11 -73t29.5 -35q44 -14 76 43.5t52 171.5q7 20 23.5 26.5t33 3t28.5 -14.5
t10 -25q-11 -66 -28 -123t-46 -98.5t-73 -65t-108 -22.5q-54 1 -83.5 46.5t-29.5 116.5q-15 -22 -34 -43.5t-42 -38.5t-50.5 -29t-58.5 -15q-66 -7 -110.5 15t-72 63t-40 96t-13.5 114zM228 114q49 2 87 39t66.5 94.5t49 127.5t34 136t22 121t13.5 84q-49 32 -94.5 30
t-85 -27.5t-72.5 -70.5t-57.5 -99t-40 -112.5t-19.5 -112.5q-1 -13 -1 -33.5t2.5 -44t8 -47.5t17 -43t28.5 -31t42 -11zM247 908q-18 0 -28.5 17t-11.5 38t8 38t31 17l305 5q21 0 33.5 -17t14 -37.5t-9.5 -38t-37 -17.5z" />
    <glyph glyph-name="amacron" unicode="&#x101;" horiz-adv-x="608" 
d="M165 9q-61 0 -96.5 34t-49.5 87.5t-8.5 118.5t27.5 127.5t57.5 115.5t81.5 81t100.5 24t113.5 -55q6 18 26 21.5t39.5 -4t32.5 -25t5 -42.5q-7 -28 -18 -68.5t-21.5 -84.5t-18 -88.5t-7 -80t10.5 -59t35 -25.5q30 -2 56.5 20.5t47 56.5t34.5 72t18 66q7 26 23.5 30.5
t32 -3.5t25 -24.5t2.5 -31.5q-7 -40 -28 -91.5t-53.5 -98t-73.5 -78.5t-88 -32q-21 0 -43.5 7.5t-43 23.5t-36.5 41t-23 61q-9 -11 -25 -27.5t-37 -31.5t-46 -26t-52 -11zM164 134q32 -3 56.5 15t43.5 48.5t32 68.5t21.5 73.5t13.5 65t7 42.5q-32 27 -60 28t-51.5 -15.5
t-41.5 -46.5t-30.5 -65.5t-18.5 -72.5t-5.5 -68t9 -51t24.5 -22zM146 624q-18 0 -28.5 17t-11.5 38t8 38t31 17l305 5q21 0 33.5 -17t14 -37.5t-9.5 -38t-37 -17.5z" />
    <glyph glyph-name="Abreve" unicode="&#x102;" horiz-adv-x="685" 
d="M15 283q-1 68 17.5 148.5t54 157.5t85 141.5t109.5 100t128 33t141 -58.5q23 16 39.5 13t27 -15.5t14 -29t0.5 -28.5q-4 -16 -13 -52.5t-19.5 -86t-21 -107t-19.5 -116t-14 -114t-3.5 -99.5t11 -73t29.5 -35q44 -14 76 43.5t52 171.5q7 20 23.5 26.5t33 3t28.5 -14.5
t10 -25q-11 -66 -28 -123t-46 -98.5t-73 -65t-108 -22.5q-54 1 -83.5 46.5t-29.5 116.5q-15 -22 -34 -43.5t-42 -38.5t-50.5 -29t-58.5 -15q-66 -7 -110.5 15t-72 63t-40 96t-13.5 114zM228 114q49 2 87 39t66.5 94.5t49 127.5t34 136t22 121t13.5 84q-49 32 -94.5 30
t-85 -27.5t-72.5 -70.5t-57.5 -99t-40 -112.5t-19.5 -112.5q-1 -13 -1 -33.5t2.5 -44t8 -47.5t17 -43t28.5 -31t42 -11zM660 1015q-24 -42 -66 -67t-88.5 -28.5t-90.5 16t-71 67.5q-11 19 -4.5 39.5t21.5 33t33.5 13t31.5 -20.5q16 -25 38 -35.5t44.5 -8.5t42 14t31.5 32
q10 18 28 18.5t32.5 -9.5t21.5 -27.5t-4 -36.5z" />
    <glyph glyph-name="abreve" unicode="&#x103;" horiz-adv-x="608" 
d="M165 9q-61 0 -96.5 34t-49.5 87.5t-8.5 118.5t27.5 127.5t57.5 115.5t81.5 81t100.5 24t113.5 -55q6 18 26 21.5t39.5 -4t32.5 -25t5 -42.5q-7 -28 -18 -68.5t-21.5 -84.5t-18 -88.5t-7 -80t10.5 -59t35 -25.5q30 -2 56.5 20.5t47 56.5t34.5 72t18 66q7 26 23.5 30.5
t32 -3.5t25 -24.5t2.5 -31.5q-7 -40 -28 -91.5t-53.5 -98t-73.5 -78.5t-88 -32q-21 0 -43.5 7.5t-43 23.5t-36.5 41t-23 61q-9 -11 -25 -27.5t-37 -31.5t-46 -26t-52 -11zM164 134q32 -3 56.5 15t43.5 48.5t32 68.5t21.5 73.5t13.5 65t7 42.5q-32 27 -60 28t-51.5 -15.5
t-41.5 -46.5t-30.5 -65.5t-18.5 -72.5t-5.5 -68t9 -51t24.5 -22zM472 749q-24 -42 -66 -67t-88.5 -28.5t-90.5 16t-71 67.5q-11 19 -4.5 39.5t21.5 33t33.5 13t31.5 -20.5q16 -25 38 -35.5t44.5 -8.5t42 14t31.5 32q10 18 28 18.5t32.5 -9.5t21.5 -27.5t-4 -36.5z" />
    <glyph glyph-name="Aogonek" unicode="&#x104;" horiz-adv-x="685" 
d="M15 283q-1 68 17.5 148.5t54 157.5t85 141.5t109.5 100t128 33t141 -58.5q23 16 39.5 13t27 -15.5t14 -29t0.5 -28.5q-4 -16 -13 -52.5t-19.5 -86t-21 -107t-19.5 -116t-14 -114t-3.5 -99.5t11 -73t29.5 -35q44 -14 76 43.5t52 171.5q7 20 23.5 26.5t33 3t28.5 -14.5
t10 -25q-11 -66 -28 -123t-46 -98.5t-73 -65t-108 -22.5q-54 1 -83.5 46.5t-29.5 116.5q-15 -22 -34 -43.5t-42 -38.5t-50.5 -29t-58.5 -15q-66 -7 -110.5 15t-72 63t-40 96t-13.5 114zM228 114q49 2 87 39t66.5 94.5t49 127.5t34 136t22 121t13.5 84q-49 32 -94.5 30
t-85 -27.5t-72.5 -70.5t-57.5 -99t-40 -112.5t-19.5 -112.5q-1 -13 -1 -33.5t2.5 -44t8 -47.5t17 -43t28.5 -31t42 -11zM513 -18q-18 -8 -31.5 -25t-16.5 -36t6.5 -36.5t38.5 -26.5q16 -5 19 -21t-3 -32.5t-20.5 -28t-33.5 -5.5q-46 14 -69 42t-28.5 61.5t4 68t27.5 62
t42.5 42.5t48.5 9q12 -3 21.5 -12.5t13 -21.5t-0.5 -23t-18 -17z" />
    <glyph glyph-name="aogonek" unicode="&#x105;" horiz-adv-x="608" 
d="M165 9q-61 0 -96.5 34t-49.5 87.5t-8.5 118.5t27.5 127.5t57.5 115.5t81.5 81t100.5 24t113.5 -55q6 18 26 21.5t39.5 -4t32.5 -25t5 -42.5q-7 -28 -18 -68.5t-21.5 -84.5t-18 -88.5t-7 -80t10.5 -59t35 -25.5q30 -2 56.5 20.5t47 56.5t34.5 72t18 66q7 26 23.5 30.5
t32 -3.5t25 -24.5t2.5 -31.5q-7 -40 -28 -91.5t-53.5 -98t-73.5 -78.5t-88 -32q-21 0 -43.5 7.5t-43 23.5t-36.5 41t-23 61q-9 -11 -25 -27.5t-37 -31.5t-46 -26t-52 -11zM164 134q32 -3 56.5 15t43.5 48.5t32 68.5t21.5 73.5t13.5 65t7 42.5q-32 27 -60 28t-51.5 -15.5
t-41.5 -46.5t-30.5 -65.5t-18.5 -72.5t-5.5 -68t9 -51t24.5 -22zM433 -1q-18 -8 -31.5 -25t-16.5 -36t6.5 -36.5t38.5 -26.5q16 -5 19 -21t-3 -32.5t-20.5 -28t-33.5 -5.5q-46 14 -69 42t-28.5 61.5t4 68t27.5 62t42.5 42.5t48.5 9q12 -3 21.5 -12.5t13 -21.5t-0.5 -23
t-18 -17z" />
    <glyph glyph-name="Cacute" unicode="&#x106;" horiz-adv-x="515" 
d="M354 498q13 27 20.5 63t6 69t-13 56.5t-36.5 24.5q-50 -9 -84.5 -41.5t-57 -77.5t-35 -96t-18.5 -97q-4 -30 -4 -64.5t5.5 -68t18.5 -64t35.5 -54t55.5 -37.5t79 -14q24 0 50.5 7t53.5 26.5t54 55t52 93.5q9 20 26 24.5t32.5 -1.5t26 -19t5.5 -28q-48 -124 -125 -194
t-182 -80q-63 -6 -113 10.5t-86.5 48.5t-61 77t-37 96.5t-14.5 106t6 105.5q6 41 19 90t32.5 97t47 91.5t63.5 75t81.5 46.5t101.5 7q20 -3 32 -9t19.5 -13.5t12.5 -17t11 -18.5q18 16 37.5 19t34 -5.5t20.5 -27.5t-3 -46q-19 -65 -31 -107.5t-19.5 -71.5t-12.5 -48t-9 -37
q-7 -15 -24.5 -20t-35 1t-29.5 22.5t-7 44.5zM319 905q-10 -15 -30.5 -12.5t-38 15t-26.5 31t4 36.5l117 154q12 18 33 17.5t39 -12t26 -31.5t-7 -42z" />
    <glyph glyph-name="cacute" unicode="&#x107;" horiz-adv-x="442" 
d="M341 383q-2 0 -3 1q-11 -24 -28.5 -35t-35.5 -8.5t-32.5 17.5t-19.5 42q0 13 3 32.5t4.5 38t-1.5 32t-16 15.5q-23 -13 -40 -43.5t-28 -69t-15.5 -81.5t-3 -82.5t10 -70.5t24.5 -45q20 -19 44 -23t50 1q22 4 50 15t56.5 32t55 54t46.5 83q7 15 24.5 18t34.5 -3.5
t27 -21.5t2 -37q-20 -47 -49.5 -84t-63.5 -65t-71 -48t-72 -33q-27 -10 -57 -15.5t-60.5 -2.5t-58.5 15.5t-50 39.5q-26 31 -40.5 77t-18.5 98t2.5 107t22 104.5t40 90t56.5 63.5q52 35 101.5 32.5t78.5 -44.5q23 -3 37 -23t8 -46zM230 653q-10 -15 -30.5 -12.5t-38 15
t-26.5 31t4 36.5l117 154q12 18 33 17.5t39 -12t26 -31.5t-7 -42z" />
    <glyph glyph-name="Ccircumflex" unicode="&#x108;" horiz-adv-x="515" 
d="M354 498q13 27 20.5 63t6 69t-13 56.5t-36.5 24.5q-50 -9 -84.5 -41.5t-57 -77.5t-35 -96t-18.5 -97q-4 -30 -4 -64.5t5.5 -68t18.5 -64t35.5 -54t55.5 -37.5t79 -14q24 0 50.5 7t53.5 26.5t54 55t52 93.5q9 20 26 24.5t32.5 -1.5t26 -19t5.5 -28q-48 -124 -125 -194
t-182 -80q-63 -6 -113 10.5t-86.5 48.5t-61 77t-37 96.5t-14.5 106t6 105.5q6 41 19 90t32.5 97t47 91.5t63.5 75t81.5 46.5t101.5 7q20 -3 32 -9t19.5 -13.5t12.5 -17t11 -18.5q18 16 37.5 19t34 -5.5t20.5 -27.5t-3 -46q-19 -65 -31 -107.5t-19.5 -71.5t-12.5 -48t-9 -37
q-7 -15 -24.5 -20t-35 1t-29.5 22.5t-7 44.5zM325 956l-56 -75q-9 -14 -28.5 -11.5t-37 13.5t-26.5 28t3 33l89 121q14 19 30 26.5t31.5 6t28.5 -10t22 -20.5l88 -121q12 -17 3 -33.5t-26.5 -28t-36.5 -13.5t-28 11z" />
    <glyph glyph-name="ccircumflex" unicode="&#x109;" horiz-adv-x="442" 
d="M341 383q-2 0 -3 1q-11 -24 -28.5 -35t-35.5 -8.5t-32.5 17.5t-19.5 42q0 13 3 32.5t4.5 38t-1.5 32t-16 15.5q-23 -13 -40 -43.5t-28 -69t-15.5 -81.5t-3 -82.5t10 -70.5t24.5 -45q20 -19 44 -23t50 1q22 4 50 15t56.5 32t55 54t46.5 83q7 15 24.5 18t34.5 -3.5
t27 -21.5t2 -37q-20 -47 -49.5 -84t-63.5 -65t-71 -48t-72 -33q-27 -10 -57 -15.5t-60.5 -2.5t-58.5 15.5t-50 39.5q-26 31 -40.5 77t-18.5 98t2.5 107t22 104.5t40 90t56.5 63.5q52 35 101.5 32.5t78.5 -44.5q23 -3 37 -23t8 -46zM225 749l-56 -75q-9 -14 -28.5 -11.5
t-37 13.5t-26.5 28t3 33l89 121q14 19 30 26.5t31.5 6t28.5 -10t22 -20.5l88 -121q12 -17 3 -33.5t-26.5 -28t-36.5 -13.5t-28 11z" />
    <glyph glyph-name="Cdotaccent" unicode="&#x10a;" horiz-adv-x="515" 
d="M354 498q13 27 20.5 63t6 69t-13 56.5t-36.5 24.5q-50 -9 -84.5 -41.5t-57 -77.5t-35 -96t-18.5 -97q-4 -30 -4 -64.5t5.5 -68t18.5 -64t35.5 -54t55.5 -37.5t79 -14q24 0 50.5 7t53.5 26.5t54 55t52 93.5q9 20 26 24.5t32.5 -1.5t26 -19t5.5 -28q-48 -124 -125 -194
t-182 -80q-63 -6 -113 10.5t-86.5 48.5t-61 77t-37 96.5t-14.5 106t6 105.5q6 41 19 90t32.5 97t47 91.5t63.5 75t81.5 46.5t101.5 7q20 -3 32 -9t19.5 -13.5t12.5 -17t11 -18.5q18 16 37.5 19t34 -5.5t20.5 -27.5t-3 -46q-19 -65 -31 -107.5t-19.5 -71.5t-12.5 -48t-9 -37
q-7 -15 -24.5 -20t-35 1t-29.5 22.5t-7 44.5zM290 896q-22 25 -16.5 51t24.5 41t45.5 14t47.5 -29q9 -15 8.5 -30t-8 -28t-20.5 -22t-27.5 -13t-28.5 -0.5t-25 16.5z" />
    <glyph glyph-name="cdotaccent" unicode="&#x10b;" horiz-adv-x="442" 
d="M341 383q-2 0 -3 1q-11 -24 -28.5 -35t-35.5 -8.5t-32.5 17.5t-19.5 42q0 13 3 32.5t4.5 38t-1.5 32t-16 15.5q-23 -13 -40 -43.5t-28 -69t-15.5 -81.5t-3 -82.5t10 -70.5t24.5 -45q20 -19 44 -23t50 1q22 4 50 15t56.5 32t55 54t46.5 83q7 15 24.5 18t34.5 -3.5
t27 -21.5t2 -37q-20 -47 -49.5 -84t-63.5 -65t-71 -48t-72 -33q-27 -10 -57 -15.5t-60.5 -2.5t-58.5 15.5t-50 39.5q-26 31 -40.5 77t-18.5 98t2.5 107t22 104.5t40 90t56.5 63.5q52 35 101.5 32.5t78.5 -44.5q23 -3 37 -23t8 -46zM195 694q-22 25 -16.5 51t24.5 41t45.5 14
t47.5 -29q9 -15 8.5 -30t-8 -28t-20.5 -22t-27.5 -13t-28.5 -0.5t-25 16.5z" />
    <glyph glyph-name="Ccaron" unicode="&#x10c;" horiz-adv-x="515" 
d="M354 498q13 27 20.5 63t6 69t-13 56.5t-36.5 24.5q-50 -9 -84.5 -41.5t-57 -77.5t-35 -96t-18.5 -97q-4 -30 -4 -64.5t5.5 -68t18.5 -64t35.5 -54t55.5 -37.5t79 -14q24 0 50.5 7t53.5 26.5t54 55t52 93.5q9 20 26 24.5t32.5 -1.5t26 -19t5.5 -28q-48 -124 -125 -194
t-182 -80q-63 -6 -113 10.5t-86.5 48.5t-61 77t-37 96.5t-14.5 106t6 105.5q6 41 19 90t32.5 97t47 91.5t63.5 75t81.5 46.5t101.5 7q20 -3 32 -9t19.5 -13.5t12.5 -17t11 -18.5q18 16 37.5 19t34 -5.5t20.5 -27.5t-3 -46q-19 -65 -31 -107.5t-19.5 -71.5t-12.5 -48t-9 -37
q-7 -15 -24.5 -20t-35 1t-29.5 22.5t-7 44.5zM315 1027l62 83q10 15 31.5 12.5t40 -15t28.5 -31t-3 -36.5l-98 -132q-15 -22 -32.5 -30t-34 -6.5t-31.5 11t-24 22.5l-97 133q-13 18 -3 36.5t28.5 31t40 15t31.5 -12.5z" />
    <glyph glyph-name="ccaron" unicode="&#x10d;" horiz-adv-x="442" 
d="M341 383q-2 0 -3 1q-11 -24 -28.5 -35t-35.5 -8.5t-32.5 17.5t-19.5 42q0 13 3 32.5t4.5 38t-1.5 32t-16 15.5q-23 -13 -40 -43.5t-28 -69t-15.5 -81.5t-3 -82.5t10 -70.5t24.5 -45q20 -19 44 -23t50 1q22 4 50 15t56.5 32t55 54t46.5 83q7 15 24.5 18t34.5 -3.5
t27 -21.5t2 -37q-20 -47 -49.5 -84t-63.5 -65t-71 -48t-72 -33q-27 -10 -57 -15.5t-60.5 -2.5t-58.5 15.5t-50 39.5q-26 31 -40.5 77t-18.5 98t2.5 107t22 104.5t40 90t56.5 63.5q52 35 101.5 32.5t78.5 -44.5q23 -3 37 -23t8 -46zM263 810l62 83q10 15 31.5 12.5t40 -15
t28.5 -31t-3 -36.5l-98 -132q-15 -22 -32.5 -30t-34 -6.5t-31.5 11t-24 22.5l-97 133q-13 18 -3 36.5t28.5 31t40 15t31.5 -12.5z" />
    <glyph glyph-name="Dcaron" unicode="&#x10e;" horiz-adv-x="814" 
d="M241 651q-37 -16 -64 -21.5t-48 -5t-39 4t-36 5.5q-23 7 -31.5 25.5t-5.5 37.5t16.5 32t34.5 10q31 -9 63 -9.5t60.5 12.5t51 42.5t33.5 79.5q12 22 27.5 32t31 9t29.5 -13t22 -36v-15q61 -8 118.5 -48.5t103.5 -103t76.5 -141t39.5 -163t-8 -170t-67 -161.5
q29 1 59.5 29t57.5 67t47.5 79t28.5 65q4 12 20 13t32 -6.5t26 -22.5t2 -36q-17 -33 -36.5 -72.5t-43.5 -77t-53 -70t-63.5 -52t-76 -23t-90.5 16.5q-27 -13 -61 -18q-35 -3 -71 4.5t-70 23t-64 38t-53 48.5l-22 -73q-6 -19 -24.5 -21t-37.5 6.5t-32.5 25.5t-9.5 36z
M372 722q-12 -51 -23 -107.5t-21.5 -112.5t-20.5 -108t-19 -94q42 18 82 9t76 -34t67 -60t55 -69q18 33 26 83t4 108t-20 118.5t-44 114t-68.5 94t-93.5 58.5zM315 186q4 -20 22 -41t42 -38.5t50.5 -29t47.5 -10.5q-17 26 -35.5 51.5t-38.5 43.5t-42 25.5t-46 -1.5z
M536 1032l62 83q10 15 31.5 12.5t40 -15t28.5 -31t-3 -36.5l-98 -132q-15 -22 -32.5 -30t-34 -6.5t-31.5 11t-24 22.5l-97 133q-13 18 -3 36.5t28.5 31t40 15t31.5 -12.5z" />
    <glyph glyph-name="dcaron" unicode="&#x10f;" horiz-adv-x="575" 
d="M14 200q-6 49 3.5 101t32.5 97t57.5 78.5t78.5 47.5q35 11 75.5 7t85.5 -30q6 22 15 64t19.5 90t20.5 95.5t16 82.5q4 24 22 33t37.5 5t34 -19t10.5 -40q-7 -48 -19.5 -116.5t-25 -144.5t-22.5 -152t-11.5 -139t7 -106.5t32.5 -54.5q13 -6 29 3.5t31 29.5t26 50t13 66
q7 27 23 35.5t31.5 4t26 -19.5t6.5 -35q-2 -34 -16 -76.5t-39 -80.5t-60 -64t-78 -26q-26 0 -48 13.5t-39 33t-28.5 42t-16.5 41.5q-26 -36 -57.5 -58t-66.5 -30t-69 -1t-62.5 28.5t-48.5 57.5t-26 87zM330 374q-28 27 -55.5 33.5t-52.5 -1.5q-21 -7 -38.5 -23.5t-30.5 -39
t-20 -49.5t-6 -55q2 -57 28.5 -80.5t58.5 -17.5q26 5 50.5 28.5t37.5 65.5q5 16 10 35t9 38t6.5 36.5t2.5 29.5zM607 734q26 -16 45 -42t28.5 -59t7.5 -70t-18 -75q-8 -20 -28.5 -28t-39.5 -4t-30.5 19.5t-0.5 42.5q17 42 8 71.5t-34 51.5q-16 14 -15 34.5t11.5 37
t28.5 24.5t37 -3z" />
    <glyph glyph-name="Dcroat" unicode="&#x110;" horiz-adv-x="814" 
d="M241 651q-37 -16 -64 -21.5t-48 -5t-39 4t-36 5.5q-23 7 -31.5 25.5t-5.5 37.5t16.5 32t34.5 10q31 -9 63 -9.5t60.5 12.5t51 42.5t33.5 79.5q12 22 27.5 32t31 9t29.5 -13t22 -36v-15q61 -8 118.5 -48.5t103.5 -103t76.5 -141t39.5 -163t-8 -170t-67 -161.5
q29 1 59.5 29t57.5 67t47.5 79t28.5 65q4 12 20 13t32 -6.5t26 -22.5t2 -36q-17 -33 -36.5 -72.5t-43.5 -77t-53 -70t-63.5 -52t-76 -23t-90.5 16.5q-27 -13 -61 -18q-35 -3 -71 4.5t-70 23t-64 38t-53 48.5l-22 -73q-6 -19 -24.5 -21t-37.5 6.5t-32.5 25.5t-9.5 36z
M372 722q-12 -51 -23 -107.5t-21.5 -112.5t-20.5 -108t-19 -94q42 18 82 9t76 -34t67 -60t55 -69q18 33 26 83t4 108t-20 118.5t-44 114t-68.5 94t-93.5 58.5zM315 186q4 -20 22 -41t42 -38.5t50.5 -29t47.5 -10.5q-17 26 -35.5 51.5t-38.5 43.5t-42 25.5t-46 -1.5zM143 397
q-18 0 -28.5 17t-11.5 38t8 38t31 17l305 5q21 0 33.5 -17t14 -37.5t-9.5 -38t-37 -17.5z" />
    <glyph glyph-name="dcroat" unicode="&#x111;" horiz-adv-x="575" 
d="M14 200q-6 49 3.5 101t32.5 97t57.5 78.5t78.5 47.5q35 11 75.5 7t85.5 -30q6 22 15 64t19.5 90t20.5 95.5t16 82.5q4 24 22 33t37.5 5t34 -19t10.5 -40q-7 -48 -19.5 -116.5t-25 -144.5t-22.5 -152t-11.5 -139t7 -106.5t32.5 -54.5q13 -6 29 3.5t31 29.5t26 50t13 66
q7 27 23 35.5t31.5 4t26 -19.5t6.5 -35q-2 -34 -16 -76.5t-39 -80.5t-60 -64t-78 -26q-26 0 -48 13.5t-39 33t-28.5 42t-16.5 41.5q-26 -36 -57.5 -58t-66.5 -30t-69 -1t-62.5 28.5t-48.5 57.5t-26 87zM330 374q-28 27 -55.5 33.5t-52.5 -1.5q-21 -7 -38.5 -23.5t-30.5 -39
t-20 -49.5t-6 -55q2 -57 28.5 -80.5t58.5 -17.5q26 5 50.5 28.5t37.5 65.5q5 16 10 35t9 38t6.5 36.5t2.5 29.5zM270 595q-18 0 -28 18.5t-11 41t8.5 41.5t31.5 19l305 5q21 0 33.5 -18.5t13.5 -41t-10.5 -41.5t-37.5 -19z" />
    <glyph glyph-name="Emacron" unicode="&#x112;" horiz-adv-x="483" 
d="M69 748q18 28 44.5 52.5t59 40.5t68 19t71.5 -13q13 10 28.5 14t29 0t23 -16.5t10.5 -36.5q8 -52 6.5 -94.5t-6.5 -72.5q-6 -20 -22.5 -29t-33.5 -8.5t-30.5 9.5t-12.5 24q4 22 1.5 45t-13 38.5t-29 19.5t-46.5 -11q-26 -14 -42.5 -36t-24 -48.5t-7 -56t8.5 -57.5
q7 -24 22 -39.5t34 -22.5t41 -6.5t44 7.5q16 8 28 3t19 -17t9 -28.5t-1 -31.5t-11.5 -27t-22.5 -15q-43 -5 -83 -19t-68 -39t-37.5 -62.5t8.5 -88.5q13 -37 49 -46.5t81 1.5q34 8 69 24.5t66 40t57 53t43 62.5q9 18 26.5 20.5t33 -5.5t24 -23.5t0.5 -32.5q-21 -41 -51.5 -77
t-68.5 -66t-81.5 -53.5t-90.5 -39.5q-44 -15 -87 -18t-79.5 11.5t-64.5 48.5t-42 93q-8 31 -8.5 70t8 76.5t26 70.5t46.5 54q-31 31 -48 72.5t-19.5 87.5t9 92.5t37.5 86.5zM83 889q-18 0 -28.5 17t-11.5 38t8 38t31 17l305 5q21 0 33.5 -17t14 -37.5t-9.5 -38t-37 -17.5z
" />
    <glyph glyph-name="emacron" unicode="&#x113;" horiz-adv-x="403" 
d="M351 471q-2 -50 -18 -100.5t-47 -91t-75.5 -65t-101.5 -20.5q1 -31 7 -60t19.5 -49.5t36.5 -29t58 2.5q35 10 67 33t57.5 53t43 63.5t25.5 65.5q4 17 19 21t31.5 -1t28 -17.5t7.5 -28.5q-22 -58 -43.5 -103t-47.5 -79.5t-58.5 -58.5t-76.5 -40q-59 -21 -109 -18.5
t-87 26.5t-58.5 68t-24.5 107q-2 30 -1.5 72.5t5.5 89t16 94.5t30 89.5t47.5 73t69.5 45.5q34 12 67 9t58.5 -21t40.5 -50.5t14 -79.5zM225 497q-14 9 -27.5 1.5t-25.5 -25t-21 -41.5t-15 -49.5t-9 -48.5t-1 -37q46 9 73 38t37.5 62t7 62t-18.5 38zM59 667q-18 0 -28.5 17
t-11.5 38t8 38t31 17l305 5q21 0 33.5 -17t14 -37.5t-9.5 -38t-37 -17.5z" />
    <glyph glyph-name="Ebreve" unicode="&#x114;" horiz-adv-x="483" 
d="M69 748q18 28 44.5 52.5t59 40.5t68 19t71.5 -13q13 10 28.5 14t29 0t23 -16.5t10.5 -36.5q8 -52 6.5 -94.5t-6.5 -72.5q-6 -20 -22.5 -29t-33.5 -8.5t-30.5 9.5t-12.5 24q4 22 1.5 45t-13 38.5t-29 19.5t-46.5 -11q-26 -14 -42.5 -36t-24 -48.5t-7 -56t8.5 -57.5
q7 -24 22 -39.5t34 -22.5t41 -6.5t44 7.5q16 8 28 3t19 -17t9 -28.5t-1 -31.5t-11.5 -27t-22.5 -15q-43 -5 -83 -19t-68 -39t-37.5 -62.5t8.5 -88.5q13 -37 49 -46.5t81 1.5q34 8 69 24.5t66 40t57 53t43 62.5q9 18 26.5 20.5t33 -5.5t24 -23.5t0.5 -32.5q-21 -41 -51.5 -77
t-68.5 -66t-81.5 -53.5t-90.5 -39.5q-44 -15 -87 -18t-79.5 11.5t-64.5 48.5t-42 93q-8 31 -8.5 70t8 76.5t26 70.5t46.5 54q-31 31 -48 72.5t-19.5 87.5t9 92.5t37.5 86.5zM399 971q-24 -42 -66 -67t-88.5 -28.5t-90.5 16t-71 67.5q-11 19 -4.5 39.5t21.5 33t33.5 13
t31.5 -20.5q16 -25 38 -35.5t44.5 -8.5t42 14t31.5 32q10 18 28 18.5t32.5 -9.5t21.5 -27.5t-4 -36.5z" />
    <glyph glyph-name="ebreve" unicode="&#x115;" horiz-adv-x="403" 
d="M351 471q-2 -50 -18 -100.5t-47 -91t-75.5 -65t-101.5 -20.5q1 -31 7 -60t19.5 -49.5t36.5 -29t58 2.5q35 10 67 33t57.5 53t43 63.5t25.5 65.5q4 17 19 21t31.5 -1t28 -17.5t7.5 -28.5q-22 -58 -43.5 -103t-47.5 -79.5t-58.5 -58.5t-76.5 -40q-59 -21 -109 -18.5
t-87 26.5t-58.5 68t-24.5 107q-2 30 -1.5 72.5t5.5 89t16 94.5t30 89.5t47.5 73t69.5 45.5q34 12 67 9t58.5 -21t40.5 -50.5t14 -79.5zM225 497q-14 9 -27.5 1.5t-25.5 -25t-21 -41.5t-15 -49.5t-9 -48.5t-1 -37q46 9 73 38t37.5 62t7 62t-18.5 38zM373 774q-24 -42 -66 -67
t-88.5 -28.5t-90.5 16t-71 67.5q-11 19 -4.5 39.5t21.5 33t33.5 13t31.5 -20.5q16 -25 38 -35.5t44.5 -8.5t42 14t31.5 32q10 18 28 18.5t32.5 -9.5t21.5 -27.5t-4 -36.5z" />
    <glyph glyph-name="Edotaccent" unicode="&#x116;" horiz-adv-x="483" 
d="M69 748q18 28 44.5 52.5t59 40.5t68 19t71.5 -13q13 10 28.5 14t29 0t23 -16.5t10.5 -36.5q8 -52 6.5 -94.5t-6.5 -72.5q-6 -20 -22.5 -29t-33.5 -8.5t-30.5 9.5t-12.5 24q4 22 1.5 45t-13 38.5t-29 19.5t-46.5 -11q-26 -14 -42.5 -36t-24 -48.5t-7 -56t8.5 -57.5
q7 -24 22 -39.5t34 -22.5t41 -6.5t44 7.5q16 8 28 3t19 -17t9 -28.5t-1 -31.5t-11.5 -27t-22.5 -15q-43 -5 -83 -19t-68 -39t-37.5 -62.5t8.5 -88.5q13 -37 49 -46.5t81 1.5q34 8 69 24.5t66 40t57 53t43 62.5q9 18 26.5 20.5t33 -5.5t24 -23.5t0.5 -32.5q-21 -41 -51.5 -77
t-68.5 -66t-81.5 -53.5t-90.5 -39.5q-44 -15 -87 -18t-79.5 11.5t-64.5 48.5t-42 93q-8 31 -8.5 70t8 76.5t26 70.5t46.5 54q-31 31 -48 72.5t-19.5 87.5t9 92.5t37.5 86.5zM201 896q-22 25 -16.5 51t24.5 41t45.5 14t47.5 -29q9 -15 8.5 -30t-8 -28t-20.5 -22t-27.5 -13
t-28.5 -0.5t-25 16.5z" />
    <glyph glyph-name="edotaccent" unicode="&#x117;" horiz-adv-x="403" 
d="M351 471q-2 -50 -18 -100.5t-47 -91t-75.5 -65t-101.5 -20.5q1 -31 7 -60t19.5 -49.5t36.5 -29t58 2.5q35 10 67 33t57.5 53t43 63.5t25.5 65.5q4 17 19 21t31.5 -1t28 -17.5t7.5 -28.5q-22 -58 -43.5 -103t-47.5 -79.5t-58.5 -58.5t-76.5 -40q-59 -21 -109 -18.5
t-87 26.5t-58.5 68t-24.5 107q-2 30 -1.5 72.5t5.5 89t16 94.5t30 89.5t47.5 73t69.5 45.5q34 12 67 9t58.5 -21t40.5 -50.5t14 -79.5zM225 497q-14 9 -27.5 1.5t-25.5 -25t-21 -41.5t-15 -49.5t-9 -48.5t-1 -37q46 9 73 38t37.5 62t7 62t-18.5 38zM175 689q-22 25 -16.5 51
t24.5 41t45.5 14t47.5 -29q9 -15 8.5 -30t-8 -28t-20.5 -22t-27.5 -13t-28.5 -0.5t-25 16.5z" />
    <glyph glyph-name="Eogonek" unicode="&#x118;" horiz-adv-x="483" 
d="M69 748q18 28 44.5 52.5t59 40.5t68 19t71.5 -13q13 10 28.5 14t29 0t23 -16.5t10.5 -36.5q8 -52 6.5 -94.5t-6.5 -72.5q-6 -20 -22.5 -29t-33.5 -8.5t-30.5 9.5t-12.5 24q4 22 1.5 45t-13 38.5t-29 19.5t-46.5 -11q-26 -14 -42.5 -36t-24 -48.5t-7 -56t8.5 -57.5
q7 -24 22 -39.5t34 -22.5t41 -6.5t44 7.5q16 8 28 3t19 -17t9 -28.5t-1 -31.5t-11.5 -27t-22.5 -15q-43 -5 -83 -19t-68 -39t-37.5 -62.5t8.5 -88.5q13 -37 49 -46.5t81 1.5q34 8 69 24.5t66 40t57 53t43 62.5q9 18 26.5 20.5t33 -5.5t24 -23.5t0.5 -32.5q-21 -41 -51.5 -77
t-68.5 -66t-81.5 -53.5t-90.5 -39.5q-44 -15 -87 -18t-79.5 11.5t-64.5 48.5t-42 93q-8 31 -8.5 70t8 76.5t26 70.5t46.5 54q-31 31 -48 72.5t-19.5 87.5t9 92.5t37.5 86.5zM343 28q-18 -8 -31.5 -25t-16.5 -36t6.5 -36.5t38.5 -26.5q16 -5 19 -21t-3 -32.5t-20.5 -28
t-33.5 -5.5q-46 14 -69 42t-28.5 61.5t4 68t27.5 62t42.5 42.5t48.5 9q12 -3 21.5 -12.5t13 -21.5t-0.5 -23t-18 -17z" />
    <glyph glyph-name="eogonek" unicode="&#x119;" horiz-adv-x="403" 
d="M351 471q-2 -50 -18 -100.5t-47 -91t-75.5 -65t-101.5 -20.5q1 -31 7 -60t19.5 -49.5t36.5 -29t58 2.5q35 10 67 33t57.5 53t43 63.5t25.5 65.5q4 17 19 21t31.5 -1t28 -17.5t7.5 -28.5q-22 -58 -43.5 -103t-47.5 -79.5t-58.5 -58.5t-76.5 -40q-59 -21 -109 -18.5
t-87 26.5t-58.5 68t-24.5 107q-2 30 -1.5 72.5t5.5 89t16 94.5t30 89.5t47.5 73t69.5 45.5q34 12 67 9t58.5 -21t40.5 -50.5t14 -79.5zM225 497q-14 9 -27.5 1.5t-25.5 -25t-21 -41.5t-15 -49.5t-9 -48.5t-1 -37q46 9 73 38t37.5 62t7 62t-18.5 38zM306 -24
q-18 -8 -31.5 -25t-16.5 -36t6.5 -36.5t38.5 -26.5q16 -5 19 -21t-3 -32.5t-20.5 -28t-33.5 -5.5q-46 14 -69 42t-28.5 61.5t4 68t27.5 62t42.5 42.5t48.5 9q12 -3 21.5 -12.5t13 -21.5t-0.5 -23t-18 -17z" />
    <glyph glyph-name="Ecaron" unicode="&#x11a;" horiz-adv-x="483" 
d="M69 748q18 28 44.5 52.5t59 40.5t68 19t71.5 -13q13 10 28.5 14t29 0t23 -16.5t10.5 -36.5q8 -52 6.5 -94.5t-6.5 -72.5q-6 -20 -22.5 -29t-33.5 -8.5t-30.5 9.5t-12.5 24q4 22 1.5 45t-13 38.5t-29 19.5t-46.5 -11q-26 -14 -42.5 -36t-24 -48.5t-7 -56t8.5 -57.5
q7 -24 22 -39.5t34 -22.5t41 -6.5t44 7.5q16 8 28 3t19 -17t9 -28.5t-1 -31.5t-11.5 -27t-22.5 -15q-43 -5 -83 -19t-68 -39t-37.5 -62.5t8.5 -88.5q13 -37 49 -46.5t81 1.5q34 8 69 24.5t66 40t57 53t43 62.5q9 18 26.5 20.5t33 -5.5t24 -23.5t0.5 -32.5q-21 -41 -51.5 -77
t-68.5 -66t-81.5 -53.5t-90.5 -39.5q-44 -15 -87 -18t-79.5 11.5t-64.5 48.5t-42 93q-8 31 -8.5 70t8 76.5t26 70.5t46.5 54q-31 31 -48 72.5t-19.5 87.5t9 92.5t37.5 86.5zM246 1056l62 83q10 15 31.5 12.5t40 -15t28.5 -31t-3 -36.5l-98 -132q-15 -22 -32.5 -30t-34 -6.5
t-31.5 11t-24 22.5l-97 133q-13 18 -3 36.5t28.5 31t40 15t31.5 -12.5z" />
    <glyph glyph-name="ecaron" unicode="&#x11b;" horiz-adv-x="403" 
d="M351 471q-2 -50 -18 -100.5t-47 -91t-75.5 -65t-101.5 -20.5q1 -31 7 -60t19.5 -49.5t36.5 -29t58 2.5q35 10 67 33t57.5 53t43 63.5t25.5 65.5q4 17 19 21t31.5 -1t28 -17.5t7.5 -28.5q-22 -58 -43.5 -103t-47.5 -79.5t-58.5 -58.5t-76.5 -40q-59 -21 -109 -18.5
t-87 26.5t-58.5 68t-24.5 107q-2 30 -1.5 72.5t5.5 89t16 94.5t30 89.5t47.5 73t69.5 45.5q34 12 67 9t58.5 -21t40.5 -50.5t14 -79.5zM225 497q-14 9 -27.5 1.5t-25.5 -25t-21 -41.5t-15 -49.5t-9 -48.5t-1 -37q46 9 73 38t37.5 62t7 62t-18.5 38zM230 815l62 83
q10 15 31.5 12.5t40 -15t28.5 -31t-3 -36.5l-98 -132q-15 -22 -32.5 -30t-34 -6.5t-31.5 11t-24 22.5l-97 133q-13 18 -3 36.5t28.5 31t40 15t31.5 -12.5z" />
    <glyph glyph-name="Gcircumflex" unicode="&#x11c;" horiz-adv-x="838" 
d="M77 -96q-20 -11 -38 -1t-28 29t-8 41.5t22 36.5q16 10 37.5 32t43 48.5t41.5 53t33 46.5q-4 16 -3 35t8 35t21 26.5t36 10.5q7 14 16.5 41t19 57t18 57.5t14.5 41.5q-40 7 -64.5 37.5t-35.5 72t-8 88t19 86t44.5 65.5t69.5 28q45 1 72 -15.5t41.5 -45.5t19.5 -67.5
t6 -81.5q22 17 43.5 37.5t40 41t32 40.5t21.5 37v2h1q5 29 23.5 41t39.5 8.5t37.5 -21t17.5 -47.5v-91t-0.5 -108.5t-3 -118.5t-7 -120t-11.5 -113t-18 -98q17 9 37.5 25t42 35.5t42 42.5t37.5 47q6 16 22.5 17.5t33 -7.5t26 -25.5t2.5 -36.5q-21 -47 -62 -93t-92 -85
t-108 -66.5t-109 -35.5q-39 -5 -82.5 1t-86.5 20t-81 37t-66 53q-14 -20 -33.5 -46.5t-42 -52.5t-46.5 -47t-47 -30zM443 509q-9 -30 -23 -71.5t-30.5 -85.5t-34 -85t-33.5 -70q16 -24 43 -48t58.5 -39t65 -16.5t62.5 19.5q17 43 29.5 106t20 133t10.5 140.5t3 128.5
q-39 -37 -83.5 -66t-87.5 -46zM343 744q-8 2 -14.5 -15.5t-8 -41t3.5 -46t22 -31.5q7 33 9 66.5t-12 67.5zM588 1010l-56 -75q-9 -14 -28.5 -11.5t-37 13.5t-26.5 28t3 33l89 121q14 19 30 26.5t31.5 6t28.5 -10t22 -20.5l88 -121q12 -17 3 -33.5t-26.5 -28t-36.5 -13.5
t-28 11z" />
    <glyph glyph-name="gcircumflex" unicode="&#x11d;" horiz-adv-x="549" 
d="M334 552q4 13 20 21.5t33.5 5t31.5 -22t14 -57.5q-1 -15 -3.5 -51.5t-5.5 -82t-6.5 -95.5t-6.5 -90.5t-5 -67t-1 -26.5q11 4 27.5 13t37 29.5t44.5 53.5t50 85q9 12 24.5 10.5t29 -11t20.5 -25.5t0 -33q-42 -90 -101.5 -147.5t-131.5 -95.5q1 -38 -3.5 -87.5t-15 -101.5
t-27.5 -101t-42.5 -85.5t-59.5 -56t-78 -11.5q-51 9 -77 42.5t-31 81t10 103t46 107.5t75 95t99 67v24q-25 -20 -58 -34t-67.5 -17t-66.5 7t-54 38q-37 47 -48 118t1 144q11 68 42.5 122.5t76 90t98 47.5t109.5 -6zM161 106q31 -3 54 14t39 47t26.5 68.5t16 78.5t7 77
t0.5 65q-69 -8 -116 -54.5t-61 -118.5q-2 -12 -4.5 -40t0 -58t11 -53.5t27.5 -25.5zM195 -372q17 -3 32 13t27.5 42.5t22 60t16 65.5t10 59.5t4.5 42.5q-21 -11 -42 -36t-39 -56t-31.5 -63.5t-18.5 -60t-1.5 -46.5t20.5 -21zM275 696l-56 -75q-9 -14 -28.5 -11.5t-37 13.5
t-26.5 28t3 33l89 121q14 19 30 26.5t31.5 6t28.5 -10t22 -20.5l88 -121q12 -17 3 -33.5t-26.5 -28t-36.5 -13.5t-28 11z" />
    <glyph glyph-name="Gbreve" unicode="&#x11e;" horiz-adv-x="838" 
d="M77 -96q-20 -11 -38 -1t-28 29t-8 41.5t22 36.5q16 10 37.5 32t43 48.5t41.5 53t33 46.5q-4 16 -3 35t8 35t21 26.5t36 10.5q7 14 16.5 41t19 57t18 57.5t14.5 41.5q-40 7 -64.5 37.5t-35.5 72t-8 88t19 86t44.5 65.5t69.5 28q45 1 72 -15.5t41.5 -45.5t19.5 -67.5
t6 -81.5q22 17 43.5 37.5t40 41t32 40.5t21.5 37v2h1q5 29 23.5 41t39.5 8.5t37.5 -21t17.5 -47.5v-91t-0.5 -108.5t-3 -118.5t-7 -120t-11.5 -113t-18 -98q17 9 37.5 25t42 35.5t42 42.5t37.5 47q6 16 22.5 17.5t33 -7.5t26 -25.5t2.5 -36.5q-21 -47 -62 -93t-92 -85
t-108 -66.5t-109 -35.5q-39 -5 -82.5 1t-86.5 20t-81 37t-66 53q-14 -20 -33.5 -46.5t-42 -52.5t-46.5 -47t-47 -30zM443 509q-9 -30 -23 -71.5t-30.5 -85.5t-34 -85t-33.5 -70q16 -24 43 -48t58.5 -39t65 -16.5t62.5 19.5q17 43 29.5 106t20 133t10.5 140.5t3 128.5
q-39 -37 -83.5 -66t-87.5 -46zM343 744q-8 2 -14.5 -15.5t-8 -41t3.5 -46t22 -31.5q7 33 9 66.5t-12 67.5zM693 1014q-24 -42 -66 -67t-88.5 -28.5t-90.5 16t-71 67.5q-11 19 -4.5 39.5t21.5 33t33.5 13t31.5 -20.5q16 -25 38 -35.5t44.5 -8.5t42 14t31.5 32q10 18 28 18.5
t32.5 -9.5t21.5 -27.5t-4 -36.5z" />
    <glyph glyph-name="gbreve" unicode="&#x11f;" horiz-adv-x="549" 
d="M334 552q4 13 20 21.5t33.5 5t31.5 -22t14 -57.5q-1 -15 -3.5 -51.5t-5.5 -82t-6.5 -95.5t-6.5 -90.5t-5 -67t-1 -26.5q11 4 27.5 13t37 29.5t44.5 53.5t50 85q9 12 24.5 10.5t29 -11t20.5 -25.5t0 -33q-42 -90 -101.5 -147.5t-131.5 -95.5q1 -38 -3.5 -87.5t-15 -101.5
t-27.5 -101t-42.5 -85.5t-59.5 -56t-78 -11.5q-51 9 -77 42.5t-31 81t10 103t46 107.5t75 95t99 67v24q-25 -20 -58 -34t-67.5 -17t-66.5 7t-54 38q-37 47 -48 118t1 144q11 68 42.5 122.5t76 90t98 47.5t109.5 -6zM161 106q31 -3 54 14t39 47t26.5 68.5t16 78.5t7 77
t0.5 65q-69 -8 -116 -54.5t-61 -118.5q-2 -12 -4.5 -40t0 -58t11 -53.5t27.5 -25.5zM195 -372q17 -3 32 13t27.5 42.5t22 60t16 65.5t10 59.5t4.5 42.5q-21 -11 -42 -36t-39 -56t-31.5 -63.5t-18.5 -60t-1.5 -46.5t20.5 -21zM432 706q-24 -42 -66 -67t-88.5 -28.5t-90.5 16
t-71 67.5q-11 19 -4.5 39.5t21.5 33t33.5 13t31.5 -20.5q16 -25 38 -35.5t44.5 -8.5t42 14t31.5 32q10 18 28 18.5t32.5 -9.5t21.5 -27.5t-4 -36.5z" />
    <glyph glyph-name="Gdotaccent" unicode="&#x120;" horiz-adv-x="838" 
d="M77 -96q-20 -11 -38 -1t-28 29t-8 41.5t22 36.5q16 10 37.5 32t43 48.5t41.5 53t33 46.5q-4 16 -3 35t8 35t21 26.5t36 10.5q7 14 16.5 41t19 57t18 57.5t14.5 41.5q-40 7 -64.5 37.5t-35.5 72t-8 88t19 86t44.5 65.5t69.5 28q45 1 72 -15.5t41.5 -45.5t19.5 -67.5
t6 -81.5q22 17 43.5 37.5t40 41t32 40.5t21.5 37v2h1q5 29 23.5 41t39.5 8.5t37.5 -21t17.5 -47.5v-91t-0.5 -108.5t-3 -118.5t-7 -120t-11.5 -113t-18 -98q17 9 37.5 25t42 35.5t42 42.5t37.5 47q6 16 22.5 17.5t33 -7.5t26 -25.5t2.5 -36.5q-21 -47 -62 -93t-92 -85
t-108 -66.5t-109 -35.5q-39 -5 -82.5 1t-86.5 20t-81 37t-66 53q-14 -20 -33.5 -46.5t-42 -52.5t-46.5 -47t-47 -30zM443 509q-9 -30 -23 -71.5t-30.5 -85.5t-34 -85t-33.5 -70q16 -24 43 -48t58.5 -39t65 -16.5t62.5 19.5q17 43 29.5 106t20 133t10.5 140.5t3 128.5
q-39 -37 -83.5 -66t-87.5 -46zM343 744q-8 2 -14.5 -15.5t-8 -41t3.5 -46t22 -31.5q7 33 9 66.5t-12 67.5zM494 896q-22 25 -16.5 51t24.5 41t45.5 14t47.5 -29q9 -15 8.5 -30t-8 -28t-20.5 -22t-27.5 -13t-28.5 -0.5t-25 16.5z" />
    <glyph glyph-name="gdotaccent" unicode="&#x121;" horiz-adv-x="549" 
d="M334 552q4 13 20 21.5t33.5 5t31.5 -22t14 -57.5q-1 -15 -3.5 -51.5t-5.5 -82t-6.5 -95.5t-6.5 -90.5t-5 -67t-1 -26.5q11 4 27.5 13t37 29.5t44.5 53.5t50 85q9 12 24.5 10.5t29 -11t20.5 -25.5t0 -33q-42 -90 -101.5 -147.5t-131.5 -95.5q1 -38 -3.5 -87.5t-15 -101.5
t-27.5 -101t-42.5 -85.5t-59.5 -56t-78 -11.5q-51 9 -77 42.5t-31 81t10 103t46 107.5t75 95t99 67v24q-25 -20 -58 -34t-67.5 -17t-66.5 7t-54 38q-37 47 -48 118t1 144q11 68 42.5 122.5t76 90t98 47.5t109.5 -6zM161 106q31 -3 54 14t39 47t26.5 68.5t16 78.5t7 77
t0.5 65q-69 -8 -116 -54.5t-61 -118.5q-2 -12 -4.5 -40t0 -58t11 -53.5t27.5 -25.5zM195 -372q17 -3 32 13t27.5 42.5t22 60t16 65.5t10 59.5t4.5 42.5q-21 -11 -42 -36t-39 -56t-31.5 -63.5t-18.5 -60t-1.5 -46.5t20.5 -21zM234 631q-22 25 -16.5 51t24.5 41t45.5 14
t47.5 -29q9 -15 8.5 -30t-8 -28t-20.5 -22t-27.5 -13t-28.5 -0.5t-25 16.5z" />
    <glyph glyph-name="Gcommaaccent" unicode="&#x122;" horiz-adv-x="838" 
d="M77 -96q-20 -11 -38 -1t-28 29t-8 41.5t22 36.5q16 10 37.5 32t43 48.5t41.5 53t33 46.5q-4 16 -3 35t8 35t21 26.5t36 10.5q7 14 16.5 41t19 57t18 57.5t14.5 41.5q-40 7 -64.5 37.5t-35.5 72t-8 88t19 86t44.5 65.5t69.5 28q45 1 72 -15.5t41.5 -45.5t19.5 -67.5
t6 -81.5q22 17 43.5 37.5t40 41t32 40.5t21.5 37v2h1q5 29 23.5 41t39.5 8.5t37.5 -21t17.5 -47.5v-91t-0.5 -108.5t-3 -118.5t-7 -120t-11.5 -113t-18 -98q17 9 37.5 25t42 35.5t42 42.5t37.5 47q6 16 22.5 17.5t33 -7.5t26 -25.5t2.5 -36.5q-21 -47 -62 -93t-92 -85
t-108 -66.5t-109 -35.5q-39 -5 -82.5 1t-86.5 20t-81 37t-66 53q-14 -20 -33.5 -46.5t-42 -52.5t-46.5 -47t-47 -30zM443 509q-9 -30 -23 -71.5t-30.5 -85.5t-34 -85t-33.5 -70q16 -24 43 -48t58.5 -39t65 -16.5t62.5 19.5q17 43 29.5 106t20 133t10.5 140.5t3 128.5
q-39 -37 -83.5 -66t-87.5 -46zM343 744q-8 2 -14.5 -15.5t-8 -41t3.5 -46t22 -31.5q7 33 9 66.5t-12 67.5zM337 -145q-18 34 -7.5 54t31.5 26.5t45 0.5t33 -23t19 -44t12.5 -60t-6.5 -71.5t-37 -78.5q-16 -23 -39 -23.5t-40.5 11.5t-23 32.5t12.5 41.5q16 18 20.5 37t2 36
t-9.5 33t-13 28z" />
    <glyph glyph-name="gcommaaccent" unicode="&#x123;" horiz-adv-x="549" 
d="M334 552q4 13 20 21.5t33.5 5t31.5 -22t14 -57.5q-1 -15 -3.5 -51.5t-5.5 -82t-6.5 -95.5t-6.5 -90.5t-5 -67t-1 -26.5q11 4 27.5 13t37 29.5t44.5 53.5t50 85q9 12 24.5 10.5t29 -11t20.5 -25.5t0 -33q-42 -90 -101.5 -147.5t-131.5 -95.5q1 -38 -3.5 -87.5t-15 -101.5
t-27.5 -101t-42.5 -85.5t-59.5 -56t-78 -11.5q-51 9 -77 42.5t-31 81t10 103t46 107.5t75 95t99 67v24q-25 -20 -58 -34t-67.5 -17t-66.5 7t-54 38q-37 47 -48 118t1 144q11 68 42.5 122.5t76 90t98 47.5t109.5 -6zM161 106q31 -3 54 14t39 47t26.5 68.5t16 78.5t7 77
t0.5 65q-69 -8 -116 -54.5t-61 -118.5q-2 -12 -4.5 -40t0 -58t11 -53.5t27.5 -25.5zM195 -372q17 -3 32 13t27.5 42.5t22 60t16 65.5t10 59.5t4.5 42.5q-21 -11 -42 -36t-39 -56t-31.5 -63.5t-18.5 -60t-1.5 -46.5t20.5 -21zM217 604q-26 16 -45 42t-28.5 59t-7.5 70t18 75
q8 20 28.5 28t39.5 4t30 -19.5t1 -42.5q-17 -42 -8 -71.5t34 -51.5q16 -14 15 -34.5t-11.5 -37t-28.5 -24.5t-37 3z" />
    <glyph glyph-name="Hcircumflex" unicode="&#x124;" horiz-adv-x="638" 
d="M453 832q1 19 18.5 25t38.5 2t38 -15.5t17 -26.5l-43 -546q13 -2 31 1.5t37 9t36.5 11.5t29.5 9q16 5 26 -9t12.5 -33t-3 -37t-18.5 -21q-12 -4 -25.5 -9.5t-31.5 -11t-41 -11.5t-55 -10l-12 -138q-1 -16 -19.5 -24.5t-39.5 -9.5t-38.5 5.5t-16.5 21.5l8 131
q-34 -3 -67.5 -1t-63.5 7t-54.5 12t-39.5 14l-7 -147q0 -18 -18.5 -27t-41 -9t-41.5 8.5t-20 26.5q-1 9 1 39.5t4.5 66t5 66t2.5 39.5q-29 25 -43 55.5t-12.5 61.5t20 61t54.5 53q3 37 5.5 84t5 95.5t5 95.5t5.5 85q3 22 21.5 30t39.5 5t37.5 -15.5t15.5 -31.5
q-2 -33 -4.5 -76t-4.5 -88t-4.5 -88t-5.5 -76q27 -5 56.5 -18.5t58.5 -31.5t55.5 -40t46.5 -45q2 19 5 54t6.5 78.5t8 92t8 95t6.5 87t5 68.5zM190 366q-2 -16 -2.5 -31t-1.5 -31q25 -21 55.5 -29t62.5 -10q-23 29 -51 56t-63 45zM348 976l-56 -75q-9 -14 -28.5 -11.5
t-37 13.5t-26.5 28t3 33l89 121q14 19 30 26.5t31.5 6t28.5 -10t22 -20.5l88 -121q12 -17 3 -33.5t-26.5 -28t-36.5 -13.5t-28 11z" />
    <glyph glyph-name="hcircumflex" unicode="&#x125;" horiz-adv-x="512" 
d="M341 -25q-33 10 -44.5 45t-10.5 81.5t10 99t16 97.5t7.5 76.5t-15.5 36.5q-23 7 -50.5 -2t-52.5 -25.5t-43 -36t-21 -34.5l-53 -296q-3 -18 -21.5 -26.5t-39 -7.5t-35.5 11t-10 28q7 52 13 99t13.5 97t16.5 107t20.5 129t26 163t33.5 209q3 21 15.5 32t28 14t32 -1
t29.5 -13t19.5 -21.5t1.5 -26.5l-58 -336q34 21 68.5 32.5t65.5 13t55 -6.5t38 -25q16 -21 21.5 -52t4 -67.5t-7.5 -75.5t-11.5 -75.5t-8 -68t2.5 -52.5q8 -1 20.5 9.5t27 28.5t29.5 40t28.5 43.5t23 39.5t13.5 28q12 15 28.5 16t30 -9t19.5 -29t-4 -43q-12 -22 -28 -51.5
t-35.5 -60t-42 -59t-49 -48.5t-56 -28.5t-61.5 1.5zM324 977l-56 -75q-9 -14 -28.5 -11.5t-37 13.5t-26.5 28t3 33l89 121q14 19 30 26.5t31.5 6t28.5 -10t22 -20.5l88 -121q12 -17 3 -33.5t-26.5 -28t-36.5 -13.5t-28 11z" />
    <glyph glyph-name="Hbar" unicode="&#x126;" horiz-adv-x="638" 
d="M69 531q-18 0 -28.5 17t-11.5 38t8 38t31 17l507 -18q21 0 33.5 -17t14 -37.5t-9.5 -38t-37 -17.5zM453 832q1 19 18.5 25t38.5 2t38 -15.5t17 -26.5l-43 -546q13 -2 31 1.5t37 9t36.5 11.5t29.5 9q16 5 26 -9t12.5 -33t-3 -37t-18.5 -21q-12 -4 -25.5 -9.5t-31.5 -11
t-41 -11.5t-55 -10l-12 -138q-1 -16 -19.5 -24.5t-39.5 -9.5t-38.5 5.5t-16.5 21.5l8 131q-34 -3 -67.5 -1t-63.5 7t-54.5 12t-39.5 14l-7 -147q0 -18 -18.5 -27t-41 -9t-41.5 8.5t-20 26.5q-1 9 1 39.5t4.5 66t5 66t2.5 39.5q-29 25 -43 55.5t-12.5 61.5t20 61t54.5 53
q3 37 5.5 84t5 95.5t5 95.5t5.5 85q3 22 21.5 30t39.5 5t37.5 -15.5t15.5 -31.5q-2 -33 -4.5 -76t-4.5 -88t-4.5 -88t-5.5 -76q27 -5 56.5 -18.5t58.5 -31.5t55.5 -40t46.5 -45q2 19 5 54t6.5 78.5t8 92t8 95t6.5 87t5 68.5zM190 366q-2 -16 -2.5 -31t-1.5 -31
q25 -21 55.5 -29t62.5 -10q-23 29 -51 56t-63 45z" />
    <glyph glyph-name="hbar" unicode="&#x127;" horiz-adv-x="515" 
d="M341 -25q-33 10 -44.5 45t-10.5 81.5t10 99t16 97.5t7.5 76.5t-15.5 36.5q-23 7 -50.5 -2t-52.5 -25.5t-43 -36t-21 -34.5l-53 -296q-3 -18 -21.5 -26.5t-39 -7.5t-35.5 11t-10 28q7 52 13 99t13.5 97t16.5 107t20.5 129t26 163t33.5 209q3 21 15.5 32t28 14t32 -1
t29.5 -13t19.5 -21.5t1.5 -26.5l-58 -336q34 21 68.5 32.5t65.5 13t55 -6.5t38 -25q16 -21 21.5 -52t4 -67.5t-7.5 -75.5t-11.5 -75.5t-8 -68t2.5 -52.5q8 -1 20.5 9.5t27 28.5t29.5 40t28.5 43.5t23 39.5t13.5 28q12 15 28.5 16t30 -9t19.5 -29t-4 -43q-12 -22 -28 -51.5
t-35.5 -60t-42 -59t-49 -48.5t-56 -28.5t-61.5 1.5zM-6 596q-18 0 -28.5 17t-11.5 38t8 38t31 17l305 5q21 0 33.5 -17t14 -37.5t-9.5 -38t-37 -17.5z" />
    <glyph glyph-name="Itilde" unicode="&#x128;" horiz-adv-x="727" 
d="M747 292q11 17 28.5 18t32 -9.5t21.5 -29t-3 -39.5q-23 -51 -69 -102.5t-105 -86.5t-125 -44t-130 25q-86 -22 -153 -6t-114.5 59.5t-76.5 109t-39 142.5q-3 21 2 42t17 37t32 24.5t48 5.5l83 -15q24 -6 32.5 -25t5 -39t-16.5 -35.5t-33 -14.5q-14 0 -32 1.5t-26 1.5
q2 -38 18.5 -75.5t43 -66t61 -44t72.5 -8.5q-18 36 -29 79t-15.5 90.5t-3 97t9.5 99.5q12 80 38.5 153.5t66.5 127t91.5 80.5t114.5 15q47 -9 74.5 -41t39.5 -79t10 -105t-14 -120t-32.5 -123t-46 -114.5t-54 -95.5t-56.5 -64q39 -3 74 14t64.5 43.5t53 58t40.5 58.5z
M565 751q-25 5 -48 -10.5t-43 -46t-36 -73t-27.5 -90.5t-18 -99.5t-6 -99.5t8.5 -89.5t24 -71.5q55 63 91 129.5t56 130t27 120.5t4.5 100.5t-11.5 70t-21 29.5zM832 1002q-21 -45 -48.5 -75t-58.5 -41.5t-64 -3.5t-64 38q-24 24 -42.5 33.5t-33.5 6.5t-29 -18.5t-30 -40.5
q-10 -15 -28 -17t-33 5.5t-22.5 23t3.5 34.5q23 40 48 69.5t53.5 41.5t62 2.5t73.5 -48.5q27 -26 48 -32.5t37 1t27.5 25.5t20.5 42q6 17 23 19.5t32.5 -5.5t24.5 -24t0 -36z" />
    <glyph glyph-name="itilde" unicode="&#x129;" horiz-adv-x="248" 
d="M61 536q20 20 41 22.5t37 -7t23.5 -28t1.5 -40.5q-10 -21 -19 -55t-16 -72t-11 -78t-3.5 -73t6.5 -57t19 -30t27.5 -2.5t31 21.5t35.5 54t40 97q8 15 22.5 18.5t28 -1.5t21 -17.5t2.5 -29.5q-9 -35 -29.5 -84t-51.5 -92t-71 -68.5t-87 -12.5q-42 12 -66 48.5t-34 86.5
t-8 108.5t10.5 113.5t22 102.5t27.5 75.5zM353 742q-21 -45 -48.5 -75t-58.5 -41.5t-64 -3.5t-64 38q-24 24 -42.5 33.5t-33.5 6.5t-29 -18.5t-30 -40.5q-10 -15 -28 -17t-33 5.5t-22.5 23t3.5 34.5q23 40 48 69.5t53.5 41.5t62 2.5t73.5 -48.5q27 -26 48 -32.5t37 1
t27.5 25.5t20.5 42q6 17 23 19.5t32.5 -5.5t24.5 -24t0 -36z" />
    <glyph glyph-name="Imacron" unicode="&#x12a;" horiz-adv-x="727" 
d="M747 292q11 17 28.5 18t32 -9.5t21.5 -29t-3 -39.5q-23 -51 -69 -102.5t-105 -86.5t-125 -44t-130 25q-86 -22 -153 -6t-114.5 59.5t-76.5 109t-39 142.5q-3 21 2 42t17 37t32 24.5t48 5.5l83 -15q24 -6 32.5 -25t5 -39t-16.5 -35.5t-33 -14.5q-14 0 -32 1.5t-26 1.5
q2 -38 18.5 -75.5t43 -66t61 -44t72.5 -8.5q-18 36 -29 79t-15.5 90.5t-3 97t9.5 99.5q12 80 38.5 153.5t66.5 127t91.5 80.5t114.5 15q47 -9 74.5 -41t39.5 -79t10 -105t-14 -120t-32.5 -123t-46 -114.5t-54 -95.5t-56.5 -64q39 -3 74 14t64.5 43.5t53 58t40.5 58.5z
M565 751q-25 5 -48 -10.5t-43 -46t-36 -73t-27.5 -90.5t-18 -99.5t-6 -99.5t8.5 -89.5t24 -71.5q55 63 91 129.5t56 130t27 120.5t4.5 100.5t-11.5 70t-21 29.5zM437 903q-18 0 -28.5 17t-11.5 38t8 38t31 17l305 5q21 0 33.5 -17t14 -37.5t-9.5 -38t-37 -17.5z" />
    <glyph glyph-name="imacron" unicode="&#x12b;" horiz-adv-x="248" 
d="M61 536q20 20 41 22.5t37 -7t23.5 -28t1.5 -40.5q-10 -21 -19 -55t-16 -72t-11 -78t-3.5 -73t6.5 -57t19 -30t27.5 -2.5t31 21.5t35.5 54t40 97q8 15 22.5 18.5t28 -1.5t21 -17.5t2.5 -29.5q-9 -35 -29.5 -84t-51.5 -92t-71 -68.5t-87 -12.5q-42 12 -66 48.5t-34 86.5
t-8 108.5t10.5 113.5t22 102.5t27.5 75.5zM-33 624q-18 0 -28.5 17t-11.5 38t8 38t31 17l305 5q21 0 33.5 -17t14 -37.5t-9.5 -38t-37 -17.5z" />
    <glyph glyph-name="Ibreve" unicode="&#x12c;" horiz-adv-x="727" 
d="M747 292q11 17 28.5 18t32 -9.5t21.5 -29t-3 -39.5q-23 -51 -69 -102.5t-105 -86.5t-125 -44t-130 25q-86 -22 -153 -6t-114.5 59.5t-76.5 109t-39 142.5q-3 21 2 42t17 37t32 24.5t48 5.5l83 -15q24 -6 32.5 -25t5 -39t-16.5 -35.5t-33 -14.5q-14 0 -32 1.5t-26 1.5
q2 -38 18.5 -75.5t43 -66t61 -44t72.5 -8.5q-18 36 -29 79t-15.5 90.5t-3 97t9.5 99.5q12 80 38.5 153.5t66.5 127t91.5 80.5t114.5 15q47 -9 74.5 -41t39.5 -79t10 -105t-14 -120t-32.5 -123t-46 -114.5t-54 -95.5t-56.5 -64q39 -3 74 14t64.5 43.5t53 58t40.5 58.5z
M565 751q-25 5 -48 -10.5t-43 -46t-36 -73t-27.5 -90.5t-18 -99.5t-6 -99.5t8.5 -89.5t24 -71.5q55 63 91 129.5t56 130t27 120.5t4.5 100.5t-11.5 70t-21 29.5zM768 1005q-24 -42 -66 -67t-88.5 -28.5t-90.5 16t-71 67.5q-11 19 -4.5 39.5t21.5 33t33.5 13t31.5 -20.5
q16 -25 38 -35.5t44.5 -8.5t42 14t31.5 32q10 18 28 18.5t32.5 -9.5t21.5 -27.5t-4 -36.5z" />
    <glyph glyph-name="ibreve" unicode="&#x12d;" horiz-adv-x="248" 
d="M61 536q20 20 41 22.5t37 -7t23.5 -28t1.5 -40.5q-10 -21 -19 -55t-16 -72t-11 -78t-3.5 -73t6.5 -57t19 -30t27.5 -2.5t31 21.5t35.5 54t40 97q8 15 22.5 18.5t28 -1.5t21 -17.5t2.5 -29.5q-9 -35 -29.5 -84t-51.5 -92t-71 -68.5t-87 -12.5q-42 12 -66 48.5t-34 86.5
t-8 108.5t10.5 113.5t22 102.5t27.5 75.5zM283 706q-24 -42 -66 -67t-88.5 -28.5t-90.5 16t-71 67.5q-11 19 -4.5 39.5t21.5 33t33.5 13t31.5 -20.5q16 -25 38 -35.5t44.5 -8.5t42 14t31.5 32q10 18 28 18.5t32.5 -9.5t21.5 -27.5t-4 -36.5z" />
    <glyph glyph-name="Iogonek" unicode="&#x12e;" horiz-adv-x="727" 
d="M747 292q11 17 28.5 18t32 -9.5t21.5 -29t-3 -39.5q-23 -51 -69 -102.5t-105 -86.5t-125 -44t-130 25q-86 -22 -153 -6t-114.5 59.5t-76.5 109t-39 142.5q-3 21 2 42t17 37t32 24.5t48 5.5l83 -15q24 -6 32.5 -25t5 -39t-16.5 -35.5t-33 -14.5q-14 0 -32 1.5t-26 1.5
q2 -38 18.5 -75.5t43 -66t61 -44t72.5 -8.5q-18 36 -29 79t-15.5 90.5t-3 97t9.5 99.5q12 80 38.5 153.5t66.5 127t91.5 80.5t114.5 15q47 -9 74.5 -41t39.5 -79t10 -105t-14 -120t-32.5 -123t-46 -114.5t-54 -95.5t-56.5 -64q39 -3 74 14t64.5 43.5t53 58t40.5 58.5z
M565 751q-25 5 -48 -10.5t-43 -46t-36 -73t-27.5 -90.5t-18 -99.5t-6 -99.5t8.5 -89.5t24 -71.5q55 63 91 129.5t56 130t27 120.5t4.5 100.5t-11.5 70t-21 29.5zM552 19q-18 -8 -31.5 -25t-16.5 -36t6.5 -36.5t38.5 -26.5q16 -5 19 -21t-3 -32.5t-20.5 -28t-33.5 -5.5
q-46 14 -69 42t-28.5 61.5t4 68t27.5 62t42.5 42.5t48.5 9q12 -3 21.5 -12.5t13 -21.5t-0.5 -23t-18 -17z" />
    <glyph glyph-name="iogonek" unicode="&#x12f;" horiz-adv-x="248" 
d="M61 536q20 20 41 22.5t37 -7t23.5 -28t1.5 -40.5q-10 -21 -19 -55t-16 -72t-11 -78t-3.5 -73t6.5 -57t19 -30t27.5 -2.5t31 21.5t35.5 54t40 97q8 15 22.5 18.5t28 -1.5t21 -17.5t2.5 -29.5q-9 -35 -29.5 -84t-51.5 -92t-71 -68.5t-87 -12.5q-42 12 -66 48.5t-34 86.5
t-8 108.5t10.5 113.5t22 102.5t27.5 75.5zM90 627q-20 27 -15.5 52t22 38.5t42 11.5t45.5 -30q14 -23 7.5 -45.5t-23 -36t-39 -13.5t-39.5 23zM179 19q-18 -8 -31.5 -25t-16.5 -36t6.5 -36.5t38.5 -26.5q16 -5 19 -21t-3 -32.5t-20.5 -28t-33.5 -5.5q-46 14 -69 42
t-28.5 61.5t4 68t27.5 62t42.5 42.5t48.5 9q12 -3 21.5 -12.5t13 -21.5t-0.5 -23t-18 -17z" />
    <glyph glyph-name="Idotaccent" unicode="&#x130;" horiz-adv-x="727" 
d="M747 292q11 17 28.5 18t32 -9.5t21.5 -29t-3 -39.5q-23 -51 -69 -102.5t-105 -86.5t-125 -44t-130 25q-86 -22 -153 -6t-114.5 59.5t-76.5 109t-39 142.5q-3 21 2 42t17 37t32 24.5t48 5.5l83 -15q24 -6 32.5 -25t5 -39t-16.5 -35.5t-33 -14.5q-14 0 -32 1.5t-26 1.5
q2 -38 18.5 -75.5t43 -66t61 -44t72.5 -8.5q-18 36 -29 79t-15.5 90.5t-3 97t9.5 99.5q12 80 38.5 153.5t66.5 127t91.5 80.5t114.5 15q47 -9 74.5 -41t39.5 -79t10 -105t-14 -120t-32.5 -123t-46 -114.5t-54 -95.5t-56.5 -64q39 -3 74 14t64.5 43.5t53 58t40.5 58.5z
M565 751q-25 5 -48 -10.5t-43 -46t-36 -73t-27.5 -90.5t-18 -99.5t-6 -99.5t8.5 -89.5t24 -71.5q55 63 91 129.5t56 130t27 120.5t4.5 100.5t-11.5 70t-21 29.5zM545 925q-22 25 -16.5 51t24.5 41t45.5 14t47.5 -29q9 -15 8.5 -30t-8 -28t-20.5 -22t-27.5 -13t-28.5 -0.5
t-25 16.5z" />
    <glyph glyph-name="dotlessi" unicode="&#x131;" horiz-adv-x="248" 
d="M61 536q20 20 41 22.5t37 -7t23.5 -28t1.5 -40.5q-10 -21 -19 -55t-16 -72t-11 -78t-3.5 -73t6.5 -57t19 -30t27.5 -2.5t31 21.5t35.5 54t40 97q8 15 22.5 18.5t28 -1.5t21 -17.5t2.5 -29.5q-9 -35 -29.5 -84t-51.5 -92t-71 -68.5t-87 -12.5q-42 12 -66 48.5t-34 86.5
t-8 108.5t10.5 113.5t22 102.5t27.5 75.5z" />
    <glyph glyph-name="Jcircumflex" unicode="&#x134;" horiz-adv-x="681" 
d="M777 237q-10 -26 -32.5 -59t-54 -65.5t-70.5 -60t-84 -42.5q-7 -64 -27 -129t-49 -124t-66 -107t-78 -77q-58 -42 -110 -42.5t-88 27.5q-24 18 -39.5 47t-19.5 64t5.5 74t34.5 79q18 29 41.5 57t50.5 52.5t55.5 44.5t57.5 35q-114 31 -179 90.5t-88 137.5
q-27 94 3.5 202.5t109.5 214.5q26 34 57 69.5t68 64.5t79.5 47.5t90.5 20.5q50 1 82 -19t50.5 -53.5t25.5 -77t8 -89t-2.5 -89.5t-6.5 -78q-8 -91 -22 -175t-22 -143q19 6 38.5 23t37.5 40t34 48.5t30 49.5q6 13 22.5 14.5t32 -7t24.5 -25.5t0 -40zM441 742q-26 6 -55.5 -9
t-56.5 -40t-50.5 -53t-37.5 -47q-54 -72 -79 -146t-17 -138q5 -40 25 -74t55.5 -59t87.5 -38.5t122 -12.5q2 7 7.5 36t12.5 72t14.5 95.5t13.5 106.5q2 20 5 49.5t5 62.5t1 65.5t-6.5 60t-16.5 46.5t-30 23zM181 -350q18 -10 39 -0.5t42 31.5t41 55t38.5 70t33.5 76.5
t26 74.5q-16 -6 -44.5 -28.5t-59.5 -53t-61 -65.5t-49 -67t-23 -57t17 -36zM448 985l-56 -75q-9 -14 -28.5 -11.5t-37 13.5t-26.5 28t3 33l89 121q14 19 30 26.5t31.5 6t28.5 -10t22 -20.5l88 -121q12 -17 3 -33.5t-26.5 -28t-36.5 -13.5t-28 11z" />
    <glyph glyph-name="jcircumflex" unicode="&#x135;" horiz-adv-x="257" 
d="M6 560q1 23 19.5 37t40.5 14.5t40 -13.5t19 -47q-2 -110 -11 -230.5t-11 -238.5q18 8 39.5 28t44.5 47t45.5 58t42.5 63q15 19 30.5 20t27.5 -10t17.5 -30.5t-0.5 -40.5q-7 -24 -24 -51.5t-39.5 -55.5t-49 -55t-52 -49.5t-48.5 -39.5t-39 -24q-3 -102 -21.5 -182
t-53 -129.5t-85.5 -64.5t-117 14q-39 17 -56 48t-15.5 70.5t20 83.5t50.5 86.5t75.5 79.5t95.5 62q4 80 7 152t4.5 139.5t2.5 131t1 127.5zM-131 -319q22 -16 42.5 -8.5t37.5 34t28 70t13 100.5q-41 -20 -67.5 -51t-41 -61.5t-17.5 -54t5 -29.5zM72 720l-56 -75
q-9 -14 -28.5 -11.5t-37 13.5t-26.5 28t3 33l89 121q14 19 30 26.5t31.5 6t28.5 -10t22 -20.5l88 -121q12 -17 3 -33.5t-26.5 -28t-36.5 -13.5t-28 11z" />
    <glyph glyph-name="Kcommaaccent" unicode="&#x136;" horiz-adv-x="614" 
d="M504 832q22 21 45 22.5t38.5 -10.5t21 -33.5t-7.5 -45.5v-2q-27 -41 -50 -73.5t-46 -60.5t-47 -53.5t-53 -52.5t-63.5 -58t-78.5 -69q28 -35 47.5 -82t37 -91.5t36.5 -77.5t46 -39q34 -8 66 8t59.5 43.5t50 61t37.5 60.5q12 16 28.5 17t30.5 -8.5t21 -28.5t0 -42
q-21 -55 -56.5 -101.5t-81 -77.5t-98 -43t-105.5 3q-42 12 -67.5 46.5t-44 77.5t-33.5 88t-36 78q-6 -29 -14 -73.5t-18.5 -90t-22.5 -87t-24 -64.5q-3 -16 -15 -24t-27.5 -9t-31.5 3t-27.5 13t-15 21t5.5 26q3 4 9 23t14 47.5t17 62.5t16.5 68.5t12.5 66.5t7 55
q-20 2 -30.5 19.5t-9.5 39.5t13 42.5t38 28.5q5 49 9.5 91t8 83t6 83t3.5 91q5 33 24 48t40 13.5t37.5 -19.5t17.5 -51q-1 -38 -2 -70t-3 -62.5t-4.5 -62.5t-6.5 -69q44 40 79.5 72t68 65t63 71.5t65.5 92.5zM200 -131q-18 34 -7.5 54t31.5 26.5t45 0.5t33 -23t19 -44
t12.5 -60t-6.5 -71.5t-37 -78.5q-16 -23 -39 -23.5t-40.5 11.5t-23 32.5t12.5 41.5q16 18 20.5 37t2 36t-9.5 33t-13 28z" />
    <glyph glyph-name="kcommaaccent" unicode="&#x137;" horiz-adv-x="492" 
d="M33 825q2 19 19 29.5t36 9.5t35 -13t16 -36q0 -37 -0.5 -86t-1.5 -100.5t-2 -100.5t-3 -86q23 26 52.5 46t60 31t60.5 12t54 -10q22 -11 35.5 -31t18 -45.5t1.5 -53t-12 -52.5q-13 -34 -32 -58.5t-44 -42t-54.5 -30t-63.5 -23.5q8 -12 19.5 -26t25 -26.5t29 -23
t31.5 -15.5q33 -11 67 5.5t63 45.5t49.5 64.5t27.5 62.5q10 14 26 12.5t30.5 -12.5t22.5 -28.5t1 -33.5q-17 -42 -46.5 -86t-70 -78t-91 -52.5t-108.5 -9.5q-26 4 -51 18t-46.5 33.5t-40.5 42.5t-33 44v-132q0 -12 -8.5 -19.5t-21 -11t-27 -2t-26.5 7.5t-20 16t-7 25
q6 92 12.5 197t11.5 213t7 212.5t-1 196.5zM300 410q-7 13 -29 6.5t-46 -26.5t-45 -49.5t-25 -61.5h2q29 -8 59 4t52 34t32 47.5t0 45.5zM135 -144q-18 34 -7.5 54t31.5 26.5t45 0.5t33 -23t19 -44t12.5 -60t-6.5 -71.5t-37 -78.5q-16 -23 -39 -23.5t-40.5 11.5t-23 32.5
t12.5 41.5q16 18 20.5 37t2 36t-9.5 33t-13 28z" />
    <glyph glyph-name="Lacute" unicode="&#x139;" horiz-adv-x="730" 
d="M150 792q-5 28 8.5 48.5t33.5 29t39.5 2.5t27.5 -31q5 -30 10.5 -55.5t16 -48.5t28.5 -44.5t48 -42.5q10 30 25.5 72t39.5 77t59 54.5t83 5.5q18 -5 35.5 -16.5t30.5 -28.5t20 -39.5t5 -49.5q-3 -46 -26.5 -87t-56.5 -72t-70 -48t-67 -15q-8 -20 -15.5 -46t-15 -53.5
t-15 -53.5t-14.5 -47q38 -25 61 -63t42 -74t38 -62t48 -27q37 -1 66.5 18t51.5 48.5t36 64.5t21 67q5 22 23 24.5t37 -6.5t31.5 -25t7.5 -31q-15 -44 -38.5 -95t-59 -94t-83.5 -69t-112 -20q-51 5 -80 24.5t-49 48.5t-35.5 65t-39.5 73q-11 -38 -27.5 -77.5t-41.5 -70.5
t-59.5 -49t-82.5 -12q-44 6 -72 33.5t-38 67.5t0 86.5t43 88.5q36 48 88.5 75t109.5 26q11 40 27.5 92.5t28.5 102.5q-45 25 -75.5 57t-50.5 67t-31 70t-15 65zM179 84q25 25 35 61.5t21 71.5q-19 -5 -37.5 -16t-33 -25.5t-24.5 -31.5t-12 -33q-2 -12 2 -21.5t11.5 -14
t17.5 -3t20 11.5zM544 761q-8 0 -19 -16t-21.5 -38t-19.5 -45t-13 -36q12 -3 25 6t24 24t20 33t13 34t2 26.5t-11 11.5zM552 929q-10 -15 -30.5 -12.5t-38 15t-26.5 31t4 36.5l117 154q12 18 33 17.5t39 -12t26 -31.5t-7 -42z" />
    <glyph glyph-name="lacute" unicode="&#x13a;" horiz-adv-x="374" 
d="M305 858q40 -10 55 -48.5t11 -95t-25 -125.5t-54.5 -141.5t-76.5 -143t-90 -129.5q8 -37 25 -53.5t39.5 -18t47.5 9.5t50 31q32 26 59.5 60.5t42.5 68.5q3 11 18.5 15t32.5 0.5t30 -15t11 -31.5q-22 -54 -53.5 -98.5t-69.5 -76.5q-59 -51 -120 -67q-60 -16 -106 1t-77 57
t-47 98.5t-16 126.5q0 41 2.5 86.5t8.5 92t15 92.5t23 89q17 54 41 99.5t56.5 75.5t74 41.5t92.5 -1.5zM240 743q-12 1 -25 -13t-25.5 -38t-24.5 -56.5t-22 -67.5q-11 -36 -19.5 -73t-15 -69t-10 -57.5t-3.5 -38.5q14 19 29.5 45t31 55.5t30 61.5t26.5 63q15 37 25.5 70.5
t15 59t2 41.5t-14.5 17zM244 905q-10 -15 -30.5 -12.5t-38 15t-26.5 31t4 36.5l117 154q12 18 33 17.5t39 -12t26 -31.5t-7 -42z" />
    <glyph glyph-name="Lcommaaccent" unicode="&#x13b;" horiz-adv-x="730" 
d="M150 792q-5 28 8.5 48.5t33.5 29t39.5 2.5t27.5 -31q5 -30 10.5 -55.5t16 -48.5t28.5 -44.5t48 -42.5q10 30 25.5 72t39.5 77t59 54.5t83 5.5q18 -5 35.5 -16.5t30.5 -28.5t20 -39.5t5 -49.5q-3 -46 -26.5 -87t-56.5 -72t-70 -48t-67 -15q-8 -20 -15.5 -46t-15 -53.5
t-15 -53.5t-14.5 -47q38 -25 61 -63t42 -74t38 -62t48 -27q37 -1 66.5 18t51.5 48.5t36 64.5t21 67q5 22 23 24.5t37 -6.5t31.5 -25t7.5 -31q-15 -44 -38.5 -95t-59 -94t-83.5 -69t-112 -20q-51 5 -80 24.5t-49 48.5t-35.5 65t-39.5 73q-11 -38 -27.5 -77.5t-41.5 -70.5
t-59.5 -49t-82.5 -12q-44 6 -72 33.5t-38 67.5t0 86.5t43 88.5q36 48 88.5 75t109.5 26q11 40 27.5 92.5t28.5 102.5q-45 25 -75.5 57t-50.5 67t-31 70t-15 65zM179 84q25 25 35 61.5t21 71.5q-19 -5 -37.5 -16t-33 -25.5t-24.5 -31.5t-12 -33q-2 -12 2 -21.5t11.5 -14
t17.5 -3t20 11.5zM544 761q-8 0 -19 -16t-21.5 -38t-19.5 -45t-13 -36q12 -3 25 6t24 24t20 33t13 34t2 26.5t-11 11.5zM317 -140q-18 34 -7.5 54t31.5 26.5t45 0.5t33 -23t19 -44t12.5 -60t-6.5 -71.5t-37 -78.5q-16 -23 -39 -23.5t-40.5 11.5t-23 32.5t12.5 41.5
q16 18 20.5 37t2 36t-9.5 33t-13 28z" />
    <glyph glyph-name="lcommaaccent" unicode="&#x13c;" horiz-adv-x="374" 
d="M305 858q40 -10 55 -48.5t11 -95t-25 -125.5t-54.5 -141.5t-76.5 -143t-90 -129.5q8 -37 25 -53.5t39.5 -18t47.5 9.5t50 31q32 26 59.5 60.5t42.5 68.5q3 11 18.5 15t32.5 0.5t30 -15t11 -31.5q-22 -54 -53.5 -98.5t-69.5 -76.5q-59 -51 -120 -67q-60 -16 -106 1t-77 57
t-47 98.5t-16 126.5q0 41 2.5 86.5t8.5 92t15 92.5t23 89q17 54 41 99.5t56.5 75.5t74 41.5t92.5 -1.5zM240 743q-12 1 -25 -13t-25.5 -38t-24.5 -56.5t-22 -67.5q-11 -36 -19.5 -73t-15 -69t-10 -57.5t-3.5 -38.5q14 19 29.5 45t31 55.5t30 61.5t26.5 63q15 37 25.5 70.5
t15 59t2 41.5t-14.5 17zM144 -164q-18 34 -7.5 54t31.5 26.5t45 0.5t33 -23t19 -44t12.5 -60t-6.5 -71.5t-37 -78.5q-16 -23 -39 -23.5t-40.5 11.5t-23 32.5t12.5 41.5q16 18 20.5 37t2 36t-9.5 33t-13 28z" />
    <glyph glyph-name="Lcaron" unicode="&#x13d;" horiz-adv-x="730" 
d="M150 792q-5 28 8.5 48.5t33.5 29t39.5 2.5t27.5 -31q5 -30 10.5 -55.5t16 -48.5t28.5 -44.5t48 -42.5q10 30 25.5 72t39.5 77t59 54.5t83 5.5q18 -5 35.5 -16.5t30.5 -28.5t20 -39.5t5 -49.5q-3 -46 -26.5 -87t-56.5 -72t-70 -48t-67 -15q-8 -20 -15.5 -46t-15 -53.5
t-15 -53.5t-14.5 -47q38 -25 61 -63t42 -74t38 -62t48 -27q37 -1 66.5 18t51.5 48.5t36 64.5t21 67q5 22 23 24.5t37 -6.5t31.5 -25t7.5 -31q-15 -44 -38.5 -95t-59 -94t-83.5 -69t-112 -20q-51 5 -80 24.5t-49 48.5t-35.5 65t-39.5 73q-11 -38 -27.5 -77.5t-41.5 -70.5
t-59.5 -49t-82.5 -12q-44 6 -72 33.5t-38 67.5t0 86.5t43 88.5q36 48 88.5 75t109.5 26q11 40 27.5 92.5t28.5 102.5q-45 25 -75.5 57t-50.5 67t-31 70t-15 65zM179 84q25 25 35 61.5t21 71.5q-19 -5 -37.5 -16t-33 -25.5t-24.5 -31.5t-12 -33q-2 -12 2 -21.5t11.5 -14
t17.5 -3t20 11.5zM544 761q-8 0 -19 -16t-21.5 -38t-19.5 -45t-13 -36q12 -3 25 6t24 24t20 33t13 34t2 26.5t-11 11.5zM775 891q26 -16 45 -42t28.5 -59t7.5 -70t-18 -75q-8 -20 -28.5 -28t-39.5 -4t-30.5 19.5t-0.5 42.5q17 42 8 71.5t-34 51.5q-16 14 -15 34.5t11.5 37
t28.5 24.5t37 -3z" />
    <glyph glyph-name="lcaron" unicode="&#x13e;" horiz-adv-x="377" 
d="M305 858q40 -10 55 -48.5t11 -95t-25 -125.5t-54.5 -141.5t-76.5 -143t-90 -129.5q8 -37 25 -53.5t39.5 -18t47.5 9.5t50 31q32 26 59.5 60.5t42.5 68.5q3 11 18.5 15t32.5 0.5t30 -15t11 -31.5q-22 -54 -53.5 -98.5t-69.5 -76.5q-59 -51 -120 -67q-60 -16 -106 1t-77 57
t-47 98.5t-16 126.5q0 41 2.5 86.5t8.5 92t15 92.5t23 89q17 54 41 99.5t56.5 75.5t74 41.5t92.5 -1.5zM240 743q-12 1 -25 -13t-25.5 -38t-24.5 -56.5t-22 -67.5q-11 -36 -19.5 -73t-15 -69t-10 -57.5t-3.5 -38.5q14 19 29.5 45t31 55.5t30 61.5t26.5 63q15 37 25.5 70.5
t15 59t2 41.5t-14.5 17zM463 796q26 -16 45 -42t28.5 -59t7.5 -70t-18 -75q-8 -20 -28.5 -28t-39.5 -4t-30.5 19.5t-0.5 42.5q17 42 8 71.5t-34 51.5q-16 14 -15 34.5t11.5 37t28.5 24.5t37 -3z" />
    <glyph glyph-name="Ldot" unicode="&#x13f;" horiz-adv-x="730" 
d="M150 792q-5 28 8.5 48.5t33.5 29t39.5 2.5t27.5 -31q5 -30 10.5 -55.5t16 -48.5t28.5 -44.5t48 -42.5q10 30 25.5 72t39.5 77t59 54.5t83 5.5q18 -5 35.5 -16.5t30.5 -28.5t20 -39.5t5 -49.5q-3 -46 -26.5 -87t-56.5 -72t-70 -48t-67 -15q-8 -20 -15.5 -46t-15 -53.5
t-15 -53.5t-14.5 -47q38 -25 61 -63t42 -74t38 -62t48 -27q37 -1 66.5 18t51.5 48.5t36 64.5t21 67q5 22 23 24.5t37 -6.5t31.5 -25t7.5 -31q-15 -44 -38.5 -95t-59 -94t-83.5 -69t-112 -20q-51 5 -80 24.5t-49 48.5t-35.5 65t-39.5 73q-11 -38 -27.5 -77.5t-41.5 -70.5
t-59.5 -49t-82.5 -12q-44 6 -72 33.5t-38 67.5t0 86.5t43 88.5q36 48 88.5 75t109.5 26q11 40 27.5 92.5t28.5 102.5q-45 25 -75.5 57t-50.5 67t-31 70t-15 65zM179 84q25 25 35 61.5t21 71.5q-19 -5 -37.5 -16t-33 -25.5t-24.5 -31.5t-12 -33q-2 -12 2 -21.5t11.5 -14
t17.5 -3t20 11.5zM544 761q-8 0 -19 -16t-21.5 -38t-19.5 -45t-13 -36q12 -3 25 6t24 24t20 33t13 34t2 26.5t-11 11.5zM502 318q-17 17 -20.5 34.5t3 33t20 26.5t30.5 14t35 -3.5t33 -26.5q12 -21 4 -42.5t-25.5 -35t-40 -15.5t-39.5 15z" />
    <glyph glyph-name="ldot" unicode="&#x140;" horiz-adv-x="374" 
d="M305 858q40 -10 55 -48.5t11 -95t-25 -125.5t-54.5 -141.5t-76.5 -143t-90 -129.5q8 -37 25 -53.5t39.5 -18t47.5 9.5t50 31q32 26 59.5 60.5t42.5 68.5q3 11 18.5 15t32.5 0.5t30 -15t11 -31.5q-22 -54 -53.5 -98.5t-69.5 -76.5q-59 -51 -120 -67q-60 -16 -106 1t-77 57
t-47 98.5t-16 126.5q0 41 2.5 86.5t8.5 92t15 92.5t23 89q17 54 41 99.5t56.5 75.5t74 41.5t92.5 -1.5zM240 743q-12 1 -25 -13t-25.5 -38t-24.5 -56.5t-22 -67.5q-11 -36 -19.5 -73t-15 -69t-10 -57.5t-3.5 -38.5q14 19 29.5 45t31 55.5t30 61.5t26.5 63q15 37 25.5 70.5
t15 59t2 41.5t-14.5 17zM243 226q-22 25 -16.5 51t24.5 41t45.5 14t47.5 -29q9 -15 8.5 -30t-8 -28t-20.5 -22t-27.5 -13t-28.5 -0.5t-25 16.5z" />
    <glyph glyph-name="Lslash" unicode="&#x141;" horiz-adv-x="730" 
d="M150 792q-5 28 8.5 48.5t33.5 29t39.5 2.5t27.5 -31q5 -30 10.5 -55.5t16 -48.5t28.5 -44.5t48 -42.5q10 30 25.5 72t39.5 77t59 54.5t83 5.5q18 -5 35.5 -16.5t30.5 -28.5t20 -39.5t5 -49.5q-3 -46 -26.5 -87t-56.5 -72t-70 -48t-67 -15q-8 -20 -15.5 -46t-15 -53.5
t-15 -53.5t-14.5 -47q38 -25 61 -63t42 -74t38 -62t48 -27q37 -1 66.5 18t51.5 48.5t36 64.5t21 67q5 22 23 24.5t37 -6.5t31.5 -25t7.5 -31q-15 -44 -38.5 -95t-59 -94t-83.5 -69t-112 -20q-51 5 -80 24.5t-49 48.5t-35.5 65t-39.5 73q-11 -38 -27.5 -77.5t-41.5 -70.5
t-59.5 -49t-82.5 -12q-44 6 -72 33.5t-38 67.5t0 86.5t43 88.5q36 48 88.5 75t109.5 26q11 40 27.5 92.5t28.5 102.5q-45 25 -75.5 57t-50.5 67t-31 70t-15 65zM179 84q25 25 35 61.5t21 71.5q-19 -5 -37.5 -16t-33 -25.5t-24.5 -31.5t-12 -33q-2 -12 2 -21.5t11.5 -14
t17.5 -3t20 11.5zM544 761q-8 0 -19 -16t-21.5 -38t-19.5 -45t-13 -36q12 -3 25 6t24 24t20 33t13 34t2 26.5t-11 11.5zM201 358q-18 0 -28 18.5t-11 41t8.5 41.5t31.5 19l305 5q21 0 33.5 -18.5t13.5 -41t-10.5 -41.5t-37.5 -19z" />
    <glyph glyph-name="lslash" unicode="&#x142;" horiz-adv-x="374" 
d="M305 858q40 -10 55 -48.5t11 -95t-25 -125.5t-54.5 -141.5t-76.5 -143t-90 -129.5q8 -37 25 -53.5t39.5 -18t47.5 9.5t50 31q32 26 59.5 60.5t42.5 68.5q3 11 18.5 15t32.5 0.5t30 -15t11 -31.5q-22 -54 -53.5 -98.5t-69.5 -76.5q-59 -51 -120 -67q-60 -16 -106 1t-77 57
t-47 98.5t-16 126.5q0 41 2.5 86.5t8.5 92t15 92.5t23 89q17 54 41 99.5t56.5 75.5t74 41.5t92.5 -1.5zM240 743q-12 1 -25 -13t-25.5 -38t-24.5 -56.5t-22 -67.5q-11 -36 -19.5 -73t-15 -69t-10 -57.5t-3.5 -38.5q14 19 29.5 45t31 55.5t30 61.5t26.5 63q15 37 25.5 70.5
t15 59t2 41.5t-14.5 17zM-10 406q-18 0 -28 18.5t-11 41t8.5 41.5t31.5 19l305 5q21 0 33.5 -18.5t13.5 -41t-10.5 -41.5t-37.5 -19z" />
    <glyph glyph-name="Nacute" unicode="&#x143;" horiz-adv-x="761" 
d="M62 637q-20 6 -28 26.5t-4 40t20 31.5t43 2q45 -9 73.5 -1t46.5 27.5t28.5 45.5t19.5 53q8 22 30 27.5t43.5 -1.5t35 -24.5t4.5 -40.5q-3 -9 -3.5 -18.5t-5.5 -22.5q32 26 79 48.5t96 27.5q54 5 88 -13t52.5 -51.5t23.5 -80t1 -99t-14.5 -108.5t-23.5 -108.5t-26 -98
t-22 -78.5q-13 -48 -16.5 -81t10.5 -43q8 -6 23 1t32 22.5t35 37t33.5 45.5t26.5 48t15 44q9 17 25 17.5t29.5 -11t20.5 -32t-2 -44.5q-9 -26 -24 -58t-35.5 -63t-46 -58.5t-55 -46t-62.5 -24.5t-68 6q-31 10 -50.5 33t-28.5 54t-8 69t10 79q9 39 24.5 93.5t31 112.5t28 115
t15 101.5t-8.5 72t-41 26.5q-24 -1 -52.5 -13.5t-56.5 -32.5t-51.5 -44t-37.5 -48q-4 -28 -11 -72t-16 -96.5t-19.5 -109.5t-21 -112.5t-21 -104.5t-19.5 -85q-7 -26 -29.5 -32t-45.5 1t-38.5 23.5t-9.5 34.5v1q9 32 23 93.5t30 142t31.5 173.5t27.5 188q-17 -11 -41 -15
t-47.5 -3.5t-42 4t-22.5 7.5zM558 909q-10 -15 -30.5 -12.5t-38 15t-26.5 31t4 36.5l117 154q12 18 33 17.5t39 -12t26 -31.5t-7 -42z" />
    <glyph glyph-name="nacute" unicode="&#x144;" horiz-adv-x="557" 
d="M15 476q5 33 24 48t40 13.5t37.5 -19.5t17.5 -51v-22q18 24 40 48t47.5 42.5t56.5 27t67 1.5q37 -8 59.5 -31.5t33.5 -57t13 -73.5t-0.5 -80.5t-7.5 -79t-8.5 -68.5t-3 -48.5t9.5 -19.5q15 -2 32.5 8t35.5 32.5t35 57t29 81.5q5 21 21.5 23.5t32.5 -6t27 -25.5t5 -35
q-19 -57 -44.5 -106.5t-56.5 -84.5t-67.5 -52.5t-76.5 -9.5t-61.5 30.5t-30.5 54t-8 69t6 76.5t11 76t7 67t-5 50.5t-26 25.5q-27 7 -52 -11t-46.5 -52.5t-39.5 -79.5t-31 -92t-20.5 -91.5t-8.5 -75.5q-3 -14 -20 -24.5t-37 -12.5t-38.5 8t-23.5 38q-1 18 1 41.5t6 69
t8.5 121.5t9.5 199zM263 625q-10 -15 -30.5 -12.5t-38 15t-26.5 31t4 36.5l117 154q12 18 33 17.5t39 -12t26 -31.5t-7 -42z" />
    <glyph glyph-name="Ncommaaccent" unicode="&#x145;" horiz-adv-x="761" 
d="M62 637q-20 6 -28 26.5t-4 40t20 31.5t43 2q45 -9 73.5 -1t46.5 27.5t28.5 45.5t19.5 53q8 22 30 27.5t43.5 -1.5t35 -24.5t4.5 -40.5q-3 -9 -3.5 -18.5t-5.5 -22.5q32 26 79 48.5t96 27.5q54 5 88 -13t52.5 -51.5t23.5 -80t1 -99t-14.5 -108.5t-23.5 -108.5t-26 -98
t-22 -78.5q-13 -48 -16.5 -81t10.5 -43q8 -6 23 1t32 22.5t35 37t33.5 45.5t26.5 48t15 44q9 17 25 17.5t29.5 -11t20.5 -32t-2 -44.5q-9 -26 -24 -58t-35.5 -63t-46 -58.5t-55 -46t-62.5 -24.5t-68 6q-31 10 -50.5 33t-28.5 54t-8 69t10 79q9 39 24.5 93.5t31 112.5t28 115
t15 101.5t-8.5 72t-41 26.5q-24 -1 -52.5 -13.5t-56.5 -32.5t-51.5 -44t-37.5 -48q-4 -28 -11 -72t-16 -96.5t-19.5 -109.5t-21 -112.5t-21 -104.5t-19.5 -85q-7 -26 -29.5 -32t-45.5 1t-38.5 23.5t-9.5 34.5v1q9 32 23 93.5t30 142t31.5 173.5t27.5 188q-17 -11 -41 -15
t-47.5 -3.5t-42 4t-22.5 7.5zM317 -135q-18 34 -7.5 54t31.5 26.5t45 0.5t33 -23t19 -44t12.5 -60t-6.5 -71.5t-37 -78.5q-16 -23 -39 -23.5t-40.5 11.5t-23 32.5t12.5 41.5q16 18 20.5 37t2 36t-9.5 33t-13 28z" />
    <glyph glyph-name="ncommaaccent" unicode="&#x146;" horiz-adv-x="557" 
d="M15 476q5 33 24 48t40 13.5t37.5 -19.5t17.5 -51v-22q18 24 40 48t47.5 42.5t56.5 27t67 1.5q37 -8 59.5 -31.5t33.5 -57t13 -73.5t-0.5 -80.5t-7.5 -79t-8.5 -68.5t-3 -48.5t9.5 -19.5q15 -2 32.5 8t35.5 32.5t35 57t29 81.5q5 21 21.5 23.5t32.5 -6t27 -25.5t5 -35
q-19 -57 -44.5 -106.5t-56.5 -84.5t-67.5 -52.5t-76.5 -9.5t-61.5 30.5t-30.5 54t-8 69t6 76.5t11 76t7 67t-5 50.5t-26 25.5q-27 7 -52 -11t-46.5 -52.5t-39.5 -79.5t-31 -92t-20.5 -91.5t-8.5 -75.5q-3 -14 -20 -24.5t-37 -12.5t-38.5 8t-23.5 38q-1 18 1 41.5t6 69
t8.5 121.5t9.5 199zM196 -77q-18 34 -7.5 54t31.5 26.5t45 0.5t33 -23t19 -44t12.5 -60t-6.5 -71.5t-37 -78.5q-16 -23 -39 -23.5t-40.5 11.5t-23 32.5t12.5 41.5q16 18 20.5 37t2 36t-9.5 33t-13 28z" />
    <glyph glyph-name="Ncaron" unicode="&#x147;" horiz-adv-x="761" 
d="M62 637q-20 6 -28 26.5t-4 40t20 31.5t43 2q45 -9 73.5 -1t46.5 27.5t28.5 45.5t19.5 53q8 22 30 27.5t43.5 -1.5t35 -24.5t4.5 -40.5q-3 -9 -3.5 -18.5t-5.5 -22.5q32 26 79 48.5t96 27.5q54 5 88 -13t52.5 -51.5t23.5 -80t1 -99t-14.5 -108.5t-23.5 -108.5t-26 -98
t-22 -78.5q-13 -48 -16.5 -81t10.5 -43q8 -6 23 1t32 22.5t35 37t33.5 45.5t26.5 48t15 44q9 17 25 17.5t29.5 -11t20.5 -32t-2 -44.5q-9 -26 -24 -58t-35.5 -63t-46 -58.5t-55 -46t-62.5 -24.5t-68 6q-31 10 -50.5 33t-28.5 54t-8 69t10 79q9 39 24.5 93.5t31 112.5t28 115
t15 101.5t-8.5 72t-41 26.5q-24 -1 -52.5 -13.5t-56.5 -32.5t-51.5 -44t-37.5 -48q-4 -28 -11 -72t-16 -96.5t-19.5 -109.5t-21 -112.5t-21 -104.5t-19.5 -85q-7 -26 -29.5 -32t-45.5 1t-38.5 23.5t-9.5 34.5v1q9 32 23 93.5t30 142t31.5 173.5t27.5 188q-17 -11 -41 -15
t-47.5 -3.5t-42 4t-22.5 7.5zM568 1041l62 83q10 15 31.5 12.5t40 -15t28.5 -31t-3 -36.5l-98 -132q-15 -22 -32.5 -30t-34 -6.5t-31.5 11t-24 22.5l-97 133q-13 18 -3 36.5t28.5 31t40 15t31.5 -12.5z" />
    <glyph glyph-name="ncaron" unicode="&#x148;" horiz-adv-x="557" 
d="M15 476q5 33 24 48t40 13.5t37.5 -19.5t17.5 -51v-22q18 24 40 48t47.5 42.5t56.5 27t67 1.5q37 -8 59.5 -31.5t33.5 -57t13 -73.5t-0.5 -80.5t-7.5 -79t-8.5 -68.5t-3 -48.5t9.5 -19.5q15 -2 32.5 8t35.5 32.5t35 57t29 81.5q5 21 21.5 23.5t32.5 -6t27 -25.5t5 -35
q-19 -57 -44.5 -106.5t-56.5 -84.5t-67.5 -52.5t-76.5 -9.5t-61.5 30.5t-30.5 54t-8 69t6 76.5t11 76t7 67t-5 50.5t-26 25.5q-27 7 -52 -11t-46.5 -52.5t-39.5 -79.5t-31 -92t-20.5 -91.5t-8.5 -75.5q-3 -14 -20 -24.5t-37 -12.5t-38.5 8t-23.5 38q-1 18 1 41.5t6 69
t8.5 121.5t9.5 199zM278 762l62 83q10 15 31.5 12.5t40 -15t28.5 -31t-3 -36.5l-98 -132q-15 -22 -32.5 -30t-34 -6.5t-31.5 11t-24 22.5l-97 133q-13 18 -3 36.5t28.5 31t40 15t31.5 -12.5z" />
    <glyph glyph-name="napostrophe" unicode="&#x149;" horiz-adv-x="557" 
d="M15 476q5 33 24 48t40 13.5t37.5 -19.5t17.5 -51v-22q18 24 40 48t47.5 42.5t56.5 27t67 1.5q37 -8 59.5 -31.5t33.5 -57t13 -73.5t-0.5 -80.5t-7.5 -79t-8.5 -68.5t-3 -48.5t9.5 -19.5q15 -2 32.5 8t35.5 32.5t35 57t29 81.5q5 21 21.5 23.5t32.5 -6t27 -25.5t5 -35
q-19 -57 -44.5 -106.5t-56.5 -84.5t-67.5 -52.5t-76.5 -9.5t-61.5 30.5t-30.5 54t-8 69t6 76.5t11 76t7 67t-5 50.5t-26 25.5q-27 7 -52 -11t-46.5 -52.5t-39.5 -79.5t-31 -92t-20.5 -91.5t-8.5 -75.5q-3 -14 -20 -24.5t-37 -12.5t-38.5 8t-23.5 38q-1 18 1 41.5t6 69
t8.5 121.5t9.5 199zM51 800q-18 34 -7.5 54t31.5 26.5t45 0.5t33 -23t19 -44t12.5 -60t-6.5 -71.5t-37 -78.5q-16 -23 -39 -23.5t-40.5 11.5t-23 32.5t12.5 41.5q16 18 20.5 37t2 36t-9.5 33t-13 28z" />
    <glyph glyph-name="Omacron" unicode="&#x14c;" horiz-adv-x="619" 
d="M216 822q43 35 97.5 42t106 -14t91.5 -71t55 -129q15 12 31 0t22.5 -34.5t-1 -50t-37.5 -47.5q0 -122 -23.5 -219t-66.5 -163.5t-104.5 -101t-138.5 -31.5q-50 2 -94.5 29t-76.5 75t-48.5 113.5t-9.5 143.5q6 69 25 139t46.5 131.5t60 110.5t65.5 77zM469 480
q-41 -8 -80.5 4.5t-72.5 38t-57 60t-33 70.5q-15 -20 -28.5 -53.5t-24.5 -73.5t-19 -83.5t-11 -82.5q-4 -51 4.5 -92.5t25.5 -71.5t40.5 -48t49.5 -22q34 -5 62.5 8t51.5 39.5t40 63t28.5 77.5t17.5 84t6 82zM309 761q-5 -26 3 -58.5t27.5 -60t51 -42.5t73.5 -4
q0 33 -13.5 69t-36 63t-50.5 38.5t-55 -5.5zM180 908q-18 0 -28.5 17t-11.5 38t8 38t31 17l305 5q21 0 33.5 -17t14 -37.5t-9.5 -38t-37 -17.5z" />
    <glyph glyph-name="omacron" unicode="&#x14d;" horiz-adv-x="587" 
d="M328 595q46 15 80.5 6t57.5 -35t36.5 -64.5t18.5 -81.5q2 -20 2.5 -44t-1 -48t-4 -46t-6.5 -40q24 1 43 6.5t35 13t30.5 16.5t29.5 17q19 10 31.5 2.5t17 -22.5t2 -32.5t-13.5 -27.5q-48 -44 -105 -63.5t-116 -19.5q-39 -69 -100 -104.5t-133 -36.5q-67 -1 -113 27
t-73 73t-35.5 102.5t0 116t34 114t65.5 96.5t94.5 62.5t122.5 12.5zM256 480q-32 -7 -59 -35.5t-46 -68t-27 -85.5t-1.5 -86.5t30.5 -70.5t69 -39q16 -3 36 3t39 18t34.5 28.5t23.5 33.5q-28 17 -47.5 41t-33.5 53q-22 48 -26 102.5t8 105.5zM380 475q-28 -17 -31.5 -47.5
t5.5 -62t25 -56.5t27 -31q6 5 9.5 23.5t4.5 42.5t-1 50t-7 46t-13 30.5t-19 4.5zM174 668q-18 0 -28.5 17t-11.5 38t8 38t31 17l305 5q21 0 33.5 -17t14 -37.5t-9.5 -38t-37 -17.5z" />
    <glyph glyph-name="Obreve" unicode="&#x14e;" horiz-adv-x="619" 
d="M216 822q43 35 97.5 42t106 -14t91.5 -71t55 -129q15 12 31 0t22.5 -34.5t-1 -50t-37.5 -47.5q0 -122 -23.5 -219t-66.5 -163.5t-104.5 -101t-138.5 -31.5q-50 2 -94.5 29t-76.5 75t-48.5 113.5t-9.5 143.5q6 69 25 139t46.5 131.5t60 110.5t65.5 77zM469 480
q-41 -8 -80.5 4.5t-72.5 38t-57 60t-33 70.5q-15 -20 -28.5 -53.5t-24.5 -73.5t-19 -83.5t-11 -82.5q-4 -51 4.5 -92.5t25.5 -71.5t40.5 -48t49.5 -22q34 -5 62.5 8t51.5 39.5t40 63t28.5 77.5t17.5 84t6 82zM309 761q-5 -26 3 -58.5t27.5 -60t51 -42.5t73.5 -4
q0 33 -13.5 69t-36 63t-50.5 38.5t-55 -5.5zM530 1000q-24 -42 -66 -67t-88.5 -28.5t-90.5 16t-71 67.5q-11 19 -4.5 39.5t21.5 33t33.5 13t31.5 -20.5q16 -25 38 -35.5t44.5 -8.5t42 14t31.5 32q10 18 28 18.5t32.5 -9.5t21.5 -27.5t-4 -36.5z" />
    <glyph glyph-name="obreve" unicode="&#x14f;" horiz-adv-x="587" 
d="M328 595q46 15 80.5 6t57.5 -35t36.5 -64.5t18.5 -81.5q2 -20 2.5 -44t-1 -48t-4 -46t-6.5 -40q24 1 43 6.5t35 13t30.5 16.5t29.5 17q19 10 31.5 2.5t17 -22.5t2 -32.5t-13.5 -27.5q-48 -44 -105 -63.5t-116 -19.5q-39 -69 -100 -104.5t-133 -36.5q-67 -1 -113 27
t-73 73t-35.5 102.5t0 116t34 114t65.5 96.5t94.5 62.5t122.5 12.5zM256 480q-32 -7 -59 -35.5t-46 -68t-27 -85.5t-1.5 -86.5t30.5 -70.5t69 -39q16 -3 36 3t39 18t34.5 28.5t23.5 33.5q-28 17 -47.5 41t-33.5 53q-22 48 -26 102.5t8 105.5zM380 475q-28 -17 -31.5 -47.5
t5.5 -62t25 -56.5t27 -31q6 5 9.5 23.5t4.5 42.5t-1 50t-7 46t-13 30.5t-19 4.5zM523 759q-24 -42 -66 -67t-88.5 -28.5t-90.5 16t-71 67.5q-11 19 -4.5 39.5t21.5 33t33.5 13t31.5 -20.5q16 -25 38 -35.5t44.5 -8.5t42 14t31.5 32q10 18 28 18.5t32.5 -9.5t21.5 -27.5
t-4 -36.5z" />
    <glyph glyph-name="Ohungarumlaut" unicode="&#x150;" horiz-adv-x="619" 
d="M216 822q43 35 97.5 42t106 -14t91.5 -71t55 -129q15 12 31 0t22.5 -34.5t-1 -50t-37.5 -47.5q0 -122 -23.5 -219t-66.5 -163.5t-104.5 -101t-138.5 -31.5q-50 2 -94.5 29t-76.5 75t-48.5 113.5t-9.5 143.5q6 69 25 139t46.5 131.5t60 110.5t65.5 77zM469 480
q-41 -8 -80.5 4.5t-72.5 38t-57 60t-33 70.5q-15 -20 -28.5 -53.5t-24.5 -73.5t-19 -83.5t-11 -82.5q-4 -51 4.5 -92.5t25.5 -71.5t40.5 -48t49.5 -22q34 -5 62.5 8t51.5 39.5t40 63t28.5 77.5t17.5 84t6 82zM309 761q-5 -26 3 -58.5t27.5 -60t51 -42.5t73.5 -4
q0 33 -13.5 69t-36 63t-50.5 38.5t-55 -5.5zM317 909q-10 -15 -31.5 -12.5t-40 15t-28.5 31t3 36.5l116 156q12 18 34.5 17t41.5 -13t28 -32t-6 -42zM519 906q-10 -15 -31.5 -12.5t-40 15t-28.5 31t3 36.5l116 156q12 18 34.5 17t41.5 -13t28 -32t-6 -42z" />
    <glyph glyph-name="ohungarumlaut" unicode="&#x151;" horiz-adv-x="587" 
d="M328 595q46 15 80.5 6t57.5 -35t36.5 -64.5t18.5 -81.5q2 -20 2.5 -44t-1 -48t-4 -46t-6.5 -40q24 1 43 6.5t35 13t30.5 16.5t29.5 17q19 10 31.5 2.5t17 -22.5t2 -32.5t-13.5 -27.5q-48 -44 -105 -63.5t-116 -19.5q-39 -69 -100 -104.5t-133 -36.5q-67 -1 -113 27
t-73 73t-35.5 102.5t0 116t34 114t65.5 96.5t94.5 62.5t122.5 12.5zM256 480q-32 -7 -59 -35.5t-46 -68t-27 -85.5t-1.5 -86.5t30.5 -70.5t69 -39q16 -3 36 3t39 18t34.5 28.5t23.5 33.5q-28 17 -47.5 41t-33.5 53q-22 48 -26 102.5t8 105.5zM380 475q-28 -17 -31.5 -47.5
t5.5 -62t25 -56.5t27 -31q6 5 9.5 23.5t4.5 42.5t-1 50t-7 46t-13 30.5t-19 4.5zM281 645q-10 -15 -31.5 -12.5t-40 15t-28.5 31t3 36.5l116 156q12 18 34.5 17t41.5 -13t28 -32t-6 -42zM483 642q-10 -15 -31.5 -12.5t-40 15t-28.5 31t3 36.5l116 156q12 18 34.5 17
t41.5 -13t28 -32t-6 -42z" />
    <glyph glyph-name="OE" unicode="&#x152;" horiz-adv-x="916" 
d="M216 837q34 27 75.5 37.5t83.5 3t81 -33t67 -68.5q19 23 44.5 42t54.5 30t60.5 11.5t62.5 -12.5q13 10 28.5 14t29 0t23 -16.5t10.5 -36.5q8 -52 6.5 -94.5t-6.5 -72.5q-6 -20 -22.5 -29t-33.5 -8.5t-30.5 9.5t-12.5 24q4 22 1.5 45t-13 38.5t-29 19.5t-46.5 -11
q-26 -14 -42.5 -36t-24 -48.5t-7 -56t8.5 -57.5q7 -24 22 -39.5t34 -22.5t41 -6.5t44 7.5q16 8 28 3t19 -17t9 -28.5t-1 -31.5t-11.5 -27t-22.5 -15q-43 -5 -83 -19t-68 -39t-37.5 -62.5t8.5 -88.5q13 -37 49 -46.5t81 1.5q34 8 69 24.5t66 40t57 53t43 62.5q9 18 26.5 20.5
t33 -5.5t24 -23.5t0.5 -32.5q-21 -41 -51.5 -77t-68.5 -66t-81.5 -53.5t-90.5 -39.5q-38 -13 -74 -17t-69 3.5t-60.5 27.5t-46.5 56q-29 -23 -55.5 -38.5t-53.5 -24.5t-56.5 -11.5t-64.5 1.5q-49 5 -93 35.5t-75.5 81t-47.5 117.5t-9 145q6 69 25 139t46.5 131.5t60 110.5
t65.5 77zM259 123q22 -7 46.5 -5t49 10t47.5 21t42 29q-3 30 0 63.5t12 65t25.5 58t41.5 44.5q-37 36 -53 86h-1q-41 -8 -80.5 4.5t-72.5 38t-57 60t-33 70.5q-15 -20 -28.5 -53.5t-24.5 -73.5t-19 -83.5t-11 -82.5q-4 -51 3.5 -94t23.5 -75.5t39 -53.5t50 -29zM309 776
q-5 -25 2.5 -57.5t26 -59.5t48 -42.5t70.5 -7.5q1 8 2 16.5t3 17.5q-6 31 -21.5 61t-36.5 51t-45.5 28.5t-48.5 -7.5z" />
    <glyph glyph-name="oe" unicode="&#x153;" horiz-adv-x="802" 
d="M750 471q-2 -50 -18 -100.5t-47 -91t-75.5 -65t-101.5 -20.5q1 -31 7 -60t19.5 -49.5t36.5 -29t58 2.5q35 10 67 33t57.5 53t43 63.5t25.5 65.5q4 17 19 21t31.5 -1t28 -17.5t7.5 -28.5q-22 -58 -43.5 -103t-47.5 -79.5t-58.5 -58.5t-76.5 -40q-91 -32 -159 -9.5
t-99 91.5q-35 -25 -82 -41t-108 -16q-67 0 -113 28.5t-73 73.5t-35.5 102.5t0 116t34 113.5t65.5 95.5t94.5 62t122.5 12.5q55 18 92.5 2t60.5 -52q17 23 39 40.5t49 27.5q34 12 67 9t58.5 -21t40.5 -50.5t14 -79.5zM223 95q20 -3 45 -0.5t50 10t47.5 19.5t37.5 27
q-1 11 -1.5 23.5t-0.5 26.5q-43 -1 -71.5 21.5t-45.5 48.5q-29 44 -34 101t7 108q-32 -6 -59.5 -35t-46 -69.5t-27 -86.5t-1.5 -86.5t31 -70.5t69 -37zM624 497q-14 9 -27.5 1.5t-25.5 -25t-21 -41.5t-15 -49.5t-9 -48.5t-1 -37q46 9 73 38t37.5 62t7 62t-18.5 38zM381 475
q-17 -14 -24.5 -34t-7.5 -41.5t5.5 -42.5t13.5 -36t17.5 -22t17.5 -1q2 27 6.5 46t10.5 47q-2 19 -5 37t-8.5 30.5t-12 17.5t-13.5 -1z" />
    <glyph glyph-name="Racute" unicode="&#x154;" horiz-adv-x="837" 
d="M72 645q-26 4 -36.5 22.5t-9 38t13.5 34t33 11.5q30 -4 67.5 -5t73 6t65 25t44.5 51q12 22 28.5 32t33 9t31.5 -13t23 -36q2 -33 1 -62.5t-5 -61.5q14 23 40.5 51.5t60.5 53t71.5 40.5t73.5 15q45 -1 73 -18t42.5 -44t16.5 -61t-5.5 -69.5t-23 -70t-35.5 -61.5
q-21 -29 -50 -57.5t-62.5 -54t-69.5 -46.5t-72 -35q4 -15 12 -39t19 -51t24.5 -54t28.5 -49.5t32 -37t35 -15.5q16 -1 37 9.5t44 28t47 39t45.5 43t38.5 40t28 29.5q14 15 28.5 13.5t24.5 -12.5t13 -28.5t-6 -33.5q-26 -32 -59 -72.5t-72.5 -76.5t-84.5 -61.5t-94 -27.5
q-37 -2 -69 15t-58.5 45t-47.5 64.5t-37 75t-27.5 75t-18.5 64.5q-5 -16 -10.5 -44.5t-11 -62t-11 -69.5t-10 -68t-7.5 -56.5t-4 -35.5q-7 -20 -29 -28t-44.5 -5t-36.5 16.5t-4 35.5q16 123 29.5 220t24 176t17 144t8.5 122q-39 -17 -70.5 -23.5t-58 -7t-48 3t-40.5 5.5z
M416 448q43 1 84 19.5t76 46.5t62 61.5t42.5 65t17.5 57t-12 38.5q-17 15 -46 6.5t-65 -43t-76.5 -96.5t-82.5 -155zM582 885q-10 -15 -30.5 -12.5t-38 15t-26.5 31t4 36.5l117 154q12 18 33 17.5t39 -12t26 -31.5t-7 -42z" />
    <glyph glyph-name="racute" unicode="&#x155;" horiz-adv-x="501" 
d="M28 0q-10 -17 -28.5 -18.5t-36 6t-29.5 20.5t-7 25q7 17 18 44t27 78.5t36.5 136t46.5 215.5q4 32 22.5 46t40.5 12q13 -1 25 -6.5t20.5 -16t12.5 -25t0 -32.5q18 -21 35.5 -35.5t37 -24.5t42 -17.5t51.5 -15.5q20 -13 26 -26t4 -27.5t-9 -31t-13 -35.5q-3 -11 -7 -32
t-6.5 -46.5t-3.5 -52.5t1.5 -49.5t9.5 -38t20 -17.5q42 -8 79 50t71 190q5 24 21.5 32t34 5t30 -15t8.5 -29q-6 -37 -18 -82t-31.5 -89.5t-46.5 -84t-63 -64.5q-27 -19 -58.5 -24.5t-61.5 3t-54.5 30t-35.5 55.5q-23 69 -19 141.5t22 144.5q-23 10 -51 21.5t-48 26.5
q-35 -110 -55 -175t-32 -101t-17.5 -50t-10.5 -21zM295 553q-10 -15 -30.5 -12.5t-38 15t-26.5 31t4 36.5l117 154q12 18 33 17.5t39 -12t26 -31.5t-7 -42z" />
    <glyph glyph-name="Rcommaaccent" unicode="&#x156;" horiz-adv-x="837" 
d="M72 645q-26 4 -36.5 22.5t-9 38t13.5 34t33 11.5q30 -4 67.5 -5t73 6t65 25t44.5 51q12 22 28.5 32t33 9t31.5 -13t23 -36q2 -33 1 -62.5t-5 -61.5q14 23 40.5 51.5t60.5 53t71.5 40.5t73.5 15q45 -1 73 -18t42.5 -44t16.5 -61t-5.5 -69.5t-23 -70t-35.5 -61.5
q-21 -29 -50 -57.5t-62.5 -54t-69.5 -46.5t-72 -35q4 -15 12 -39t19 -51t24.5 -54t28.5 -49.5t32 -37t35 -15.5q16 -1 37 9.5t44 28t47 39t45.5 43t38.5 40t28 29.5q14 15 28.5 13.5t24.5 -12.5t13 -28.5t-6 -33.5q-26 -32 -59 -72.5t-72.5 -76.5t-84.5 -61.5t-94 -27.5
q-37 -2 -69 15t-58.5 45t-47.5 64.5t-37 75t-27.5 75t-18.5 64.5q-5 -16 -10.5 -44.5t-11 -62t-11 -69.5t-10 -68t-7.5 -56.5t-4 -35.5q-7 -20 -29 -28t-44.5 -5t-36.5 16.5t-4 35.5q16 123 29.5 220t24 176t17 144t8.5 122q-39 -17 -70.5 -23.5t-58 -7t-48 3t-40.5 5.5z
M416 448q43 1 84 19.5t76 46.5t62 61.5t42.5 65t17.5 57t-12 38.5q-17 15 -46 6.5t-65 -43t-76.5 -96.5t-82.5 -155zM384 -101q-18 34 -7.5 54t31.5 26.5t45 0.5t33 -23t19 -44t12.5 -60t-6.5 -71.5t-37 -78.5q-16 -23 -39 -23.5t-40.5 11.5t-23 32.5t12.5 41.5
q16 18 20.5 37t2 36t-9.5 33t-13 28z" />
    <glyph glyph-name="rcommaaccent" unicode="&#x157;" horiz-adv-x="501" 
d="M28 0q-10 -17 -28.5 -18.5t-36 6t-29.5 20.5t-7 25q7 17 18 44t27 78.5t36.5 136t46.5 215.5q4 32 22.5 46t40.5 12q13 -1 25 -6.5t20.5 -16t12.5 -25t0 -32.5q18 -21 35.5 -35.5t37 -24.5t42 -17.5t51.5 -15.5q20 -13 26 -26t4 -27.5t-9 -31t-13 -35.5q-3 -11 -7 -32
t-6.5 -46.5t-3.5 -52.5t1.5 -49.5t9.5 -38t20 -17.5q42 -8 79 50t71 190q5 24 21.5 32t34 5t30 -15t8.5 -29q-6 -37 -18 -82t-31.5 -89.5t-46.5 -84t-63 -64.5q-27 -19 -58.5 -24.5t-61.5 3t-54.5 30t-35.5 55.5q-23 69 -19 141.5t22 144.5q-23 10 -51 21.5t-48 26.5
q-35 -110 -55 -175t-32 -101t-17.5 -50t-10.5 -21zM80 -60q-18 34 -7.5 54t31.5 26.5t45 0.5t33 -23t19 -44t12.5 -60t-6.5 -71.5t-37 -78.5q-16 -23 -39 -23.5t-40.5 11.5t-23 32.5t12.5 41.5q16 18 20.5 37t2 36t-9.5 33t-13 28z" />
    <glyph glyph-name="Rcaron" unicode="&#x158;" horiz-adv-x="837" 
d="M72 645q-26 4 -36.5 22.5t-9 38t13.5 34t33 11.5q30 -4 67.5 -5t73 6t65 25t44.5 51q12 22 28.5 32t33 9t31.5 -13t23 -36q2 -33 1 -62.5t-5 -61.5q14 23 40.5 51.5t60.5 53t71.5 40.5t73.5 15q45 -1 73 -18t42.5 -44t16.5 -61t-5.5 -69.5t-23 -70t-35.5 -61.5
q-21 -29 -50 -57.5t-62.5 -54t-69.5 -46.5t-72 -35q4 -15 12 -39t19 -51t24.5 -54t28.5 -49.5t32 -37t35 -15.5q16 -1 37 9.5t44 28t47 39t45.5 43t38.5 40t28 29.5q14 15 28.5 13.5t24.5 -12.5t13 -28.5t-6 -33.5q-26 -32 -59 -72.5t-72.5 -76.5t-84.5 -61.5t-94 -27.5
q-37 -2 -69 15t-58.5 45t-47.5 64.5t-37 75t-27.5 75t-18.5 64.5q-5 -16 -10.5 -44.5t-11 -62t-11 -69.5t-10 -68t-7.5 -56.5t-4 -35.5q-7 -20 -29 -28t-44.5 -5t-36.5 16.5t-4 35.5q16 123 29.5 220t24 176t17 144t8.5 122q-39 -17 -70.5 -23.5t-58 -7t-48 3t-40.5 5.5z
M416 448q43 1 84 19.5t76 46.5t62 61.5t42.5 65t17.5 57t-12 38.5q-17 15 -46 6.5t-65 -43t-76.5 -96.5t-82.5 -155zM635 1017l62 83q10 15 31.5 12.5t40 -15t28.5 -31t-3 -36.5l-98 -132q-15 -22 -32.5 -30t-34 -6.5t-31.5 11t-24 22.5l-97 133q-13 18 -3 36.5t28.5 31
t40 15t31.5 -12.5z" />
    <glyph glyph-name="rcaron" unicode="&#x159;" horiz-adv-x="501" 
d="M28 0q-10 -17 -28.5 -18.5t-36 6t-29.5 20.5t-7 25q7 17 18 44t27 78.5t36.5 136t46.5 215.5q4 32 22.5 46t40.5 12q13 -1 25 -6.5t20.5 -16t12.5 -25t0 -32.5q18 -21 35.5 -35.5t37 -24.5t42 -17.5t51.5 -15.5q20 -13 26 -26t4 -27.5t-9 -31t-13 -35.5q-3 -11 -7 -32
t-6.5 -46.5t-3.5 -52.5t1.5 -49.5t9.5 -38t20 -17.5q42 -8 79 50t71 190q5 24 21.5 32t34 5t30 -15t8.5 -29q-6 -37 -18 -82t-31.5 -89.5t-46.5 -84t-63 -64.5q-27 -19 -58.5 -24.5t-61.5 3t-54.5 30t-35.5 55.5q-23 69 -19 141.5t22 144.5q-23 10 -51 21.5t-48 26.5
q-35 -110 -55 -175t-32 -101t-17.5 -50t-10.5 -21zM318 749l62 83q10 15 31.5 12.5t40 -15t28.5 -31t-3 -36.5l-98 -132q-15 -22 -32.5 -30t-34 -6.5t-31.5 11t-24 22.5l-97 133q-13 18 -3 36.5t28.5 31t40 15t31.5 -12.5z" />
    <glyph glyph-name="Sacute" unicode="&#x15a;" horiz-adv-x="762" 
d="M96 -23q-24 -12 -43 -2.5t-28.5 29t-7 42t20.5 36.5q29 17 58 41.5t58 53.5q-1 17 4 30t14 22t20.5 13t24.5 2q53 62 101 128.5t86 126.5q-14 39 -24 78q-12 46 -16.5 100t8 100t46.5 75t99 24q44 -3 67 -26.5t30 -59.5t1.5 -79t-18.5 -86t-30 -81t-32 -63
q15 -42 31.5 -86t30 -89.5t22 -92.5t7.5 -95q21 13 42.5 30.5t40.5 38.5t35 44.5t26 47.5t28 28t34 -4t23.5 -25.5t-2.5 -38.5q-39 -93 -107 -154.5t-154 -85.5q-38 -11 -86.5 -12t-98.5 8.5t-98 30.5t-84 55q-13 -12 -28.5 -26t-32.5 -28t-34.5 -27t-33.5 -23zM456 372
q-37 -51 -76.5 -106t-81.5 -106q39 -39 91.5 -58t113.5 -7q10 42 6 86t-14 82.5t-21.5 67.5t-17.5 41zM503 783q-21 4 -29 -15.5t-7.5 -48t6.5 -58.5t12 -46q10 11 18.5 37.5t12.5 54.5t1.5 50.5t-14.5 25.5zM432 890q-10 -15 -30.5 -12.5t-38 15t-26.5 31t4 36.5l117 154
q12 18 33 17.5t39 -12t26 -31.5t-7 -42z" />
    <glyph glyph-name="sacute" unicode="&#x15b;" horiz-adv-x="470" 
d="M-2 62q-24 -15 -44.5 -13.5t-33 14t-14.5 34.5t12 47q26 42 58.5 95t66 110l67 114t62.5 106q10 18 30 27t39.5 7.5t34 -14.5t14.5 -39q0 -16 -5 -32.5t0 -32.5q12 -40 26 -96.5t22 -119.5q3 -24 4.5 -52t1 -56t-3.5 -54.5t-8 -46.5q26 12 46 30t38 45t35.5 64.5
t37.5 88.5q10 26 28.5 30.5t36 -3t29 -23t7.5 -29.5q-9 -31 -26 -70.5t-43 -79.5q-17 -26 -36.5 -51t-42 -46t-48.5 -37t-54 -25q-43 -17 -87.5 -18t-86.5 11q-49 14 -89.5 44.5t-66.5 77.5zM194 382q-14 -23 -27 -46l-26 -46q-13 -24 -26.5 -48.5t-30.5 -51.5q5 -12 15 -32
t26 -40q14 -18 31.5 -33t37.5 -20q8 12 12 30t5.5 40.5t0.5 48t-3 51.5q-3 43 -8 82.5t-7 64.5zM253 647q-10 -15 -30.5 -12.5t-38 15t-26.5 31t4 36.5l117 154q12 18 33 17.5t39 -12t26 -31.5t-7 -42z" />
    <glyph glyph-name="Scircumflex" unicode="&#x15c;" horiz-adv-x="762" 
d="M96 -23q-24 -12 -43 -2.5t-28.5 29t-7 42t20.5 36.5q29 17 58 41.5t58 53.5q-1 17 4 30t14 22t20.5 13t24.5 2q53 62 101 128.5t86 126.5q-14 39 -24 78q-12 46 -16.5 100t8 100t46.5 75t99 24q44 -3 67 -26.5t30 -59.5t1.5 -79t-18.5 -86t-30 -81t-32 -63
q15 -42 31.5 -86t30 -89.5t22 -92.5t7.5 -95q21 13 42.5 30.5t40.5 38.5t35 44.5t26 47.5t28 28t34 -4t23.5 -25.5t-2.5 -38.5q-39 -93 -107 -154.5t-154 -85.5q-38 -11 -86.5 -12t-98.5 8.5t-98 30.5t-84 55q-13 -12 -28.5 -26t-32.5 -28t-34.5 -27t-33.5 -23zM456 372
q-37 -51 -76.5 -106t-81.5 -106q39 -39 91.5 -58t113.5 -7q10 42 6 86t-14 82.5t-21.5 67.5t-17.5 41zM503 783q-21 4 -29 -15.5t-7.5 -48t6.5 -58.5t12 -46q10 11 18.5 37.5t12.5 54.5t1.5 50.5t-14.5 25.5zM497 980l-56 -75q-9 -14 -28.5 -11.5t-37 13.5t-26.5 28t3 33
l89 121q14 19 30 26.5t31.5 6t28.5 -10t22 -20.5l88 -121q12 -17 3 -33.5t-26.5 -28t-36.5 -13.5t-28 11z" />
    <glyph glyph-name="scircumflex" unicode="&#x15d;" horiz-adv-x="470" 
d="M-2 62q-24 -15 -44.5 -13.5t-33 14t-14.5 34.5t12 47q26 42 58.5 95t66 110l67 114t62.5 106q10 18 30 27t39.5 7.5t34 -14.5t14.5 -39q0 -16 -5 -32.5t0 -32.5q12 -40 26 -96.5t22 -119.5q3 -24 4.5 -52t1 -56t-3.5 -54.5t-8 -46.5q26 12 46 30t38 45t35.5 64.5
t37.5 88.5q10 26 28.5 30.5t36 -3t29 -23t7.5 -29.5q-9 -31 -26 -70.5t-43 -79.5q-17 -26 -36.5 -51t-42 -46t-48.5 -37t-54 -25q-43 -17 -87.5 -18t-86.5 11q-49 14 -89.5 44.5t-66.5 77.5zM194 382q-14 -23 -27 -46l-26 -46q-13 -24 -26.5 -48.5t-30.5 -51.5q5 -12 15 -32
t26 -40q14 -18 31.5 -33t37.5 -20q8 12 12 30t5.5 40.5t0.5 48t-3 51.5q-3 43 -8 82.5t-7 64.5zM235 696l-56 -75q-9 -14 -28.5 -11.5t-37 13.5t-26.5 28t3 33l89 121q14 19 30 26.5t31.5 6t28.5 -10t22 -20.5l88 -121q12 -17 3 -33.5t-26.5 -28t-36.5 -13.5t-28 11z" />
    <glyph glyph-name="Scedilla" unicode="&#x15e;" horiz-adv-x="762" 
d="M96 -23q-24 -12 -43 -2.5t-28.5 29t-7 42t20.5 36.5q29 17 58 41.5t58 53.5q-1 17 4 30t14 22t20.5 13t24.5 2q53 62 101 128.5t86 126.5q-14 39 -24 78q-12 46 -16.5 100t8 100t46.5 75t99 24q44 -3 67 -26.5t30 -59.5t1.5 -79t-18.5 -86t-30 -81t-32 -63
q15 -42 31.5 -86t30 -89.5t22 -92.5t7.5 -95q21 13 42.5 30.5t40.5 38.5t35 44.5t26 47.5t28 28t34 -4t23.5 -25.5t-2.5 -38.5q-39 -93 -107 -154.5t-154 -85.5q-38 -11 -86.5 -12t-98.5 8.5t-98 30.5t-84 55q-13 -12 -28.5 -26t-32.5 -28t-34.5 -27t-33.5 -23zM456 372
q-37 -51 -76.5 -106t-81.5 -106q39 -39 91.5 -58t113.5 -7q10 42 6 86t-14 82.5t-21.5 67.5t-17.5 41zM503 783q-21 4 -29 -15.5t-7.5 -48t6.5 -58.5t12 -46q10 11 18.5 37.5t12.5 54.5t1.5 50.5t-14.5 25.5zM369 5q3 18 18 26.5t31.5 7t30 -12t13.5 -29.5q-1 -9 -4.5 -25.5
t-4.5 -24.5q45 -5 75.5 -17t48.5 -29t24.5 -38.5t3.5 -43.5q-8 -49 -61 -81t-150 -30q-27 3 -40.5 18t-13.5 32t13 32t40 18h35t33.5 2t25.5 7.5t10 15.5q0 7 -8 10t-20.5 4.5t-28.5 2.5t-32 3q-25 3 -36 16t-13 33t1.5 46t8.5 57z" />
    <glyph glyph-name="scedilla" unicode="&#x15f;" horiz-adv-x="470" 
d="M-2 62q-24 -15 -44.5 -13.5t-33 14t-14.5 34.5t12 47q26 42 58.5 95t66 110l67 114t62.5 106q10 18 30 27t39.5 7.5t34 -14.5t14.5 -39q0 -16 -5 -32.5t0 -32.5q12 -40 26 -96.5t22 -119.5q3 -24 4.5 -52t1 -56t-3.5 -54.5t-8 -46.5q26 12 46 30t38 45t35.5 64.5
t37.5 88.5q10 26 28.5 30.5t36 -3t29 -23t7.5 -29.5q-9 -31 -26 -70.5t-43 -79.5q-17 -26 -36.5 -51t-42 -46t-48.5 -37t-54 -25q-43 -17 -87.5 -18t-86.5 11q-49 14 -89.5 44.5t-66.5 77.5zM194 382q-14 -23 -27 -46l-26 -46q-13 -24 -26.5 -48.5t-30.5 -51.5q5 -12 15 -32
t26 -40q14 -18 31.5 -33t37.5 -20q8 12 12 30t5.5 40.5t0.5 48t-3 51.5q-3 43 -8 82.5t-7 64.5zM141 -38q3 18 18 26.5t31.5 7t30 -12t13.5 -29.5q-1 -9 -4.5 -25.5t-4.5 -24.5q45 -5 75.5 -17t48.5 -29t24.5 -38.5t3.5 -43.5q-8 -49 -61 -81t-150 -30q-27 3 -40.5 18
t-13.5 32t13 32t40 18h35t33.5 2t25.5 7.5t10 15.5q0 7 -8 10t-20.5 4.5t-28.5 2.5t-32 3q-25 3 -36 16t-13 33t1.5 46t8.5 57z" />
    <glyph glyph-name="Scaron" unicode="&#x160;" horiz-adv-x="762" 
d="M96 -23q-24 -12 -43 -2.5t-28.5 29t-7 42t20.5 36.5q29 17 58 41.5t58 53.5q-1 17 4 30t14 22t20.5 13t24.5 2q53 62 101 128.5t86 126.5q-14 39 -24 78q-12 46 -16.5 100t8 100t46.5 75t99 24q44 -3 67 -26.5t30 -59.5t1.5 -79t-18.5 -86t-30 -81t-32 -63
q15 -42 31.5 -86t30 -89.5t22 -92.5t7.5 -95q21 13 42.5 30.5t40.5 38.5t35 44.5t26 47.5t28 28t34 -4t23.5 -25.5t-2.5 -38.5q-39 -93 -107 -154.5t-154 -85.5q-38 -11 -86.5 -12t-98.5 8.5t-98 30.5t-84 55q-13 -12 -28.5 -26t-32.5 -28t-34.5 -27t-33.5 -23zM456 372
q-37 -51 -76.5 -106t-81.5 -106q39 -39 91.5 -58t113.5 -7q10 42 6 86t-14 82.5t-21.5 67.5t-17.5 41zM503 783q-21 4 -29 -15.5t-7.5 -48t6.5 -58.5t12 -46q10 11 18.5 37.5t12.5 54.5t1.5 50.5t-14.5 25.5zM496 1061l62 83q10 15 31.5 12.5t40 -15t28.5 -31t-3 -36.5
l-98 -132q-15 -22 -32.5 -30t-34 -6.5t-31.5 11t-24 22.5l-97 133q-13 18 -3 36.5t28.5 31t40 15t31.5 -12.5z" />
    <glyph glyph-name="scaron" unicode="&#x161;" horiz-adv-x="470" 
d="M-2 62q-24 -15 -44.5 -13.5t-33 14t-14.5 34.5t12 47q26 42 58.5 95t66 110l67 114t62.5 106q10 18 30 27t39.5 7.5t34 -14.5t14.5 -39q0 -16 -5 -32.5t0 -32.5q12 -40 26 -96.5t22 -119.5q3 -24 4.5 -52t1 -56t-3.5 -54.5t-8 -46.5q26 12 46 30t38 45t35.5 64.5
t37.5 88.5q10 26 28.5 30.5t36 -3t29 -23t7.5 -29.5q-9 -31 -26 -70.5t-43 -79.5q-17 -26 -36.5 -51t-42 -46t-48.5 -37t-54 -25q-43 -17 -87.5 -18t-86.5 11q-49 14 -89.5 44.5t-66.5 77.5zM194 382q-14 -23 -27 -46l-26 -46q-13 -24 -26.5 -48.5t-30.5 -51.5q5 -12 15 -32
t26 -40q14 -18 31.5 -33t37.5 -20q8 12 12 30t5.5 40.5t0.5 48t-3 51.5q-3 43 -8 82.5t-7 64.5zM266 803l62 83q10 15 31.5 12.5t40 -15t28.5 -31t-3 -36.5l-98 -132q-15 -22 -32.5 -30t-34 -6.5t-31.5 11t-24 22.5l-97 133q-13 18 -3 36.5t28.5 31t40 15t31.5 -12.5z" />
    <glyph glyph-name="Tcommaaccent" unicode="&#x162;" horiz-adv-x="625" 
d="M291 574q-18 -18 -40 -13t-38 20.5t-21 36.5t10 36q41 45 102 100t136 103q56 28 84.5 6.5t27.5 -74.5q0 -5 -1 -44.5t-3.5 -99.5t-8.5 -134.5t-17 -151t-28 -147.5t-42 -124q38 15 68 39t53.5 52.5t42 58t33.5 55.5q10 20 26.5 22t31.5 -7t23 -26.5t1 -36.5
q-33 -74 -85 -132t-115.5 -94t-134 -48t-138.5 8q-42 12 -82.5 43.5t-75 72.5t-60.5 87t-39 88q-7 25 5 44.5t31 28t39 3.5t29 -29q7 -21 21.5 -50t34 -58t43.5 -56t50 -43q19 -12 32.5 -17t24 -3t19 12.5t17.5 28.5q20 39 34 93.5t24 114.5t16 121.5t9.5 113t5 88.5t2.5 50
q-20 -18 -43 -38.5t-44 -40t-37 -35.5t-23 -24zM283 -193q-18 34 -7.5 54t31.5 26.5t45 0.5t33 -23t19 -44t12.5 -60t-6.5 -71.5t-37 -78.5q-16 -23 -39 -23.5t-40.5 11.5t-23 32.5t12.5 41.5q16 18 20.5 37t2 36t-9.5 33t-13 28z" />
    <glyph glyph-name="tcommaaccent" unicode="&#x163;" horiz-adv-x="356" 
d="M-18 521q-22 3 -32 20t-9 36.5t11.5 37t29.5 21.5q23 2 38 0t38 0l35 194q5 19 24 29t39.5 8.5t35.5 -15t12 -42.5l-29 -174h147q19 -2 29.5 -17t11.5 -34t-8 -37.5t-28 -26.5h-168q-2 -21 -9 -60t-14 -85t-11 -93.5t-1 -86.5t16 -64t41 -26q25 -1 54 6.5t55 26.5t47 51
t30 82q3 25 20 33t35.5 4t32 -17.5t9.5 -31.5q-13 -59 -37.5 -107.5t-62 -83.5t-89.5 -54.5t-120 -19.5q-51 0 -82.5 21.5t-48 59.5t-21 89t-1 109.5t12 121.5t18.5 125q-12 -1 -25.5 0t-25.5 0zM113 -133q-18 34 -7.5 54t31.5 26.5t45 0.5t33 -23t19 -44t12.5 -60
t-6.5 -71.5t-37 -78.5q-16 -23 -39 -23.5t-40.5 11.5t-23 32.5t12.5 41.5q16 18 20.5 37t2 36t-9.5 33t-13 28z" />
    <glyph glyph-name="Tcaron" unicode="&#x164;" horiz-adv-x="625" 
d="M291 574q-18 -18 -40 -13t-38 20.5t-21 36.5t10 36q41 45 102 100t136 103q56 28 84.5 6.5t27.5 -74.5q0 -5 -1 -44.5t-3.5 -99.5t-8.5 -134.5t-17 -151t-28 -147.5t-42 -124q38 15 68 39t53.5 52.5t42 58t33.5 55.5q10 20 26.5 22t31.5 -7t23 -26.5t1 -36.5
q-33 -74 -85 -132t-115.5 -94t-134 -48t-138.5 8q-42 12 -82.5 43.5t-75 72.5t-60.5 87t-39 88q-7 25 5 44.5t31 28t39 3.5t29 -29q7 -21 21.5 -50t34 -58t43.5 -56t50 -43q19 -12 32.5 -17t24 -3t19 12.5t17.5 28.5q20 39 34 93.5t24 114.5t16 121.5t9.5 113t5 88.5t2.5 50
q-20 -18 -43 -38.5t-44 -40t-37 -35.5t-23 -24zM476 1070l62 83q10 15 31.5 12.5t40 -15t28.5 -31t-3 -36.5l-98 -132q-15 -22 -32.5 -30t-34 -6.5t-31.5 11t-24 22.5l-97 133q-13 18 -3 36.5t28.5 31t40 15t31.5 -12.5z" />
    <glyph glyph-name="tcaron" unicode="&#x165;" horiz-adv-x="351" 
d="M-18 521q-22 3 -32 20t-9 36.5t11.5 37t29.5 21.5q23 2 38 0t38 0l35 194q5 19 24 29t39.5 8.5t35.5 -15t12 -42.5l-29 -174h147q19 -2 29.5 -17t11.5 -34t-8 -37.5t-28 -26.5h-168q-2 -21 -9 -60t-14 -85t-11 -93.5t-1 -86.5t16 -64t41 -26q25 -1 54 6.5t55 26.5t47 51
t30 82q3 25 20 33t35.5 4t32 -17.5t9.5 -31.5q-13 -59 -37.5 -107.5t-62 -83.5t-89.5 -54.5t-120 -19.5q-51 0 -82.5 21.5t-48 59.5t-21 89t-1 109.5t12 121.5t18.5 125q-12 -1 -25.5 0t-25.5 0zM300 958q26 -16 45 -42t28.5 -59t7.5 -70t-18 -75q-8 -20 -28.5 -28t-39.5 -4
t-30.5 19.5t-0.5 42.5q17 42 8 71.5t-34 51.5q-16 14 -15 34.5t11.5 37t28.5 24.5t37 -3z" />
    <glyph glyph-name="Tbar" unicode="&#x166;" horiz-adv-x="625" 
d="M291 574q-18 -18 -40 -13t-38 20.5t-21 36.5t10 36q41 45 102 100t136 103q56 28 84.5 6.5t27.5 -74.5q0 -5 -1 -44.5t-3.5 -99.5t-8.5 -134.5t-17 -151t-28 -147.5t-42 -124q38 15 68 39t53.5 52.5t42 58t33.5 55.5q10 20 26.5 22t31.5 -7t23 -26.5t1 -36.5
q-33 -74 -85 -132t-115.5 -94t-134 -48t-138.5 8q-42 12 -82.5 43.5t-75 72.5t-60.5 87t-39 88q-7 25 5 44.5t31 28t39 3.5t29 -29q7 -21 21.5 -50t34 -58t43.5 -56t50 -43q19 -12 32.5 -17t24 -3t19 12.5t17.5 28.5q20 39 34 93.5t24 114.5t16 121.5t9.5 113t5 88.5t2.5 50
q-20 -18 -43 -38.5t-44 -40t-37 -35.5t-23 -24zM289 368q-18 0 -28.5 17t-11.5 38t8 38t31 17l305 5q21 0 33.5 -17t14 -37.5t-9.5 -38t-37 -17.5z" />
    <glyph glyph-name="tbar" unicode="&#x167;" horiz-adv-x="356" 
d="M-18 521q-22 3 -32 20t-9 36.5t11.5 37t29.5 21.5q23 2 38 0t38 0l35 194q5 19 24 29t39.5 8.5t35.5 -15t12 -42.5l-29 -174h147q19 -2 29.5 -17t11.5 -34t-8 -37.5t-28 -26.5h-168q-2 -21 -9 -60t-14 -85t-11 -93.5t-1 -86.5t16 -64t41 -26q25 -1 54 6.5t55 26.5t47 51
t30 82q3 25 20 33t35.5 4t32 -17.5t9.5 -31.5q-13 -59 -37.5 -107.5t-62 -83.5t-89.5 -54.5t-120 -19.5q-51 0 -82.5 21.5t-48 59.5t-21 89t-1 109.5t12 121.5t18.5 125q-12 -1 -25.5 0t-25.5 0zM-43 361q-18 0 -28.5 17t-11.5 38t8 38t31 17l305 5q21 0 33.5 -17t14 -37.5
t-9.5 -38t-37 -17.5z" />
    <glyph glyph-name="Utilde" unicode="&#x168;" horiz-adv-x="621" 
d="M82 834q7 15 21 23t29.5 10t31 -2.5t27 -15t15.5 -27t-3 -39.5q-8 -23 -21.5 -78t-25 -125t-18.5 -146t-2.5 -140.5t23 -108t57.5 -49.5q24 -3 47 13.5t43 44.5t37 63t30.5 69t22.5 62.5t13 43.5l79 391q3 24 23.5 32.5t44 4.5t41 -19t14.5 -39q-2 -10 -9.5 -44.5
t-18.5 -84.5t-23.5 -110.5t-24 -122.5t-20 -121t-11.5 -106.5t1.5 -78.5t18.5 -36q15 -6 31.5 8t33 40t31.5 60.5t28 70.5q4 16 21.5 23t35.5 4.5t30 -16t5 -37.5q-6 -26 -18.5 -58.5t-30 -66t-40 -64t-48 -52.5t-55 -33t-60.5 -4q-23 5 -38.5 19.5t-26 34.5t-17 43.5
t-10.5 45.5q-16 -20 -36.5 -39.5t-45 -35t-52 -24t-57.5 -4.5q-54 7 -90.5 39t-59 81.5t-32.5 111.5t-10.5 129.5t6 136t17 130t23 112t23.5 81.5zM601 1012q-21 -45 -48.5 -75t-58.5 -41.5t-64 -3.5t-64 38q-24 24 -42.5 33.5t-33.5 6.5t-29 -18.5t-30 -40.5
q-10 -15 -28 -17t-33 5.5t-22.5 23t3.5 34.5q23 40 48 69.5t53.5 41.5t62 2.5t73.5 -48.5q27 -26 48 -32.5t37 1t27.5 25.5t20.5 42q6 17 23 19.5t32.5 -5.5t24.5 -24t0 -36z" />
    <glyph glyph-name="utilde" unicode="&#x169;" 
d="M60 552q14 25 33.5 34.5t38 5t31.5 -22t13 -46.5q-3 -12 -11 -48t-17.5 -83t-18.5 -99.5t-12 -96.5t1.5 -74t20.5 -33q29 -5 54 22t46 71.5t38 99.5t29.5 105.5t20.5 89.5t12 52q7 25 18.5 41t35.5 26q35 4 54.5 -14.5t20.5 -53.5q-8 -39 -18 -83t-19 -87.5t-15 -84
t-7.5 -72.5t3 -54t18.5 -28q32 -5 57.5 33t54.5 124q9 22 27 27t33.5 -2.5t24 -26.5t-0.5 -46q-6 -17 -15 -39.5t-21.5 -46.5t-27.5 -48t-32 -43q-25 -30 -56 -42.5t-61 -8.5t-57 25t-44 59q-18 -26 -36.5 -48t-41 -38t-50 -23.5t-64.5 -5.5q-36 2 -59.5 20t-36.5 46
t-18 61.5t-5 67.5t2.5 64.5t4.5 51.5q3 27 9.5 63t14 73.5t15.5 73t13 62.5zM491 742q-21 -45 -48.5 -75t-58.5 -41.5t-64 -3.5t-64 38q-24 24 -42.5 33.5t-33.5 6.5t-29 -18.5t-30 -40.5q-10 -15 -28 -17t-33 5.5t-22.5 23t3.5 34.5q23 40 48 69.5t53.5 41.5t62 2.5
t73.5 -48.5q27 -26 48 -32.5t37 1t27.5 25.5t20.5 42q6 17 23 19.5t32.5 -5.5t24.5 -24t0 -36z" />
    <glyph glyph-name="Umacron" unicode="&#x16a;" horiz-adv-x="621" 
d="M82 834q7 15 21 23t29.5 10t31 -2.5t27 -15t15.5 -27t-3 -39.5q-8 -23 -21.5 -78t-25 -125t-18.5 -146t-2.5 -140.5t23 -108t57.5 -49.5q24 -3 47 13.5t43 44.5t37 63t30.5 69t22.5 62.5t13 43.5l79 391q3 24 23.5 32.5t44 4.5t41 -19t14.5 -39q-2 -10 -9.5 -44.5
t-18.5 -84.5t-23.5 -110.5t-24 -122.5t-20 -121t-11.5 -106.5t1.5 -78.5t18.5 -36q15 -6 31.5 8t33 40t31.5 60.5t28 70.5q4 16 21.5 23t35.5 4.5t30 -16t5 -37.5q-6 -26 -18.5 -58.5t-30 -66t-40 -64t-48 -52.5t-55 -33t-60.5 -4q-23 5 -38.5 19.5t-26 34.5t-17 43.5
t-10.5 45.5q-16 -20 -36.5 -39.5t-45 -35t-52 -24t-57.5 -4.5q-54 7 -90.5 39t-59 81.5t-32.5 111.5t-10.5 129.5t6 136t17 130t23 112t23.5 81.5zM196 903q-18 0 -28.5 17t-11.5 38t8 38t31 17l305 5q21 0 33.5 -17t14 -37.5t-9.5 -38t-37 -17.5z" />
    <glyph glyph-name="umacron" unicode="&#x16b;" 
d="M60 552q14 25 33.5 34.5t38 5t31.5 -22t13 -46.5q-3 -12 -11 -48t-17.5 -83t-18.5 -99.5t-12 -96.5t1.5 -74t20.5 -33q29 -5 54 22t46 71.5t38 99.5t29.5 105.5t20.5 89.5t12 52q7 25 18.5 41t35.5 26q35 4 54.5 -14.5t20.5 -53.5q-8 -39 -18 -83t-19 -87.5t-15 -84
t-7.5 -72.5t3 -54t18.5 -28q32 -5 57.5 33t54.5 124q9 22 27 27t33.5 -2.5t24 -26.5t-0.5 -46q-6 -17 -15 -39.5t-21.5 -46.5t-27.5 -48t-32 -43q-25 -30 -56 -42.5t-61 -8.5t-57 25t-44 59q-18 -26 -36.5 -48t-41 -38t-50 -23.5t-64.5 -5.5q-36 2 -59.5 20t-36.5 46
t-18 61.5t-5 67.5t2.5 64.5t4.5 51.5q3 27 9.5 63t14 73.5t15.5 73t13 62.5zM105 624q-18 0 -28.5 17t-11.5 38t8 38t31 17l305 5q21 0 33.5 -17t14 -37.5t-9.5 -38t-37 -17.5z" />
    <glyph glyph-name="Ubreve" unicode="&#x16c;" horiz-adv-x="621" 
d="M82 834q7 15 21 23t29.5 10t31 -2.5t27 -15t15.5 -27t-3 -39.5q-8 -23 -21.5 -78t-25 -125t-18.5 -146t-2.5 -140.5t23 -108t57.5 -49.5q24 -3 47 13.5t43 44.5t37 63t30.5 69t22.5 62.5t13 43.5l79 391q3 24 23.5 32.5t44 4.5t41 -19t14.5 -39q-2 -10 -9.5 -44.5
t-18.5 -84.5t-23.5 -110.5t-24 -122.5t-20 -121t-11.5 -106.5t1.5 -78.5t18.5 -36q15 -6 31.5 8t33 40t31.5 60.5t28 70.5q4 16 21.5 23t35.5 4.5t30 -16t5 -37.5q-6 -26 -18.5 -58.5t-30 -66t-40 -64t-48 -52.5t-55 -33t-60.5 -4q-23 5 -38.5 19.5t-26 34.5t-17 43.5
t-10.5 45.5q-16 -20 -36.5 -39.5t-45 -35t-52 -24t-57.5 -4.5q-54 7 -90.5 39t-59 81.5t-32.5 111.5t-10.5 129.5t6 136t17 130t23 112t23.5 81.5zM531 1000q-24 -42 -66 -67t-88.5 -28.5t-90.5 16t-71 67.5q-11 19 -4.5 39.5t21.5 33t33.5 13t31.5 -20.5q16 -25 38 -35.5
t44.5 -8.5t42 14t31.5 32q10 18 28 18.5t32.5 -9.5t21.5 -27.5t-4 -36.5z" />
    <glyph glyph-name="ubreve" unicode="&#x16d;" 
d="M60 552q14 25 33.5 34.5t38 5t31.5 -22t13 -46.5q-3 -12 -11 -48t-17.5 -83t-18.5 -99.5t-12 -96.5t1.5 -74t20.5 -33q29 -5 54 22t46 71.5t38 99.5t29.5 105.5t20.5 89.5t12 52q7 25 18.5 41t35.5 26q35 4 54.5 -14.5t20.5 -53.5q-8 -39 -18 -83t-19 -87.5t-15 -84
t-7.5 -72.5t3 -54t18.5 -28q32 -5 57.5 33t54.5 124q9 22 27 27t33.5 -2.5t24 -26.5t-0.5 -46q-6 -17 -15 -39.5t-21.5 -46.5t-27.5 -48t-32 -43q-25 -30 -56 -42.5t-61 -8.5t-57 25t-44 59q-18 -26 -36.5 -48t-41 -38t-50 -23.5t-64.5 -5.5q-36 2 -59.5 20t-36.5 46
t-18 61.5t-5 67.5t2.5 64.5t4.5 51.5q3 27 9.5 63t14 73.5t15.5 73t13 62.5zM421 706q-24 -42 -66 -67t-88.5 -28.5t-90.5 16t-71 67.5q-11 19 -4.5 39.5t21.5 33t33.5 13t31.5 -20.5q16 -25 38 -35.5t44.5 -8.5t42 14t31.5 32q10 18 28 18.5t32.5 -9.5t21.5 -27.5t-4 -36.5
z" />
    <glyph glyph-name="Uring" unicode="&#x16e;" horiz-adv-x="621" 
d="M82 834q7 15 21 23t29.5 10t31 -2.5t27 -15t15.5 -27t-3 -39.5q-8 -23 -21.5 -78t-25 -125t-18.5 -146t-2.5 -140.5t23 -108t57.5 -49.5q24 -3 47 13.5t43 44.5t37 63t30.5 69t22.5 62.5t13 43.5l79 391q3 24 23.5 32.5t44 4.5t41 -19t14.5 -39q-2 -10 -9.5 -44.5
t-18.5 -84.5t-23.5 -110.5t-24 -122.5t-20 -121t-11.5 -106.5t1.5 -78.5t18.5 -36q15 -6 31.5 8t33 40t31.5 60.5t28 70.5q4 16 21.5 23t35.5 4.5t30 -16t5 -37.5q-6 -26 -18.5 -58.5t-30 -66t-40 -64t-48 -52.5t-55 -33t-60.5 -4q-23 5 -38.5 19.5t-26 34.5t-17 43.5
t-10.5 45.5q-16 -20 -36.5 -39.5t-45 -35t-52 -24t-57.5 -4.5q-54 7 -90.5 39t-59 81.5t-32.5 111.5t-10.5 129.5t6 136t17 130t23 112t23.5 81.5zM289 1000q-8 -19 5 -32.5t33.5 -18t40.5 2.5t26 28q3 17 -10 29t-31.5 16.5t-37 -1t-26.5 -24.5zM204 1005q6 43 31.5 67.5
t59.5 33t70.5 2t65 -26t44 -50.5t6.5 -72q-11 -37 -38 -58.5t-59.5 -28.5t-66.5 -1t-61 23t-42.5 45.5t-9.5 65.5z" />
    <glyph glyph-name="uring" unicode="&#x16f;" 
d="M60 552q14 25 33.5 34.5t38 5t31.5 -22t13 -46.5q-3 -12 -11 -48t-17.5 -83t-18.5 -99.5t-12 -96.5t1.5 -74t20.5 -33q29 -5 54 22t46 71.5t38 99.5t29.5 105.5t20.5 89.5t12 52q7 25 18.5 41t35.5 26q35 4 54.5 -14.5t20.5 -53.5q-8 -39 -18 -83t-19 -87.5t-15 -84
t-7.5 -72.5t3 -54t18.5 -28q32 -5 57.5 33t54.5 124q9 22 27 27t33.5 -2.5t24 -26.5t-0.5 -46q-6 -17 -15 -39.5t-21.5 -46.5t-27.5 -48t-32 -43q-25 -30 -56 -42.5t-61 -8.5t-57 25t-44 59q-18 -26 -36.5 -48t-41 -38t-50 -23.5t-64.5 -5.5q-36 2 -59.5 20t-36.5 46
t-18 61.5t-5 67.5t2.5 64.5t4.5 51.5q3 27 9.5 63t14 73.5t15.5 73t13 62.5zM203 740q-8 -19 5 -32.5t33.5 -18t40.5 2.5t26 28q3 17 -10 29t-31.5 16.5t-37 -1t-26.5 -24.5zM118 745q6 43 31.5 67.5t59.5 33t70.5 2t65 -26t44 -50.5t6.5 -72q-11 -37 -38 -58.5t-59.5 -28.5
t-66.5 -1t-61 23t-42.5 45.5t-9.5 65.5z" />
    <glyph glyph-name="Uhungarumlaut" unicode="&#x170;" horiz-adv-x="621" 
d="M82 834q7 15 21 23t29.5 10t31 -2.5t27 -15t15.5 -27t-3 -39.5q-8 -23 -21.5 -78t-25 -125t-18.5 -146t-2.5 -140.5t23 -108t57.5 -49.5q24 -3 47 13.5t43 44.5t37 63t30.5 69t22.5 62.5t13 43.5l79 391q3 24 23.5 32.5t44 4.5t41 -19t14.5 -39q-2 -10 -9.5 -44.5
t-18.5 -84.5t-23.5 -110.5t-24 -122.5t-20 -121t-11.5 -106.5t1.5 -78.5t18.5 -36q15 -6 31.5 8t33 40t31.5 60.5t28 70.5q4 16 21.5 23t35.5 4.5t30 -16t5 -37.5q-6 -26 -18.5 -58.5t-30 -66t-40 -64t-48 -52.5t-55 -33t-60.5 -4q-23 5 -38.5 19.5t-26 34.5t-17 43.5
t-10.5 45.5q-16 -20 -36.5 -39.5t-45 -35t-52 -24t-57.5 -4.5q-54 7 -90.5 39t-59 81.5t-32.5 111.5t-10.5 129.5t6 136t17 130t23 112t23.5 81.5zM250 905q-10 -15 -31.5 -12.5t-40 15t-28.5 31t3 36.5l116 156q12 18 34.5 17t41.5 -13t28 -32t-6 -42zM452 902
q-10 -15 -31.5 -12.5t-40 15t-28.5 31t3 36.5l116 156q12 18 34.5 17t41.5 -13t28 -32t-6 -42z" />
    <glyph glyph-name="uhungarumlaut" unicode="&#x171;" 
d="M60 552q14 25 33.5 34.5t38 5t31.5 -22t13 -46.5q-3 -12 -11 -48t-17.5 -83t-18.5 -99.5t-12 -96.5t1.5 -74t20.5 -33q29 -5 54 22t46 71.5t38 99.5t29.5 105.5t20.5 89.5t12 52q7 25 18.5 41t35.5 26q35 4 54.5 -14.5t20.5 -53.5q-8 -39 -18 -83t-19 -87.5t-15 -84
t-7.5 -72.5t3 -54t18.5 -28q32 -5 57.5 33t54.5 124q9 22 27 27t33.5 -2.5t24 -26.5t-0.5 -46q-6 -17 -15 -39.5t-21.5 -46.5t-27.5 -48t-32 -43q-25 -30 -56 -42.5t-61 -8.5t-57 25t-44 59q-18 -26 -36.5 -48t-41 -38t-50 -23.5t-64.5 -5.5q-36 2 -59.5 20t-36.5 46
t-18 61.5t-5 67.5t2.5 64.5t4.5 51.5q3 27 9.5 63t14 73.5t15.5 73t13 62.5zM150 625q-10 -15 -31.5 -12.5t-40 15t-28.5 31t3 36.5l116 156q12 18 34.5 17t41.5 -13t28 -32t-6 -42zM352 622q-10 -15 -31.5 -12.5t-40 15t-28.5 31t3 36.5l116 156q12 18 34.5 17t41.5 -13
t28 -32t-6 -42z" />
    <glyph glyph-name="Uogonek" unicode="&#x172;" horiz-adv-x="621" 
d="M82 834q7 15 21 23t29.5 10t31 -2.5t27 -15t15.5 -27t-3 -39.5q-8 -23 -21.5 -78t-25 -125t-18.5 -146t-2.5 -140.5t23 -108t57.5 -49.5q24 -3 47 13.5t43 44.5t37 63t30.5 69t22.5 62.5t13 43.5l79 391q3 24 23.5 32.5t44 4.5t41 -19t14.5 -39q-2 -10 -9.5 -44.5
t-18.5 -84.5t-23.5 -110.5t-24 -122.5t-20 -121t-11.5 -106.5t1.5 -78.5t18.5 -36q15 -6 31.5 8t33 40t31.5 60.5t28 70.5q4 16 21.5 23t35.5 4.5t30 -16t5 -37.5q-6 -26 -18.5 -58.5t-30 -66t-40 -64t-48 -52.5t-55 -33t-60.5 -4q-23 5 -38.5 19.5t-26 34.5t-17 43.5
t-10.5 45.5q-16 -20 -36.5 -39.5t-45 -35t-52 -24t-57.5 -4.5q-54 7 -90.5 39t-59 81.5t-32.5 111.5t-10.5 129.5t6 136t17 130t23 112t23.5 81.5zM499 -9q-18 -8 -31.5 -25t-16.5 -36t6.5 -36.5t38.5 -26.5q16 -5 19 -21t-3 -32.5t-20.5 -28t-33.5 -5.5q-46 14 -69 42
t-28.5 61.5t4 68t27.5 62t42.5 42.5t48.5 9q12 -3 21.5 -12.5t13 -21.5t-0.5 -23t-18 -17z" />
    <glyph glyph-name="uogonek" unicode="&#x173;" 
d="M60 552q14 25 33.5 34.5t38 5t31.5 -22t13 -46.5q-3 -12 -11 -48t-17.5 -83t-18.5 -99.5t-12 -96.5t1.5 -74t20.5 -33q29 -5 54 22t46 71.5t38 99.5t29.5 105.5t20.5 89.5t12 52q7 25 18.5 41t35.5 26q35 4 54.5 -14.5t20.5 -53.5q-8 -39 -18 -83t-19 -87.5t-15 -84
t-7.5 -72.5t3 -54t18.5 -28q32 -5 57.5 33t54.5 124q9 22 27 27t33.5 -2.5t24 -26.5t-0.5 -46q-6 -17 -15 -39.5t-21.5 -46.5t-27.5 -48t-32 -43q-25 -30 -56 -42.5t-61 -8.5t-57 25t-44 59q-18 -26 -36.5 -48t-41 -38t-50 -23.5t-64.5 -5.5q-36 2 -59.5 20t-36.5 46
t-18 61.5t-5 67.5t2.5 64.5t4.5 51.5q3 27 9.5 63t14 73.5t15.5 73t13 62.5zM425 7q-18 -8 -31.5 -25t-16.5 -36t6.5 -36.5t38.5 -26.5q16 -5 19 -21t-3 -32.5t-20.5 -28t-33.5 -5.5q-46 14 -69 42t-28.5 61.5t4 68t27.5 62t42.5 42.5t48.5 9q12 -3 21.5 -12.5t13 -21.5
t-0.5 -23t-18 -17z" />
    </font>
</defs>
</svg>
